<svg xmlns="http://www.w3.org/2000/svg" xmlns:xlink="http://www.w3.org/1999/xlink" viewBox="0 0 160.08 220.78"><defs><style>.cls-1{fill:none;}.cls-2{fill:url(#Naamloos_verloop_37);}.cls-3{fill:url(#Naamloos_verloop_37-2);}.cls-4{fill:url(#Naamloos_verloop_37-3);}.cls-5{fill:url(#Naamloos_verloop_37-4);}.cls-6{fill:url(#Naamloos_verloop_37-5);}.cls-7{fill:url(#Naamloos_verloop_37-6);}.cls-8{fill:url(#Naamloos_verloop_37-7);}.cls-9{fill:url(#Naamloos_verloop_37-8);}.cls-10{fill:url(#Naamloos_verloop_37-9);}.cls-11{fill:url(#Naamloos_verloop_37-10);}.cls-12{fill:url(#Naamloos_verloop_37-11);}.cls-13{fill:url(#Naamloos_verloop_37-12);}.cls-14{fill:url(#Naamloos_verloop_37-13);}.cls-15{fill:url(#Naamloos_verloop_37-14);}.cls-16{fill:url(#Naamloos_verloop_37-15);}.cls-17{fill:url(#Naamloos_verloop_37-16);}.cls-18{fill:url(#Naamloos_verloop_37-17);}.cls-19{fill:url(#Naamloos_verloop_37-18);}.cls-20{fill:url(#Naamloos_verloop_37-19);}.cls-21{fill:url(#Naamloos_verloop_37-20);}.cls-22,.cls-36{fill:#162d95;}.cls-23{fill:url(#Naamloos_verloop_16);}.cls-24{fill:url(#Naamloos_verloop_22);}.cls-25{fill:url(#Naamloos_verloop_22-2);}.cls-26{fill:url(#Naamloos_verloop_16-2);}.cls-27{fill:url(#Naamloos_verloop_22-3);}.cls-28{fill:url(#Naamloos_verloop_16-3);}.cls-29{fill:url(#Naamloos_verloop_22-4);}.cls-30{fill:url(#Naamloos_verloop_16-4);}.cls-31{fill:url(#Naamloos_verloop_22-5);}.cls-32{fill:url(#Naamloos_verloop_16-5);}.cls-33{fill:url(#Naamloos_verloop_22-6);}.cls-34{fill:url(#Naamloos_verloop_10);}.cls-35{fill:url(#Naamloos_verloop_22-7);}.cls-36{fill-rule:evenodd;}.cls-37{fill:url(#Naamloos_verloop_16-6);}.cls-38{fill:url(#Naamloos_verloop_22-8);}.cls-39{fill:url(#Naamloos_verloop_10-2);}.cls-40{fill:url(#Naamloos_verloop_16-7);}.cls-41{fill:url(#Naamloos_verloop_22-9);}.cls-42{fill:url(#Naamloos_verloop_22-10);}.cls-43{fill:url(#Naamloos_verloop_16-8);}.cls-44{fill:url(#Naamloos_verloop_22-11);}.cls-45{fill:url(#Naamloos_verloop_22-12);}</style><linearGradient id="Naamloos_verloop_37" x1="57.64" y1="176.26" x2="74.76" y2="168.64" gradientUnits="userSpaceOnUse"><stop offset="0.16" stop-color="#99c2d1"/><stop offset="0.2" stop-color="#ef5a68"/><stop offset="0.72" stop-color="#c9f479"/><stop offset="0.74" stop-color="#162d95"/><stop offset="0.94" stop-color="#e0e0e0"/></linearGradient><linearGradient id="Naamloos_verloop_37-2" x1="-413.29" y1="176.26" x2="-396.17" y2="168.64" gradientTransform="matrix(-1, 0, 0, 1, -310.85, 0)" xlink:href="#Naamloos_verloop_37"/><linearGradient id="Naamloos_verloop_37-3" x1="-398.09" y1="193.06" x2="-380.97" y2="185.44" gradientTransform="translate(-295.74 237.27) rotate(180)" xlink:href="#Naamloos_verloop_37"/><linearGradient id="Naamloos_verloop_37-4" x1="42.6" y1="193.06" x2="59.73" y2="185.44" gradientTransform="matrix(1, 0, 0, -1, 15.12, 237.27)" xlink:href="#Naamloos_verloop_37"/><linearGradient id="Naamloos_verloop_37-5" x1="-232.08" y1="-146.62" x2="-214.96" y2="-154.24" gradientTransform="translate(-26.26 321.59) rotate(90)" xlink:href="#Naamloos_verloop_37"/><linearGradient id="Naamloos_verloop_37-6" x1="-418.93" y1="146.28" x2="-401.81" y2="138.66" gradientTransform="translate(-295.74 237.27) rotate(180)" xlink:href="#Naamloos_verloop_37"/><linearGradient id="Naamloos_verloop_37-7" x1="-228.95" y1="-139.59" x2="-211.83" y2="-147.22" gradientTransform="translate(-26.26 321.59) rotate(90)" xlink:href="#Naamloos_verloop_37"/><linearGradient id="Naamloos_verloop_37-8" x1="-119.95" y1="-146.62" x2="-102.83" y2="-154.24" gradientTransform="matrix(0, -1, -1, 0, -26.26, 10.74)" xlink:href="#Naamloos_verloop_37"/><linearGradient id="Naamloos_verloop_37-9" x1="-434.13" y1="129.49" x2="-417" y2="121.86" gradientTransform="matrix(-1, 0, 0, 1, -310.85, 0)" xlink:href="#Naamloos_verloop_37"/><linearGradient id="Naamloos_verloop_37-10" x1="-116.9" y1="-139.76" x2="-99.77" y2="-147.39" gradientTransform="matrix(0, -1, -1, 0, -26.26, 10.74)" xlink:href="#Naamloos_verloop_37"/><linearGradient id="Naamloos_verloop_37-11" x1="-232.08" y1="347.84" x2="-214.96" y2="340.21" gradientTransform="matrix(0, 1, 1, 0, -308.12, 321.59)" xlink:href="#Naamloos_verloop_37"/><linearGradient id="Naamloos_verloop_37-12" x1="21.77" y1="146.28" x2="38.89" y2="138.66" gradientTransform="matrix(1, 0, 0, -1, 15.12, 237.27)" xlink:href="#Naamloos_verloop_37"/><linearGradient id="Naamloos_verloop_37-13" x1="-228.95" y1="354.86" x2="-211.83" y2="347.24" gradientTransform="matrix(0, 1, 1, 0, -308.12, 321.59)" xlink:href="#Naamloos_verloop_37"/><linearGradient id="Naamloos_verloop_37-14" x1="-119.95" y1="347.84" x2="-102.83" y2="340.21" gradientTransform="translate(-308.12 10.74) rotate(-90)" xlink:href="#Naamloos_verloop_37"/><linearGradient id="Naamloos_verloop_37-15" x1="36.8" y1="129.49" x2="53.93" y2="121.86" xlink:href="#Naamloos_verloop_37"/><linearGradient id="Naamloos_verloop_37-16" x1="-116.9" y1="354.7" x2="-99.77" y2="347.07" gradientTransform="translate(-308.12 10.74) rotate(-90)" xlink:href="#Naamloos_verloop_37"/><linearGradient id="Naamloos_verloop_37-17" x1="-121.53" y1="-146.62" x2="-104.41" y2="-154.24" gradientTransform="translate(-26.26 321.59) rotate(90)" xlink:href="#Naamloos_verloop_37"/><linearGradient id="Naamloos_verloop_37-18" x1="-121.53" y1="347.84" x2="-104.41" y2="340.21" gradientTransform="matrix(0, 1, 1, 0, -308.12, 321.59)" xlink:href="#Naamloos_verloop_37"/><linearGradient id="Naamloos_verloop_37-19" x1="-165.16" y1="388.57" x2="-148.04" y2="380.95" gradientTransform="translate(-348.85 -144.57) rotate(-90)" xlink:href="#Naamloos_verloop_37"/><linearGradient id="Naamloos_verloop_37-20" x1="-165.16" y1="-187.36" x2="-148.04" y2="-194.98" gradientTransform="matrix(0, -1, -1, 0, -67, -144.57)" xlink:href="#Naamloos_verloop_37"/><linearGradient id="Naamloos_verloop_16" x1="-3671.64" y1="307.35" x2="-3671.57" y2="307.35" gradientTransform="translate(56144.63 669813.86) rotate(90) scale(182.41)" gradientUnits="userSpaceOnUse"><stop offset="0" stop-color="#dad7d3"/><stop offset="0.51" stop-color="#fffbf7"/><stop offset="1" stop-color="#eeebe7"/></linearGradient><linearGradient id="Naamloos_verloop_22" x1="-3682.38" y1="351.16" x2="-3682.28" y2="351.16" gradientTransform="translate(185509.15 -592098.91) rotate(-67.17) scale(167.76)" gradientUnits="userSpaceOnUse"><stop offset="0" stop-color="#791426"/><stop offset="0.53" stop-color="#af1c3b"/><stop offset="1" stop-color="#791426"/></linearGradient><linearGradient id="Naamloos_verloop_22-2" x1="-3682.38" y1="351.16" x2="-3682.28" y2="351.16" xlink:href="#Naamloos_verloop_22"/><linearGradient id="Naamloos_verloop_16-2" x1="-3671.64" y1="307.36" x2="-3671.54" y2="307.36" xlink:href="#Naamloos_verloop_16"/><linearGradient id="Naamloos_verloop_22-3" x1="-3682.38" y1="351.15" x2="-3682.28" y2="351.15" xlink:href="#Naamloos_verloop_22"/><linearGradient id="Naamloos_verloop_16-3" x1="-3671.54" y1="307.36" x2="-3671.54" y2="307.36" xlink:href="#Naamloos_verloop_16"/><linearGradient id="Naamloos_verloop_22-4" x1="-3682.38" y1="351.15" x2="-3682.31" y2="351.15" xlink:href="#Naamloos_verloop_22"/><linearGradient id="Naamloos_verloop_16-4" x1="-3671.57" y1="307.35" x2="-3671.52" y2="307.35" xlink:href="#Naamloos_verloop_16"/><linearGradient id="Naamloos_verloop_22-5" x1="-3682.38" y1="351.15" x2="-3682.3" y2="351.15" xlink:href="#Naamloos_verloop_22"/><linearGradient id="Naamloos_verloop_16-5" x1="-3671.64" y1="307.35" x2="-3671.54" y2="307.35" xlink:href="#Naamloos_verloop_16"/><linearGradient id="Naamloos_verloop_22-6" x1="-3682.38" y1="351.15" x2="-3682.28" y2="351.15" xlink:href="#Naamloos_verloop_22"/><linearGradient id="Naamloos_verloop_10" x1="-3770.52" y1="329.24" x2="-3770.41" y2="329.24" gradientTransform="translate(-158435.14 -68835.96) rotate(-151.52) scale(45.67)" gradientUnits="userSpaceOnUse"><stop offset="0" stop-color="#fffbf7"/><stop offset="0.53" stop-color="#fffbf7"/><stop offset="1" stop-color="#b4b2af"/></linearGradient><linearGradient id="Naamloos_verloop_22-7" x1="-3664.97" y1="313.3" x2="-3664.86" y2="313.3" gradientTransform="translate(331426.77 598793.15) rotate(65.92) scale(186.03)" xlink:href="#Naamloos_verloop_22"/><linearGradient id="Naamloos_verloop_16-6" x1="-3672.4" y1="306.35" x2="-3672.3" y2="306.35" gradientTransform="translate(669873.6 -55881.69) scale(182.41)" xlink:href="#Naamloos_verloop_16"/><linearGradient id="Naamloos_verloop_22-8" x1="-3681.2" y1="351.83" x2="-3681.1" y2="351.83" gradientTransform="matrix(-154.61, -65.1, 65.1, -154.61, -592039.17, -185246.21)" xlink:href="#Naamloos_verloop_22"/><linearGradient id="Naamloos_verloop_10-2" x1="-3770.02" y1="328.43" x2="-3769.92" y2="328.43" gradientTransform="translate(-68776.23 158698.08) rotate(118.48) scale(45.67)" xlink:href="#Naamloos_verloop_10"/><linearGradient id="Naamloos_verloop_16-7" x1="-3672.4" y1="307.56" x2="-3672.33" y2="307.56" gradientTransform="translate(669873.6 -55881.69) scale(182.41)" xlink:href="#Naamloos_verloop_16"/><linearGradient id="Naamloos_verloop_22-9" x1="-3681.71" y1="350.63" x2="-3681.61" y2="350.63" gradientTransform="matrix(-154.61, -65.1, 65.1, -154.61, -592039.17, -185246.21)" xlink:href="#Naamloos_verloop_22"/><linearGradient id="Naamloos_verloop_22-10" x1="-3681.71" y1="350.64" x2="-3681.61" y2="350.64" gradientTransform="matrix(-154.61, -65.1, 65.1, -154.61, -592039.17, -185246.21)" xlink:href="#Naamloos_verloop_22"/><linearGradient id="Naamloos_verloop_16-8" x1="-3672.4" y1="307.56" x2="-3672.3" y2="307.56" gradientTransform="translate(669873.6 -55881.69) scale(182.41)" xlink:href="#Naamloos_verloop_16"/><linearGradient id="Naamloos_verloop_22-11" x1="-3681.71" y1="350.62" x2="-3681.61" y2="350.62" gradientTransform="matrix(-154.61, -65.1, 65.1, -154.61, -592039.17, -185246.21)" xlink:href="#Naamloos_verloop_22"/><linearGradient id="Naamloos_verloop_22-12" x1="-3665.73" y1="313.18" x2="-3665.62" y2="313.18" gradientTransform="translate(598852.89 -331163.83) rotate(-24.08) scale(186.03)" xlink:href="#Naamloos_verloop_22"/></defs><g id="Laag_2" data-name="Laag 2"><g id="Laag_1-2" data-name="Laag 1"><polygon class="cls-1" points="0 152.62 0 178.13 80.04 220.65 34.24 134.43 0 152.62"/><polygon class="cls-1" points="119.53 220.65 160.08 220.65 160.08 206.22 119.53 220.65"/><polygon class="cls-1" points="80.04 0 0 42.52 0 67.58 34.42 85.87 80.04 0"/><polygon class="cls-1" points="0 220.65 40.55 220.65 0 206.22 0 220.65"/><polygon class="cls-1" points="160.08 124.53 160.08 95.67 119.53 110.1 160.08 124.53"/><polygon class="cls-1" points="160.08 152.62 125.84 134.43 80.04 220.65 160.08 178.13 160.08 152.62"/><polygon class="cls-1" points="0 95.67 0 124.53 40.55 110.1 0 95.67"/><polygon class="cls-1" points="80.04 39.49 58.9 98.87 80.04 110.1 101.17 98.87 80.04 39.49"/><polygon class="cls-1" points="160.08 67.58 160.08 42.52 80.04 0 125.65 85.87 160.08 67.58"/><polygon class="cls-1" points="58.77 121.4 80.04 181.16 101.31 121.4 80.04 110.1 58.77 121.4"/><polygon class="cls-1" points="0 0 0 14.43 40.55 0 0 0"/><polygon class="cls-1" points="160.08 0 119.53 0 160.08 14.43 160.08 0"/><polygon class="cls-2" points="58.77 121.4 34.24 134.43 80.04 220.65 80.04 181.16 58.77 121.4"/><polygon class="cls-3" points="101.31 121.4 80.04 181.16 80.04 220.65 125.84 134.43 101.31 121.4"/><polygon class="cls-4" points="101.17 98.87 125.65 85.87 80.04 0 80.04 39.49 101.17 98.87"/><polygon class="cls-5" points="58.9 98.87 80.04 39.49 80.04 0 34.42 85.87 58.9 98.87"/><polygon class="cls-6" points="125.96 86.44 103 104 101.17 98.87 80.04 110.1 119.53 110.1 160.08 95.67 160.08 67.58 125.65 85.87 125.96 86.44"/><polygon class="cls-7" points="125.96 86.44 125.65 85.87 101.17 98.87 103 104 125.96 86.44"/><polygon class="cls-8" points="125.96 86.44 125.65 85.87 101.17 98.87 103 104 125.96 86.44"/><polygon class="cls-9" points="80.04 110.1 101.31 121.4 103 116.65 125.96 134.21 125.84 134.43 160.08 152.62 160.08 124.53 119.53 110.1 80.04 110.1"/><polygon class="cls-10" points="103 116.65 101.31 121.4 125.84 134.43 125.96 134.21 103 116.65"/><polygon class="cls-11" points="103 116.65 101.31 121.4 125.84 134.43 125.96 134.21 103 116.65"/><polygon class="cls-12" points="80.04 110.1 58.9 98.87 57.08 104 34.12 86.44 34.42 85.87 0 67.58 0 95.67 40.55 110.1 80.04 110.1"/><polygon class="cls-13" points="34.12 86.44 57.08 104 58.9 98.87 34.42 85.87 34.12 86.44"/><polygon class="cls-14" points="34.12 86.44 57.08 104 58.9 98.87 34.42 85.87 34.12 86.44"/><polygon class="cls-15" points="34.12 134.21 57.08 116.65 58.77 121.4 80.04 110.1 40.55 110.1 0 124.53 0 152.62 34.24 134.43 34.12 134.21"/><polygon class="cls-16" points="34.12 134.21 34.24 134.43 58.77 121.4 57.08 116.65 34.12 134.21"/><polygon class="cls-17" points="34.12 134.21 34.24 134.43 58.77 121.4 57.08 116.65 34.12 134.21"/><polygon class="cls-18" points="160.08 178.13 80.04 220.65 119.53 220.65 160.08 206.22 160.08 178.13"/><polygon class="cls-19" points="0 206.22 40.55 220.65 80.04 220.65 0 178.13 0 206.22"/><polygon class="cls-20" points="40.55 0 0 14.43 0 42.52 80.04 0 40.55 0"/><polygon class="cls-21" points="160.08 14.43 119.53 0 80.04 0 160.08 42.52 160.08 14.43"/><path class="cls-1" d="M80.19,87.47a.12.12,0,0,0-.1.12c0,.08.2.15.29.09a.24.24,0,0,0,.1-.27.23.23,0,0,0-.16-.18h0s0-.09,0-.13h0c-.1,0-.15.06-.21.14h0a1,1,0,0,0,0-.14.23.23,0,0,0-.12.1s0,.11,0,.15l-.08-.06a.24.24,0,0,0,0,.29l.19.26a.51.51,0,0,1,.15.3.38.38,0,0,1-.15.3.44.44,0,0,1-.27.09s0,0,0,0,.09,0,.13,0c.3-.08.49-.31.41-.54s-.16-.24-.2-.33a.38.38,0,0,1-.06-.23.23.23,0,0,1,.25-.18.15.15,0,0,1,.13.14.16.16,0,0,1-.09.13.06.06,0,0,1-.08,0,.06.06,0,0,1,0-.07Z"/><path class="cls-1" d="M81.78,84.59a.67.67,0,0,0-.38-.31l-.13,0a.76.76,0,0,0-.43.16h0l.06,0c-.07.08-.19.11-.25.22h.19a1.8,1.8,0,0,0-.08.21A1,1,0,0,1,81.78,84.59Z"/><path class="cls-1" d="M81.83,85a.82.82,0,0,0,.09-.19.6.6,0,0,0-.43-.73l-.12,0A3,3,0,0,0,81,84a.54.54,0,0,1-.33-.07.32.32,0,0,1-.09-.42.21.21,0,0,1,.26-.08.25.25,0,0,1,.12.19.11.11,0,0,1-.06.1.08.08,0,0,1-.1,0h0a.16.16,0,0,0,.09.19c.11,0,.23-.11.21-.26a.37.37,0,0,0-.21-.3.26.26,0,0,0-.33.06l0,0a1.85,1.85,0,0,0-.14-.14c-.08.13,0,.25.05.38l-.19,0a.27.27,0,0,0,.06.21,1.29,1.29,0,0,0,.17.16l-.13,0a.33.33,0,0,0,.37.21,3.29,3.29,0,0,0,.43-.09.87.87,0,0,1,.48,0,.53.53,0,0,1,.28.37.49.49,0,0,1,0,.39Z"/><path class="cls-1" d="M79.87,88.39c.07,0,.13-.21.12-.31a.45.45,0,0,0-.22-.33v0c-.06,0-.1-.1-.19-.11s0,.07,0,.11h-.16A.71.71,0,0,1,79.87,88.39Z"/><path class="cls-1" d="M81.87,83.4a3.82,3.82,0,0,0-.21-.46,1.27,1.27,0,0,0-.21-.25.33.33,0,0,0-.16-.07.16.16,0,0,0-.11,0h0a.29.29,0,0,0-.1.28.38.38,0,0,0,.13.26.49.49,0,0,1,0-.12.11.11,0,0,1,.13-.1h0a.27.27,0,0,1,.17.16c0,.12.09.25.13.37a.38.38,0,0,0,.25.27.48.48,0,0,0,.29,0l-.1-.06A.59.59,0,0,1,81.87,83.4Z"/><path class="cls-1" d="M78.94,82l-.33-.71c-1.34,3.39-1.39,4.88-1.14,5.63a1.19,1.19,0,0,0,.46.62,1.14,1.14,0,0,0,.47.19h.12l.19,0c.59-.11,1.11-.77,1.19-1.85A8.85,8.85,0,0,0,78.94,82Z"/><path class="cls-1" d="M80.35,81.1l0-.1a.11.11,0,0,0-.1.08.86.86,0,0,0-.13-.2.32.32,0,0,0-.15-.13h0a0,0,0,0,0,0,0A.27.27,0,0,0,80,81a.9.9,0,0,0,.16.18.1.1,0,0,0-.06.1.6.6,0,0,1,.13.09c.09.07.14,0,.15,0l0-.06a.09.09,0,0,0,.07,0s.06,0,0-.09S80.37,81.14,80.35,81.1Z"/><path class="cls-1" d="M80.13,81.75v0h0c0,.09.13.1.16.09a.6.6,0,0,1,.11-.06h.11a.81.81,0,0,0-.29-.12A.1.1,0,0,0,80.13,81.75Z"/><path class="cls-1" d="M81.05,83.88a.25.25,0,0,0,.21-.28.06.06,0,0,0,0,0,.69.69,0,0,0-.29-.27.43.43,0,0,1,.08.59Z"/><path class="cls-1" d="M81.29,82.38h0v0c-.17.05-.34-.07-.52-.19l-.3-.2a.28.28,0,0,0-.12,0h0l0,0a.27.27,0,0,0,.07.08l-.09,0s0,0-.06,0,0,0,0,.08l.06,0a.12.12,0,0,0,0,.16.09.09,0,0,1,.07,0,.23.23,0,0,1,.09.08.19.19,0,0,0,.2.08.15.15,0,0,0,.08-.16.24.24,0,0,0-.17-.17s0,0,0,.07h.08a.26.26,0,0,1,0,.09s0,.07,0,.07a.15.15,0,0,1-.16-.1.11.11,0,0,1,0-.08.13.13,0,0,1,.07-.15.22.22,0,0,1,.18,0c.13.07.27.25.39.32A.2.2,0,0,0,81.29,82.38Z"/><path class="cls-1" d="M82.25,84.44h0a.21.21,0,0,0,.28.11h0l.1,0c0-.1-.08-.18-.11-.28a.43.43,0,0,0-.35-.32l-.13,0C82.12,84.08,82.18,84.26,82.25,84.44Z"/><path class="cls-1" d="M83.48,85.51c-.09,0-.12,0-.16-.08l-.14-.09a.3.3,0,0,0,.09.28A.18.18,0,0,0,83.48,85.51Z"/><path class="cls-1" d="M83.17,85.84h.08s0,0,0-.07a.33.33,0,0,0-.14-.19.33.33,0,0,0,0,.26Z"/><path class="cls-1" d="M81,89a.72.72,0,0,1,.44-.18l.32,0h.19a.42.42,0,0,0,.27-.21l-.08,0a.61.61,0,0,0,.23-.37l-.13.08a.87.87,0,0,0,.07-.17.17.17,0,0,0,0-.14s-.06.09-.09.15h0a.34.34,0,0,0-.37,0c-.08.08-.17.29,0,.38a.09.09,0,0,0,.11,0,.17.17,0,0,0,.09-.11,0,0,0,0,0,0,0l0,0s-.07.06-.09,0a.12.12,0,0,1,0-.13c.06-.12.18-.16.24-.12s.06.09,0,.19a.41.41,0,0,1-.2.23,1.05,1.05,0,0,1-.24.06.41.41,0,0,1-.16,0,.44.44,0,0,0-.2,0,1.14,1.14,0,0,0-.56.43h.08A.8.8,0,0,1,81,89Z"/><path class="cls-1" d="M80.82,81.06a.16.16,0,0,0-.08-.06h0s0,0,0,0a.75.75,0,0,0,.17.3.12.12,0,0,1,0-.16A.12.12,0,0,0,80.82,81.06Z"/><polygon class="cls-1" points="77.21 70.34 77.02 70.03 76.71 70.21 76.89 70.52 77.21 70.34"/><path class="cls-1" d="M81.42,72A2.24,2.24,0,0,0,79,70.58a2.13,2.13,0,0,0-.82.26l0,.06a3.85,3.85,0,0,0-.31,2.76,8.68,8.68,0,0,0,.32,1.24,23.23,23.23,0,0,0,1.77,3.33C80.85,76.22,81.93,73.46,81.42,72Z"/><path class="cls-1" d="M76.62,70.85h0a.78.78,0,0,0-.78.79h0a.79.79,0,1,0,.79-.79Zm-.34,1.24a.58.58,0,0,1-.21-.32h.05a.2.2,0,0,1,.2.2A.17.17,0,0,1,76.28,72.09Zm-.12-.63-.08,0h0a.59.59,0,0,1,.25-.29.19.19,0,0,1,0,.1A.21.21,0,0,1,76.16,71.46Zm.39.41a.05.05,0,0,1,0,0h0l-.1-.19a0,0,0,0,1,0-.06l.15-.16s0,0,.06,0l.2.1a.05.05,0,0,1,0,0l0,.22s0,0,0,0l-.21,0Zm.07.33h-.05a.2.2,0,0,1,.2-.18.2.2,0,0,1,.17.09A.62.62,0,0,1,76.62,72.2Zm.17-.92h-.07a.21.21,0,0,1-.13-.19h0a.5.5,0,0,1,.34.12A.19.19,0,0,1,76.79,71.28Zm.34.59a.21.21,0,0,1-.13-.19h0a.21.21,0,0,1,.15-.2.45.45,0,0,1,0,.16A.59.59,0,0,1,77.13,71.87Z"/><rect class="cls-1" x="76.34" y="72.85" width="0.36" height="0.37" transform="translate(-29.17 77.38) rotate(-46.02)"/><path class="cls-1" d="M80.57,81.63c0-.06-.18-.24-.24-.15s0,.1.08.15l.18.13a.21.21,0,0,0,.12.19l.15.1a.12.12,0,0,1,0,0,.2.2,0,0,0,.12.13.4.4,0,0,0,.15,0,.11.11,0,0,0,.1-.06.26.26,0,0,0,0-.27.34.34,0,0,0-.08-.09l-.06-.07a1.14,1.14,0,0,0-.1-.19c-.06-.08-.12-.11-.18-.1l-.15-.18a.21.21,0,0,0-.14-.07s0,0,0,0h0s0,0,0,.07a.29.29,0,0,0,.15.14.86.86,0,0,1,.31.26l0,.06-.23-.2a.29.29,0,0,0-.22-.1,0,0,0,0,0,0,0,.43.43,0,0,0,.12.22l.17.23,0,0A1.32,1.32,0,0,1,80.57,81.63Z"/><path class="cls-1" d="M81.77,82.46a2.44,2.44,0,0,0,.35.37,2.39,2.39,0,0,1,.22.23.63.63,0,0,1,.15.45.51.51,0,0,0,.09-.48.76.76,0,0,0-.23-.3l-.21-.17a.37.37,0,0,1-.17-.28c0-.09,0-.12.16-.09h0A.44.44,0,0,0,82,82a.3.3,0,0,0-.16-.05.22.22,0,0,0-.11,0h0c-.09,0-.13.17,0,.34A.44.44,0,0,0,81.77,82.46Z"/><path class="cls-1" d="M82.9,84.81a8.07,8.07,0,0,0-.55-1.24.14.14,0,0,1,0-.11.29.29,0,0,0,0-.22,2,2,0,0,0-.4-.47l-.28-.22-.05,0s0,0,0,0h0a3.87,3.87,0,0,1,.33.64,2.61,2.61,0,0,0,.2.3.22.22,0,0,0,.11,0,.1.1,0,0,1,.07,0,8.35,8.35,0,0,1,.54,1.27,0,0,0,0,1,0,0,.26.26,0,0,0,0,.3c0,.07.15.2.18.19a1.64,1.64,0,0,0,0-.23,1.23,1.23,0,0,0,0-.2s-.06-.07-.09-.1S82.91,84.83,82.9,84.81Z"/><path class="cls-1" d="M82.74,84.12a2.72,2.72,0,0,1,.11.25A.34.34,0,0,0,83,84a1.15,1.15,0,0,0-.12-.25l-.11-.16-.1-.17a.83.83,0,0,0,0,.72Z"/><path class="cls-1" d="M82.87,85.4a.36.36,0,0,0,0-.1.46.46,0,0,0-.13.21h0a.15.15,0,0,1-.13.12.13.13,0,0,0,.14,0,.15.15,0,0,0,.11-.08A.31.31,0,0,0,82.87,85.4Z"/><path class="cls-1" d="M82.93,85.39c0,.08,0,.15,0,.21h0a.17.17,0,0,1-.06.16.18.18,0,0,0,.16,0,.19.19,0,0,0,0-.13A.26.26,0,0,0,82.93,85.39Z"/><path class="cls-1" d="M82.75,69.23h0l0,0-.12.08a1,1,0,0,1-.59.33,2.88,2.88,0,0,1-1.5-.43c-.62-.29-1.64.49-2.19,1.29a4.15,4.15,0,0,1,.61-.14h.58a2.2,2.2,0,0,1,.37.06l.29.08.1,0,.28.13a2.29,2.29,0,0,1,1,1.28c.53,1.48-.45,4.41-1.44,6.48a.91.91,0,0,1-.07.14c.29.48.58,1,.86,1.49l.09.14h0a2.05,2.05,0,0,1,.12.2c1.16-1.87,4.71-6.85,2.56-10.1A4.08,4.08,0,0,0,82.75,69.23Z"/><path class="cls-1" d="M82.61,85.27h.2a.36.36,0,0,1,0-.36h0l-.12.1h0a.73.73,0,0,0-.22.27.27.27,0,0,0,0,.28C82.57,85.45,82.64,85.37,82.61,85.27Z"/><path class="cls-1" d="M82.75,69.23l0,0c.29-.19.86-.29,1.36.47a1.72,1.72,0,0,0-2.16-1,3.25,3.25,0,0,1-.83.06l-.53-.28a2.53,2.53,0,0,0-3.35.81.12.12,0,0,0,0,.15l.06,0a.12.12,0,0,0,.08,0,2.34,2.34,0,0,1,3.1-.75l.87.44a1.33,1.33,0,0,0,1.33.18l0,0Z"/><path class="cls-1" d="M81.48,81.27a.11.11,0,0,1,0-.08h0c-.09,0-.1,0-.15,0l0-.07s0,0,0,0l0,0h0s0,0-.07.14a.6.6,0,0,0-.08-.08l0,0a.22.22,0,0,0,0,.16,3.07,3.07,0,0,0,.17.31c.12.19.22.37.16.54h0a.21.21,0,0,0,.09-.28h0a3.81,3.81,0,0,1-.29-.41.19.19,0,0,1,0-.18.15.15,0,0,1,.16-.06s0,0,.08,0a.18.18,0,0,1,.09.18s0,0-.07,0a.15.15,0,0,1-.09-.06.19.19,0,0,1,0-.08c-.05,0-.06,0-.06,0a.23.23,0,0,0,.15.19.13.13,0,0,0,.16-.07.18.18,0,0,0-.06-.2A.32.32,0,0,1,81.48,81.27Z"/><path class="cls-1" d="M80.53,88.94l-.14.14.27,0,0,0a.8.8,0,0,0,.13-.13,1,1,0,0,0,.08-.11l.09-.1a.57.57,0,0,0-.46.19Z"/><path class="cls-1" d="M82.55,84.72a.92.92,0,0,0-.73.51h.05l-.09.22a.7.7,0,0,0,.17-.09c0,.05,0,.09,0,.13a1.61,1.61,0,0,1,.62-.76A.06.06,0,0,0,82.55,84.72Z"/><path class="cls-1" d="M81.38,87.81l-.09.1-.1.17a1.21,1.21,0,0,1-.21.24,1.23,1.23,0,0,0,.14-.25c0-.08,0-.16.08-.23s0,0,0,0l0,0a4,4,0,0,1-.35.37l0,0a.54.54,0,0,1,.1-.2L81,88a.76.76,0,0,0,.12-.19.14.14,0,0,0,0-.18.19.19,0,0,0-.1,0l-.11,0a.29.29,0,0,0-.14.15l.08,0a.08.08,0,0,1,.1.07h0a.24.24,0,0,1-.07.16l-.22.17a.23.23,0,0,0-.11.21.28.28,0,0,0,.12.21,3.24,3.24,0,0,1-.5.48l.15,0c.16-.14.31-.29.46-.44a.38.38,0,0,0,.41,0,.51.51,0,0,0,.15-.21l.06-.18a.28.28,0,0,1,.15-.17c.05,0,.09,0,.09.08v0a.37.37,0,0,0,.07-.14.2.2,0,0,0,0-.18A.15.15,0,0,0,81.38,87.81Z"/><path class="cls-1" d="M80.35,88.41a.37.37,0,0,0,0-.09c-.1.1-.21.18-.3.26h0a.14.14,0,0,0,0,.2h0l.06.06.15-.13A.31.31,0,0,0,80.35,88.41Z"/><path class="cls-1" d="M79.5,88.58s0,0,0,0h-.16l.1.09-.08.06A1.08,1.08,0,0,1,80,89,.62.62,0,0,0,79.5,88.58Z"/><path class="cls-1" d="M82,87.15s0,0,0-.06,0-.06,0-.06h0l-.07,0v0a.11.11,0,0,1,0-.05h0l-.1.06a.4.4,0,0,0-.14.15s0,0,0-.06a.12.12,0,0,0,0-.16l0,0v0l.06-.13a.09.09,0,0,0-.1,0,.85.85,0,0,0,0-.23.32.32,0,0,0,0-.16h0a0,0,0,0,0,0,0h0a.41.41,0,0,0,0,.18.81.81,0,0,0,0,.22.11.11,0,0,0-.12,0,.44.44,0,0,1,0,.1v.07a.28.28,0,0,0-.12.2v0c0-.07-.06-.13-.08-.19a.24.24,0,0,0-.07-.12l0,0s0,0,0,0v0l-.06,0,0,0s0,0,0,0v.06a.1.1,0,0,0-.12,0,.07.07,0,0,1,0,0,.29.29,0,0,1,0,.09.21.21,0,0,0,0,.2.1.1,0,0,0,.13,0A.24.24,0,0,0,81,87s0,0-.06,0,0,0,0,.06a.11.11,0,0,1,0,.07s0,0-.06,0a.15.15,0,0,1,0-.16L81,87a.12.12,0,0,1,.13,0,.16.16,0,0,1,.06.13c0,.11,0,.28,0,.38s.07.14.15.16l.15,0a.18.18,0,0,0,.24-.06c0-.09.08-.26.13-.36a.2.2,0,0,1,.12-.08.1.1,0,0,1,.1.07.17.17,0,0,1,0,.07.13.13,0,0,1-.07.13s-.05,0-.05,0a.09.09,0,0,1,0-.07s0,0,0,0,0,0,0,0a.26.26,0,0,0-.07.22.1.1,0,0,0,.1.07.2.2,0,0,0,.12-.16l0-.09a.06.06,0,0,1,.06,0h0C82.1,87.15,82.05,87.16,82,87.15Z"/><path class="cls-22" d="M76.77,72a.2.2,0,0,0-.2.18h.05a.62.62,0,0,0,.32-.09A.2.2,0,0,0,76.77,72Z"/><path class="cls-22" d="M76.82,71.79l0-.22a.05.05,0,0,0,0,0l-.2-.1s0,0-.06,0l-.15.16a0,0,0,0,0,0,.06l.1.19h0a.05.05,0,0,0,0,0h0l.21,0S76.82,71.81,76.82,71.79Z"/><path class="cls-22" d="M76.12,71.77h-.05a.58.58,0,0,0,.21.32.17.17,0,0,0,0-.12A.2.2,0,0,0,76.12,71.77Z"/><path class="cls-22" d="M76.09,71.44h0l.08,0a.21.21,0,0,0,.21-.21.19.19,0,0,0,0-.1A.59.59,0,0,0,76.09,71.44Z"/><path class="cls-22" d="M76.59,71.08a.21.21,0,0,0,.13.19h.07A.19.19,0,0,0,77,71.2a.5.5,0,0,0-.34-.12Z"/><path class="cls-23" d="M81,89.11h0Z"/><path class="cls-22" d="M77,71.68h0a.21.21,0,0,0,.13.19.59.59,0,0,0,.05-.23.45.45,0,0,0,0-.16A.21.21,0,0,0,77,71.68Z"/><path class="cls-24" d="M80.78,89.12h0Z"/><path class="cls-25" d="M81.73,89h0l-.1,0Z"/><polygon class="cls-26" points="79.61 87.8 79.61 87.8 79.61 87.8 79.61 87.8"/><polygon class="cls-27" points="79.61 87.8 79.61 87.8 79.61 87.8 79.61 87.8"/><polygon class="cls-28" points="79.51 88.61 79.51 88.61 79.51 88.61 79.51 88.61"/><polygon class="cls-29" points="79.51 88.61 79.51 88.61 79.51 88.61 79.51 88.61"/><polygon class="cls-30" points="80.81 87.58 80.81 87.58 80.82 87.58 80.81 87.58"/><polygon class="cls-31" points="80.81 87.58 80.81 87.58 80.82 87.58 80.81 87.58"/><polygon class="cls-32" points="80.11 87.23 80.11 87.23 80.11 87.24 80.11 87.23"/><polygon class="cls-33" points="80.11 87.23 80.11 87.23 80.11 87.24 80.11 87.23"/><path class="cls-34" d="M82.75,69.23l0,0,0,0Z"/><path class="cls-22" d="M84.44,70.22l-.29-.54,0,0c-.79-1.42-.81-1.15-1.3-1.23l0,0c-.55-.13-1.5-.49-2-.66a1.1,1.1,0,0,0-.31,0h-.07c-.59,0-1.53.26-2.18.33a2.11,2.11,0,0,0-.5.1c-.37.15-.46.4-.62.6a.35.35,0,0,1-.24.17c-.63.23-2.13,2.08-1.81,4.62a4.62,4.62,0,0,0,.15.74c.61,2.44,2.69,5.72,3.19,6.65A18.8,18.8,0,0,0,77,85.2a6.31,6.31,0,0,0-.07.76,3,3,0,0,0,.61,2.18l.11.11a2,2,0,0,0,.84.5,1.65,1.65,0,0,0,1.05,0A2.44,2.44,0,0,0,80,89a2.46,2.46,0,0,0,.8.15,1.14,1.14,0,0,1,.56-.43.44.44,0,0,1,.2,0,.41.41,0,0,0,.16,0,1.05,1.05,0,0,0,.24-.06.41.41,0,0,0,.2-.23c0-.1,0-.16,0-.19s-.18,0-.24.12a.12.12,0,0,0,0,.13s0,0,.09,0l0,0a0,0,0,0,1,0,0,.17.17,0,0,1-.09.11.09.09,0,0,1-.11,0c-.14-.09-.05-.3,0-.38a.34.34,0,0,1,.37,0h0c0-.06.06-.1.09-.15a.17.17,0,0,1,0,.14.87.87,0,0,1-.07.17l.13-.08a.61.61,0,0,1-.23.37l.08,0a.42.42,0,0,1-.27.21h-.19l-.32,0A.72.72,0,0,0,81,89a.8.8,0,0,0-.13.13H81a1.24,1.24,0,0,1,.5-.17h0a.32.32,0,0,1,.2.07,2.62,2.62,0,0,0,.59-.22,1.55,1.55,0,0,0,1.09-1.14,3.81,3.81,0,0,0,.12-2.3.18.18,0,0,1-.07,0,.11.11,0,0,1-.15,0,1.37,1.37,0,0,1-.13-.2h0a.35.35,0,0,1,.18,0,.14.14,0,0,0,.11,0,2.68,2.68,0,0,1-.07-.27l-.1-.08a.26.26,0,0,1-.14.15c0-.14-.08-.26-.22-.28l0,0h0a.74.74,0,0,1,.29-.08h0a2.34,2.34,0,0,0-.09-.24,1.43,1.43,0,0,0-.27.09h0a.64.64,0,0,1,.21-.25,26.11,26.11,0,0,0-1.34-2.66l-.32-.6h0l.13-.24c.77-1.43,2.45-4.38,2.76-5.28,0,0,0-.1,0-.14A6,6,0,0,0,84.44,70.22ZM83.18,85.34l.14.09s.07.1.16.08a.18.18,0,0,1-.21.11A.3.3,0,0,1,83.18,85.34Zm0,.24a.33.33,0,0,1,.14.19s0,0,0,.07h-.08A.33.33,0,0,1,83.15,85.58ZM77,70l.19.31-.32.18-.18-.31Zm-.5,3.26L76.26,73l.25-.26.27.25Zm.1-.86a.79.79,0,0,1-.79-.79h0a.78.78,0,0,1,.78-.79h0a.79.79,0,1,1,0,1.58Zm1.5,2.47a8.68,8.68,0,0,1-.32-1.24,3.85,3.85,0,0,1,.31-2.76l0-.06a2.13,2.13,0,0,1,.82-.26A2.24,2.24,0,0,1,81.42,72c.51,1.42-.57,4.18-1.53,6.19A23.23,23.23,0,0,1,78.12,74.9Zm2.57,6.81a.43.43,0,0,1-.12-.22,0,0,0,0,1,0,0,.29.29,0,0,1,.22.1l.23.2,0-.06a.86.86,0,0,0-.31-.26.29.29,0,0,1-.15-.14s0,0,0-.07h0s0,0,0,0a.21.21,0,0,1,.14.07l.15.18c.06,0,.12,0,.18.1a1.14,1.14,0,0,1,.1.19l.06.07a.34.34,0,0,1,.08.09.26.26,0,0,1,0,.27.11.11,0,0,1-.1.06.4.4,0,0,1-.15,0,.2.2,0,0,1-.12-.13.12.12,0,0,0,0,0l-.15-.1a.21.21,0,0,1-.12-.19l-.18-.13c-.07,0-.11-.12-.08-.15s.21.09.24.15a1.32,1.32,0,0,0,.25.28l0,0Zm.16-.36a.75.75,0,0,1-.17-.3h0s0,0,0,0h0a.16.16,0,0,1,.08.06.12.12,0,0,1,0,.13A.12.12,0,0,0,80.85,81.35Zm1.06,2.44a.38.38,0,0,1-.25-.27c0-.12-.08-.25-.13-.37a.27.27,0,0,0-.17-.16h0a.11.11,0,0,0-.13.1.49.49,0,0,0,0,.12.38.38,0,0,1-.13-.26.29.29,0,0,1,.1-.28h0a.16.16,0,0,1,.11,0,.33.33,0,0,1,.16.07,1.27,1.27,0,0,1,.21.25,3.82,3.82,0,0,1,.21.46.59.59,0,0,0,.23.29l.1.06A.48.48,0,0,1,81.91,83.79Zm.61.44c0,.1.08.18.11.28l-.1,0h0a.21.21,0,0,1-.28-.11h0c-.07-.18-.13-.36-.21-.55l.13,0A.43.43,0,0,1,82.52,84.23Zm-.68.3a.53.53,0,0,0-.28-.37.87.87,0,0,0-.48,0,3.29,3.29,0,0,1-.43.09.33.33,0,0,1-.37-.21l.13,0a1.29,1.29,0,0,1-.17-.16.27.27,0,0,1-.06-.21l.19,0c-.08-.13-.13-.25-.05-.38a1.85,1.85,0,0,1,.14.14l0,0a.26.26,0,0,1,.33-.06.37.37,0,0,1,.21.3c0,.15-.1.3-.21.26a.16.16,0,0,1-.09-.19h0a.08.08,0,0,0,.1,0,.11.11,0,0,0,.06-.1.25.25,0,0,0-.12-.19.21.21,0,0,0-.26.08.32.32,0,0,0,.09.42A.54.54,0,0,0,81,84a3,3,0,0,1,.42,0l.12,0a.6.6,0,0,1,.43.73.82.82,0,0,1-.09.19l0,0A.49.49,0,0,0,81.84,84.53Zm-1.19.14c.06-.11.18-.14.25-.22l-.06,0h0a.76.76,0,0,1,.43-.16l.13,0a.67.67,0,0,1,.38.31,1,1,0,0,0-1,.29,1.8,1.8,0,0,1,.08-.21Zm-.45,2.89a.06.06,0,0,0,.08,0,.16.16,0,0,0,.09-.13.15.15,0,0,0-.13-.14.23.23,0,0,0-.25.18.38.38,0,0,0,.06.23c0,.09.16.24.2.33s-.11.46-.41.54c0,0-.12,0-.13,0s0,0,0,0a.44.44,0,0,0,.27-.09.38.38,0,0,0,.15-.3.51.51,0,0,0-.15-.3l-.19-.26a.24.24,0,0,1,0-.29l.08.06s0-.1,0-.15a.23.23,0,0,1,.12-.1,1,1,0,0,1,0,.14c.06-.08.11-.14.21-.14h0s0,.08,0,.13h0a.23.23,0,0,1,.16.18.24.24,0,0,1-.1.27c-.09.06-.28,0-.29-.09a.12.12,0,0,1,.1-.12v0A.06.06,0,0,0,80.2,87.56Zm-.63.13c.09,0,.13.07.19.11v0a.45.45,0,0,1,.22.33c0,.1,0,.28-.12.31a.71.71,0,0,0-.42-.59h.16S79.58,87.73,79.57,87.69ZM81,83.29a.69.69,0,0,1,.29.27.06.06,0,0,1,0,0,.25.25,0,0,1-.21.28h0A.43.43,0,0,0,81,83.29Zm-.34-1.16a.22.22,0,0,0-.18,0,.13.13,0,0,0-.07.15.11.11,0,0,0,0,.08.15.15,0,0,0,.16.1s0,0,0-.07a.26.26,0,0,0,0-.09h-.08s0-.07,0-.07a.24.24,0,0,1,.17.17.15.15,0,0,1-.08.16.19.19,0,0,1-.2-.08.23.23,0,0,0-.09-.08.09.09,0,0,0-.07,0,.12.12,0,0,1,0-.16l-.06,0c-.06,0-.06,0,0-.08s0,0,.06,0l.09,0a.27.27,0,0,1-.07-.08l0,0h0a.28.28,0,0,1,.12,0l.3.2c.18.12.35.24.52.19v0h0a.2.2,0,0,1-.28.07C80.89,82.38,80.75,82.2,80.62,82.13Zm-.22-.33a.6.6,0,0,0-.11.06s-.16,0-.16-.09h0v0a.1.1,0,0,1,.09-.07.81.81,0,0,1,.29.12Zm0-.51a.09.09,0,0,1-.07,0l0,.06s-.06.07-.15,0a.6.6,0,0,0-.13-.09.1.1,0,0,1,.06-.1A.9.9,0,0,1,80,81a.27.27,0,0,1-.06-.17,0,0,0,0,1,0,0h0a.32.32,0,0,1,.15.13.86.86,0,0,1,.13.2.11.11,0,0,1,.1-.08l0,.1s.05.07.06.1S80.42,81.28,80.38,81.29ZM78.71,87.7l-.19,0H78.4a1.14,1.14,0,0,1-.47-.19,1.19,1.19,0,0,1-.46-.62c-.25-.75-.2-2.24,1.14-5.63l.33.71a8.85,8.85,0,0,1,1,3.87C79.82,86.93,79.3,87.59,78.71,87.7Zm.66,1,.08-.06-.1-.09h.16s0,0,0,0A.62.62,0,0,1,80,89,1.08,1.08,0,0,0,79.37,88.75Zm.64,0h0a.14.14,0,0,1,0-.2h0c.09-.08.2-.16.3-.26a.37.37,0,0,1,0,.09.31.31,0,0,1-.13.31l-.15.13Zm.89.06a1,1,0,0,1-.08.11.8.8,0,0,1-.13.13l0,0-.27,0,.14-.14h0a.57.57,0,0,1,.46-.19Zm.72-.87a.37.37,0,0,1-.07.14v0c0-.07,0-.1-.09-.08a.28.28,0,0,0-.15.17l-.06.18a.51.51,0,0,1-.15.21.38.38,0,0,1-.41,0c-.15.15-.3.3-.46.44l-.15,0a3.24,3.24,0,0,0,.5-.48.28.28,0,0,1-.12-.21.23.23,0,0,1,.11-.21l.22-.17a.24.24,0,0,0,.07-.16h0a.08.08,0,0,0-.1-.07l-.08,0a.29.29,0,0,1,.14-.15h0l.11,0a.19.19,0,0,1,.1,0,.14.14,0,0,1,0,.18A.76.76,0,0,1,81,88l0,.06a.54.54,0,0,0-.1.2l0,0a4,4,0,0,0,.35-.37l0,0s0,0,0,0,0,.15-.08.23a1.23,1.23,0,0,1-.14.25,1.21,1.21,0,0,0,.21-.24l.1-.17.09-.1a.15.15,0,0,1,.2,0A.2.2,0,0,1,81.62,88Zm.49-.75a.06.06,0,0,0-.06,0l0,.09a.2.2,0,0,1-.12.16.1.1,0,0,1-.1-.07.26.26,0,0,1,.07-.22s0,0,0,0,0,0,0,0a.09.09,0,0,0,0,.07s0,0,.05,0a.13.13,0,0,0,.07-.13.17.17,0,0,0,0-.07.1.1,0,0,0-.1-.07.2.2,0,0,0-.12.08c0,.1-.08.27-.13.36a.18.18,0,0,1-.24.06l-.15,0c-.08,0-.15,0-.15-.16s.05-.27,0-.38a.16.16,0,0,0-.06-.13A.12.12,0,0,0,81,87l0,.05a.15.15,0,0,0,0,.16s0,0,.06,0a.11.11,0,0,0,0-.07s0,0,0-.06,0,0,.06,0a.24.24,0,0,1,0,.22.1.1,0,0,1-.13,0,.21.21,0,0,1,0-.2.29.29,0,0,0,0-.09.07.07,0,0,0,0,0,.1.1,0,0,1,.12,0v-.06s0-.06,0,0l0,0,.06,0v0s0,0,0,0l0,0a.24.24,0,0,1,.07.12c0,.06.06.12.08.19v0a.28.28,0,0,1,.12-.2v-.07a.44.44,0,0,0,0-.1.11.11,0,0,1,.12,0,.81.81,0,0,1,0-.22.41.41,0,0,1,0-.18h0a0,0,0,0,1,0,0h0a.32.32,0,0,1,0,.16.85.85,0,0,1,0,.23.09.09,0,0,1,.1,0l-.06.13v0l0,0a.12.12,0,0,1,0,.16s0,0,0,.06a.4.4,0,0,1,.14-.15l.1-.06h0a.11.11,0,0,0,0,.05v0L82,87h0s0,0,0,.06,0,0,0,.06.09,0,.1.07ZM82,85.48s0-.08,0-.13a.7.7,0,0,1-.17.09l.09-.22h-.05a.92.92,0,0,1,.73-.51.06.06,0,0,1,.06,0A1.61,1.61,0,0,0,82,85.48Zm.5.06a.27.27,0,0,1,0-.28.73.73,0,0,1,.22-.27h0l.12-.1h0a.36.36,0,0,0,0,.36h-.2C82.64,85.37,82.57,85.45,82.49,85.54Zm.24.15a.13.13,0,0,1-.14,0,.15.15,0,0,0,.13-.12h0a.46.46,0,0,1,.13-.21.36.36,0,0,1,0,.1.31.31,0,0,1,0,.21A.15.15,0,0,1,82.73,85.69Zm.29,0a.18.18,0,0,1-.16,0,.17.17,0,0,0,.06-.16h0c0-.06,0-.13,0-.21a.26.26,0,0,1,.14.21A.19.19,0,0,1,83,85.73Zm0-.76a1.23,1.23,0,0,1,0,.2,1.64,1.64,0,0,1,0,.23s-.13-.12-.18-.19a.26.26,0,0,1,0-.3,0,0,0,0,0,0,0,8.35,8.35,0,0,0-.54-1.27.1.1,0,0,0-.07,0,.22.22,0,0,1-.11,0,2.61,2.61,0,0,1-.2-.3,3.87,3.87,0,0,0-.33-.64h0s0,0,0,0l.05,0,.28.22a2,2,0,0,1,.4.47.29.29,0,0,1,0,.22.14.14,0,0,0,0,.11,8.07,8.07,0,0,1,.55,1.24s0,0,.06.06S83,84.93,83.05,85Zm-.36-1.57.1.17.11.16A1.15,1.15,0,0,1,83,84a.34.34,0,0,1-.17.39,2.72,2.72,0,0,0-.11-.25h0A.83.83,0,0,1,82.69,83.4Zm-1-1.39h0a.22.22,0,0,1,.11,0A.3.3,0,0,1,82,82a.44.44,0,0,1,.17.16h0c-.11,0-.16,0-.16.09a.37.37,0,0,0,.17.28l.21.17a.76.76,0,0,1,.23.3.51.51,0,0,1-.09.48.63.63,0,0,0-.15-.45,2.39,2.39,0,0,0-.22-.23,2.44,2.44,0,0,1-.35-.37.44.44,0,0,1-.08-.11C81.61,82.18,81.65,82.06,81.74,82Zm-.18-.65a.18.18,0,0,1,.06.2.13.13,0,0,1-.16.07.23.23,0,0,1-.15-.19s0,0,.06,0a.19.19,0,0,0,0,.08.15.15,0,0,0,.09.06s.06,0,.07,0a.18.18,0,0,0-.09-.18s0,0-.08,0a.15.15,0,0,0-.16.06.19.19,0,0,0,0,.18,3.81,3.81,0,0,0,.29.41h0a.21.21,0,0,1-.09.28h0c.06-.17,0-.35-.16-.54a3.07,3.07,0,0,1-.17-.31.22.22,0,0,1,0-.16l0,0a.6.6,0,0,1,.08.08c0-.1,0-.13.07-.14h0l0,0s0,0,0,0l0,.07s.06-.09.15,0h0a.11.11,0,0,0,0,.08A.32.32,0,0,0,81.56,81.36Zm-.39-.94a2.05,2.05,0,0,0-.12-.2h0L81,80.08c-.28-.52-.57-1-.86-1.49a.91.91,0,0,0,.07-.14c1-2.07,2-5,1.44-6.48a2.29,2.29,0,0,0-1-1.28l-.28-.13-.1,0-.29-.08a2.2,2.2,0,0,0-.37-.06h-.58a4.15,4.15,0,0,0-.61.14c.55-.8,1.57-1.58,2.19-1.29a2.88,2.88,0,0,0,1.5.43,1,1,0,0,0,.59-.33l.12-.08a1.33,1.33,0,0,1-1.33-.18l-.87-.44a2.34,2.34,0,0,0-3.1.75.12.12,0,0,1-.08,0l-.06,0a.12.12,0,0,1,0-.15,2.53,2.53,0,0,1,3.35-.81l.53.28a3.25,3.25,0,0,0,.83-.06,1.72,1.72,0,0,1,2.16,1c-.5-.76-1.07-.66-1.36-.47l0,0h0a4.08,4.08,0,0,1,1,1.09C85.88,73.57,82.33,78.55,81.17,80.42Z"/><polygon class="cls-22" points="80.68 81.06 80.68 81.05 80.68 81.05 80.68 81.06"/><polygon class="cls-35" points="80.68 81.06 80.68 81.05 80.68 81.05 80.68 81.06"/><g id="g9107"><g id="g20"><path id="path22" class="cls-22" d="M78.25,96.64c-.16,0-.23-.21-.23-.78,0-.3.15-.37.56-.37h.28c-.13.41-.31,1.15-.61,1.15m-.84-.39a2.13,2.13,0,0,0,0,.39H75.28c-.29,0-.48-.07-.48-.33v-.75h.69a2.57,2.57,0,0,0,.11-.48h-.8c0-.23,0-.43,0-.66a1.48,1.48,0,0,0-.63.38v.28h-.35c0,.2,0,.35,0,.48h.39v.78a.71.71,0,0,0,.78.78h3c.36,0,.64-.3.91-1v1h.59v-2c-.27,0-.51,0-.78,0-.73,0-1.26.3-1.26,1.2M80.53,96v-.2a4.62,4.62,0,0,0-.06-.74H79.9c0,.26,0,.48,0,.74v1.3h.6c0-.73.23-1.55.85-1.46a3.58,3.58,0,0,0-.06-.61c-.45,0-.67.43-.79,1m-8.17.62c-.16,0-.22-.21-.22-.78,0-.3.14-.37.55-.37H73c-.13.41-.31,1.15-.61,1.15m-.84-.39c0,.62.23.91.52.91s.66-.32.93-1v1h.59v-2c-.26,0-.51,0-.78,0-.73,0-1.26.3-1.26,1.2m19.32-1c0-.5-.35-.81-1-.81a1.71,1.71,0,0,0-.76.15,1.25,1.25,0,0,0-.18.5,2.07,2.07,0,0,1,.81-.17c.28,0,.5.12.5.45s-.21.6-1.4,1.29a2.41,2.41,0,0,0,0,.41h2a2.77,2.77,0,0,0,.11-.48H89.27c.83-.29,1.57-.58,1.57-1.34M70.13,96.55h0c-.36-.19-.84-.48-.84-1a.66.66,0,0,1,.69-.71c.41,0,.67.3.67.81a1.27,1.27,0,0,1-.49.92m1.13.61-1-.52a1.28,1.28,0,0,0,1-1.16A1.14,1.14,0,0,0,70,94.34a1.24,1.24,0,0,0-1.32,1.26A1.71,1.71,0,0,0,69.75,97l1.89,1c0-.43-.06-.68-.38-.85m13.88-.22c-.17,0-.69-.34-.69-1.25a.69.69,0,1,1,1.37,0c0,.91-.51,1.25-.68,1.25m0-2.45a1.18,1.18,0,0,0-1.3,1.17,1.31,1.31,0,1,0,2.6,0,1.18,1.18,0,0,0-1.3-1.17m0,1a1.72,1.72,0,0,0-.34.32,1.77,1.77,0,0,0,.34.33,1.77,1.77,0,0,0,.34-.33,1.72,1.72,0,0,0-.34-.32m3.4-.2c0-.5-.35-.81-1-.81a1.68,1.68,0,0,0-.76.15,1.41,1.41,0,0,0-.19.5,2.12,2.12,0,0,1,.82-.17c.27,0,.5.12.5.45s-.22.6-1.41,1.29a1.82,1.82,0,0,0,0,.41h2a2.77,2.77,0,0,0,.11-.48H87c.83-.29,1.58-.58,1.58-1.34m-5,0c0-.5-.35-.81-1-.81a1.71,1.71,0,0,0-.76.15,1.25,1.25,0,0,0-.18.5,2.11,2.11,0,0,1,.81-.17c.28,0,.5.12.5.45s-.22.6-1.4,1.29a2.41,2.41,0,0,0,0,.41h2a2.77,2.77,0,0,0,.11-.48H82c.83-.29,1.57-.58,1.57-1.34"/></g><g id="g24"><path id="path26" class="cls-22" d="M88.6,93.62l-.27.06a2.18,2.18,0,0,1-.38,0,1.77,1.77,0,0,1-.45,0,1.16,1.16,0,0,1-.4-.2,1,1,0,0,1-.3-.34,1.22,1.22,0,0,1-.11-.53,1.28,1.28,0,0,1,.09-.5.9.9,0,0,1,.27-.36,1,1,0,0,1,.4-.22,2,2,0,0,1,.5-.07,1.24,1.24,0,0,1,.33,0,1.87,1.87,0,0,1,.32.08l0,.47a1.69,1.69,0,0,0-.28-.12,1.36,1.36,0,0,0-.29,0,.61.61,0,0,0-.28,0,.57.57,0,0,0-.22.15.64.64,0,0,0-.14.22.93.93,0,0,0,0,.29.72.72,0,0,0,.06.29.54.54,0,0,0,.15.22.58.58,0,0,0,.23.13.94.94,0,0,0,.3,0,1.33,1.33,0,0,0,.28,0,1.6,1.6,0,0,0,.26-.08Z"/></g><g id="g28"><path id="path30" class="cls-22" d="M90.71,92.83a.94.94,0,0,1-.07.39.66.66,0,0,1-.19.27.71.71,0,0,1-.31.16,1.23,1.23,0,0,1-.39,0,1.19,1.19,0,0,1-.39,0,.71.71,0,0,1-.31-.16.79.79,0,0,1-.2-.27,1.13,1.13,0,0,1-.07-.39V91.47h.59v1.27a1.23,1.23,0,0,0,0,.2.43.43,0,0,0,.06.17.32.32,0,0,0,.11.12.36.36,0,0,0,.19,0,.32.32,0,0,0,.18,0,.34.34,0,0,0,.12-.12.43.43,0,0,0,.06-.17,1.23,1.23,0,0,0,0-.2V91.47h.58Z"/></g><g id="g32"><path id="path34" class="cls-22" d="M91.59,92.48h.29a.33.33,0,0,0,.12,0,.23.23,0,0,0,.07-.1.26.26,0,0,0,0-.14.29.29,0,0,0,0-.14A.16.16,0,0,0,92,92a.33.33,0,0,0-.12,0h-.29Zm-.59-1h.7a1.34,1.34,0,0,1,.75.17.73.73,0,0,1,0,1.07,1,1,0,0,1-.64.19h-.23v.77H91Z"/></g><g id="g36"><path id="path38" class="cls-22" d="M74.48,91.47h.59l.29,1.69h0l.3-1.69h.74l.31,1.69h0L77,91.47h.57l-.49,2.2h-.75L76,92h0l-.29,1.69H75Z"/></g><g id="g40"><path id="path42" class="cls-22" d="M78.2,92.57a1.09,1.09,0,0,0,0,.26.79.79,0,0,0,.09.23.54.54,0,0,0,.15.15.41.41,0,0,0,.23.06.44.44,0,0,0,.23-.06.54.54,0,0,0,.15-.15.79.79,0,0,0,.09-.23,1.09,1.09,0,0,0,0-.26,1.12,1.12,0,0,0,0-.27.63.63,0,0,0-.09-.22.46.46,0,0,0-.15-.16.56.56,0,0,0-.23,0,.52.52,0,0,0-.23,0,.46.46,0,0,0-.15.16.63.63,0,0,0-.09.22,1.12,1.12,0,0,0,0,.27m-.6,0a1.43,1.43,0,0,1,.07-.48.73.73,0,0,1,.21-.35.82.82,0,0,1,.34-.23,1.48,1.48,0,0,1,1,0,.89.89,0,0,1,.34.23.93.93,0,0,1,.21.35,1.43,1.43,0,0,1,.07.48,1.41,1.41,0,0,1-.07.47,1.07,1.07,0,0,1-.21.36,1,1,0,0,1-.35.23,1.36,1.36,0,0,1-.47.08,1.42,1.42,0,0,1-.48-.08,1,1,0,0,1-.34-.23.82.82,0,0,1-.21-.36,1.41,1.41,0,0,1-.07-.47"/></g><g id="g44"><path id="path46" class="cls-22" d="M80.61,92.38h.3l.14,0a.25.25,0,0,0,.1-.08.26.26,0,0,0,0-.14.2.2,0,0,0,0-.13.22.22,0,0,0-.09-.07l-.14,0h-.31ZM80,91.47h1a1.24,1.24,0,0,1,.27,0,.61.61,0,0,1,.23.11.5.5,0,0,1,.15.17.47.47,0,0,1,0,.24.62.62,0,0,1-.1.37.6.6,0,0,1-.32.19h0l.11.06a.44.44,0,0,1,.08.11,1,1,0,0,1,.06.14s0,.11.06.18l.22.6h-.61l-.13-.4L81.06,93a1,1,0,0,0-.09-.15.23.23,0,0,0-.1-.07l-.14,0h-.12v.87H80Z"/></g><g id="g48"><path id="path50" class="cls-22" d="M82.13,91.47h.59v1.76h.9v.44H82.13Z"/></g><g id="g52"><path id="path54" class="cls-22" d="M84.41,93.23h.23a.73.73,0,0,0,.51-.16.7.7,0,0,0,.17-.5.65.65,0,0,0-.18-.5.7.7,0,0,0-.5-.17h-.23Zm-.58-1.76h.8a2.78,2.78,0,0,1,.52,0,1,1,0,0,1,.41.17.82.82,0,0,1,.27.34,1.35,1.35,0,0,1,.1.53,1.34,1.34,0,0,1-.1.52,1,1,0,0,1-.27.34,1.11,1.11,0,0,1-.41.19,2.18,2.18,0,0,1-.52.06h-.8Z"/></g><g id="g56"><path id="path58" class="cls-36" d="M67.39,91.47v2.2h.68v-.8h.5l.17-.48h-.67V92h.83l.18-.48Z"/></g><path id="path60" class="cls-36" d="M69.29,93.67H70v-2.2h-.68Z"/><g id="g62"><path id="path64" class="cls-36" d="M70.44,91.47v2.2h.68v-.8h.5l.17-.48h-.67V92H72l.18-.48Z"/></g><g id="g66"><path id="path68" class="cls-36" d="M73.19,93,72.92,92l-.26.92Zm.9.72H73.4l-.09-.3h-.78l-.08.3h-.68l.8-2.2h.72Z"/></g></g><g id="layer1"><g id="g3035"><path id="path2405" class="cls-22" d="M84.17,133.09l-4.85-8.43,3.48-2,6,10.44H84.17"/><path id="path2407" class="cls-22" d="M71.24,131.91l3.49-2,1.84,3.2H71.92l-.68-1.18"/><path id="path2415" class="cls-22" d="M75.33,128.33l3.48-2,3.91,6.77H78.08l-2.75-4.75"/></g></g><rect class="cls-1" x="154.53" y="3.34" width="0.37" height="0.36" transform="translate(45.24 112.9) rotate(-46.28)"/><polygon class="cls-1" points="152.2 3.15 152.01 2.83 151.7 3.01 151.88 3.33 152.2 3.15"/><path class="cls-1" d="M153.31,2.63a.8.8,0,0,0-.79.79h0a.79.79,0,0,0,.79.79h0a.79.79,0,0,0,0-1.58Zm0,.23a.59.59,0,0,1,.23.05.2.2,0,0,1-.19.13h0a.19.19,0,0,1-.2-.16Zm-.56.59v0a.5.5,0,0,1,.12-.34.22.22,0,0,1,.09.16.19.19,0,0,1,0,.07h0A.2.2,0,0,1,152.75,3.45Zm.37.5h0a.64.64,0,0,1-.29-.25.23.23,0,0,1,.11,0,.2.2,0,0,1,.2.2A.19.19,0,0,1,153.12,4Zm.14-.31-.15-.15a0,0,0,0,1,0-.06l.1-.2a.06.06,0,0,1,.06,0l.21,0a0,0,0,0,1,0,0l0,.21h0a.05.05,0,0,1,0,0h0l-.19.1A.06.06,0,0,1,153.26,3.64Zm.19.33h0a.09.09,0,0,1,0-.05.2.2,0,0,1,.21-.2.19.19,0,0,1,.12,0A.58.58,0,0,1,153.45,4Zm.43-.5h0a.19.19,0,0,1-.17-.2.21.21,0,0,1,.08-.17.63.63,0,0,1,.1.32Z"/><path class="cls-22" d="M153.7,3.27a.19.19,0,0,0,.17.2h0V3.42a.63.63,0,0,0-.1-.32A.21.21,0,0,0,153.7,3.27Z"/><path class="cls-22" d="M153.52,3.54a.05.05,0,0,0,0,0h0l0-.21a0,0,0,0,0,0,0l-.21,0a.06.06,0,0,0-.06,0l-.1.2a0,0,0,0,0,0,.06l.15.15a.06.06,0,0,0,.07,0l.19-.1Z"/><path class="cls-22" d="M153.44,3.92a.09.09,0,0,0,0,.05h0a.58.58,0,0,0,.32-.21.19.19,0,0,0-.12,0A.2.2,0,0,0,153.44,3.92Z"/><path class="cls-22" d="M152.93,3.67a.23.23,0,0,0-.11,0,.64.64,0,0,0,.29.25h0a.19.19,0,0,0,0-.08A.2.2,0,0,0,152.93,3.67Z"/><path class="cls-22" d="M152.94,3.32h0a.19.19,0,0,0,0-.07.22.22,0,0,0-.09-.16.5.5,0,0,0-.12.34v0A.2.2,0,0,0,152.94,3.32Z"/><path class="cls-22" d="M153.36,3h0a.2.2,0,0,0,.19-.13.59.59,0,0,0-.23-.05l-.15,0A.19.19,0,0,0,153.36,3Z"/><path class="cls-1" d="M9.35.26h0c0,.07-.09.11-.11.2l.12,0h0a.43.43,0,0,0,0,.16A.71.71,0,0,1,10,.17C10,.1,9.77,0,9.68.05A.47.47,0,0,0,9.35.26Z"/><path class="cls-1" d="M3.58,1.1l-.71.33C6.25,2.77,7.75,2.82,8.5,2.57a1.16,1.16,0,0,0,.61-.46,1,1,0,0,0,.19-.47h0V1.52a1.21,1.21,0,0,0,0-.19C9.19.74,8.53.22,7.45.14A8.82,8.82,0,0,0,3.58,1.1Z"/><path class="cls-1" d="M10.18.54h0a.86.86,0,0,1,0,.16l.09-.1.06.08a.66.66,0,0,1,0-.15v0s0,0,0,0A1.16,1.16,0,0,1,10.58,0,.59.59,0,0,0,10.18.54Z"/><polygon class="cls-37" points="9.4 0.43 9.4 0.43 9.4 0.43 9.4 0.43"/><polygon class="cls-38" points="9.4 0.43 9.4 0.43 9.4 0.43 9.4 0.43"/><path class="cls-22" d="M10.38.52a.07.07,0,0,1,0-.05s0,0,0,0Z"/><path class="cls-1" d="M149.36,220.18a1.12,1.12,0,0,1,0-.31c.17-.46.53-1.41.66-2a.43.43,0,0,1,0,0c.08-.49-.19-.52,1.24-1.3l0,0,.54-.29a6,6,0,0,1,5.11,0l.15.05a30.16,30.16,0,0,1,2.92,1.47v-2.08H149.36Z"/><path class="cls-39" d="M150.9,217.94l0,0v0Z"/><path class="cls-1" d="M7.9,219.13a.37.37,0,0,0,.18.05H8.3a.11.11,0,0,0,0,.12l.1,0h.07a.27.27,0,0,0,.2.12h0l-.18.08a.33.33,0,0,0-.13.07s0,0,0,0l.05,0h0l0,.06a.08.08,0,0,0,0,0s0,.05,0,.05h.06a.1.1,0,0,0,0,.12l.05,0,.09,0a.23.23,0,0,0,.21,0,.11.11,0,0,0,0-.13.25.25,0,0,0-.22,0s0,0,0,.06,0,0,0,0a.2.2,0,0,1,.08,0,0,0,0,0,1,0,.06.14.14,0,0,1-.15,0,.1.1,0,0,1,0,0,.12.12,0,0,1,0-.13.16.16,0,0,1,.13-.06c.1,0,.27,0,.38,0s.14-.07.15-.15,0-.13,0-.15,0-.18-.06-.24-.27-.08-.36-.14a.17.17,0,0,1-.09-.11.12.12,0,0,1,.08-.1h.06a.13.13,0,0,1,.14.07s0,.05,0,.05H8.88s0,0,0,0,0,0,0,0a.25.25,0,0,0,.21.07.09.09,0,0,0,.07-.1.21.21,0,0,0-.16-.13l-.08,0a.09.09,0,0,1,0-.06h0c-.07,0-.06.06-.08.1l-.05,0s-.06,0-.07,0v.05a.19.19,0,0,0,0,.07H8.56v0a.27.27,0,0,0,.06.1.4.4,0,0,0,.15.14l-.06,0a.15.15,0,0,0-.16,0l-.05,0h0L8.33,219a.09.09,0,0,0-.05.1.78.78,0,0,0-.22,0,.23.23,0,0,0-.16,0h0v0Z"/><path class="cls-1" d="M3.56,220.21a.19.19,0,0,0,0,.12v0a.08.08,0,0,0,0,0l.08-.07s0,.06,0,.09l0,.06s0,0,.08,0l.05-.06a.11.11,0,0,0,.15,0,.11.11,0,0,1,0-.08l.08-.08a.18.18,0,0,0,.08-.2A.12.12,0,0,0,4,220a.24.24,0,0,0-.17.17s0,.05.06.05,0-.06,0-.08a.19.19,0,0,1,.09,0s.06,0,.07,0a.18.18,0,0,1-.1.16.13.13,0,0,1-.08,0,.17.17,0,0,1-.16-.07.19.19,0,0,1,0-.18c.07-.13.24-.27.32-.39A.2.2,0,0,0,4,219.4H4c0,.17-.07.34-.19.52Z"/><path class="cls-1" d="M10.18,220.67a.15.15,0,0,0,.2,0h0a.1.1,0,0,0,.06,0l-.13-.15a.31.31,0,0,0-.31-.13H9.92c.09.11.17.22.26.31Z"/><path class="cls-1" d="M3,220a.86.86,0,0,1,.26-.31l.06,0-.19.23a.33.33,0,0,0-.11.22s0,0,0,0a.48.48,0,0,0,.22-.12l.23-.18,0,.05a1.35,1.35,0,0,1-.28.25c-.05,0-.23.18-.14.24s.1,0,.15-.08l.13-.18c.07,0,.12,0,.19-.12l.1-.16,0,0a.24.24,0,0,0,.14-.12.29.29,0,0,0,0-.16.12.12,0,0,0-.05-.09.26.26,0,0,0-.27,0,.39.39,0,0,0-.1.08.15.15,0,0,1-.06,0,1.18,1.18,0,0,0-.19.11c-.08.06-.11.12-.1.18L2.9,220a.29.29,0,0,0-.08.14s0,0,0,0h0a0,0,0,0,0,.07,0A.28.28,0,0,0,3,220Z"/><path class="cls-1" d="M10.56,219.87l-.11-.08-.1-.09a.57.57,0,0,0,.19.46h0l.13.15s0-.05,0-.07a1.49,1.49,0,0,0,0-.21s0,0,0,0A1.59,1.59,0,0,0,10.56,219.87Z"/><path class="cls-1" d="M2.72,220.55a.11.11,0,0,0,.11.07,1.1,1.1,0,0,1,.09-.14c.07-.08,0-.13,0-.14a.11.11,0,0,0-.06,0,.06.06,0,0,0,0-.06s0-.06-.09,0l-.1.06-.11,0a.12.12,0,0,0,.09.1,1.32,1.32,0,0,0-.2.12.34.34,0,0,0-.13.16h0s0,0,0,0a.35.35,0,0,0,.17-.06A.73.73,0,0,0,2.72,220.55Z"/><path class="cls-1" d="M10.17,219.59a.48.48,0,0,0-.22-.15l-.17-.06a.26.26,0,0,1-.17-.15s0-.09.08-.09h0a.27.27,0,0,0-.14-.07.19.19,0,0,0-.18,0,.15.15,0,0,0,0,.2l.1.09a.7.7,0,0,0,.17.09,1.7,1.7,0,0,1,.24.22,1.3,1.3,0,0,0-.26-.14l-.23-.08h0l0,0a3.89,3.89,0,0,1,.36.34s0,0,0,0a.51.51,0,0,1-.21-.1l0,0a.67.67,0,0,0-.2-.12.13.13,0,0,0-.17,0,.13.13,0,0,0,0,.1.16.16,0,0,0,0,.1h0a.24.24,0,0,0,.14.14.19.19,0,0,1,0-.08.09.09,0,0,1,.06-.1h0a.2.2,0,0,1,.15.07,1.84,1.84,0,0,1,.17.22.24.24,0,0,0,.22.11.33.33,0,0,0,.21-.12,3.24,3.24,0,0,1,.48.5.83.83,0,0,1,0-.15,4.89,4.89,0,0,0-.45-.46A.4.4,0,0,0,10.17,219.59Z"/><path class="cls-1" d="M.18,220.59l1.49-.87.15-.08h0l.21-.12c-.49-.31-1.19-.77-2-1.26v2.24l.05,0Z"/><path class="cls-1" d="M10.41,219.26c0-.12,0-.22,0-.32a.67.67,0,0,0,0-.2.41.41,0,0,0-.22-.26v.08a.67.67,0,0,0-.37-.23l.08.13-.17-.07a.14.14,0,0,0-.15,0l.15.09h0v0a.36.36,0,0,0,0,.37c.08.08.29.16.37,0s0-.06,0-.11a.17.17,0,0,0-.11-.09h0v0c.05,0,.06.06.05.09a.17.17,0,0,1-.14,0c-.11-.06-.15-.19-.11-.24s.09-.06.18,0a.37.37,0,0,1,.24.2,1.05,1.05,0,0,1,.06.24.68.68,0,0,1,0,.15.5.5,0,0,0,0,.21,1.23,1.23,0,0,0,.42.56v-.08l-.13-.13A.77.77,0,0,1,10.41,219.26Z"/><path class="cls-1" d="M3.28,220.47a.06.06,0,0,0,.06.08h0c.08,0,.1-.12.08-.16s0-.06-.06-.1v-.11A.73.73,0,0,0,3.28,220.47Z"/><path class="cls-1" d="M6.31,218.14a1,1,0,0,0,.51.73v-.05l.22.09L7,218.74l.13-.05a1.57,1.57,0,0,1-.77-.61Z"/><path class="cls-1" d="M7.43,217.52l0,0h0a.06.06,0,0,0,0,0s0-.05-.07,0a.3.3,0,0,0-.19.14A.42.42,0,0,0,7.43,217.52Z"/><path class="cls-1" d="M7.1,217.21c0,.09,0,.12-.07.16a1.13,1.13,0,0,0-.1.13.26.26,0,0,0,.28-.08C7.25,217.35,7.21,217.26,7.1,217.21Z"/><path class="cls-1" d="M5.28,218.59a.6.6,0,0,1-.29.23,3.68,3.68,0,0,0-.45.21,1,1,0,0,0-.25.21.23.23,0,0,0-.07.15.21.21,0,0,0,0,.12h0a.28.28,0,0,0,.27.1.43.43,0,0,0,.27-.13H4.69a.13.13,0,0,1-.11-.13h0a.26.26,0,0,1,.15-.17,2.84,2.84,0,0,1,.38-.13.35.35,0,0,0,.26-.25.48.48,0,0,0,0-.29Z"/><path class="cls-1" d="M5.06,218.35a.28.28,0,0,0-.22,0,1.81,1.81,0,0,0-.47.4c-.08.09-.15.19-.22.28l0,.05,0,0h0a5.62,5.62,0,0,1,.64-.34,1.17,1.17,0,0,0,.3-.19.16.16,0,0,0,.05-.11s0-.06,0-.07a8.24,8.24,0,0,1,1.26-.54,0,0,0,0,1,0,0,.27.27,0,0,0,.3,0c.06,0,.19-.15.19-.19H6.77a.75.75,0,0,0-.21,0s-.06.06-.09.09,0,.05-.07.06a8.41,8.41,0,0,0-1.23.55A.14.14,0,0,1,5.06,218.35Z"/><path class="cls-1" d="M5.3,220a.17.17,0,0,0,.19-.09c0-.11-.11-.23-.26-.21a.35.35,0,0,0-.3.21.26.26,0,0,0,.06.33l0,0-.14.14a.35.35,0,0,0,.38-.05l0,.19a.29.29,0,0,0,.22-.06l.16-.17.05.13a.33.33,0,0,0,.21-.37c0-.14-.05-.29-.09-.43a.79.79,0,0,1,0-.48.54.54,0,0,1,.36-.28.55.55,0,0,1,.4,0,.14.14,0,0,0,0,0l-.2-.08a.6.6,0,0,0-.73.43s0,.08,0,.12,0,.28,0,.42a.49.49,0,0,1-.07.33.29.29,0,0,1-.41.08.19.19,0,0,1-.08-.25.25.25,0,0,1,.18-.12.11.11,0,0,1,.11.06.08.08,0,0,1,0,.1Z"/><path class="cls-1" d="M2.72,219.48a.22.22,0,0,0,.15.07.3.3,0,0,0-.08.08l0,0a.23.23,0,0,0,.16,0l.31-.17c.19-.12.37-.23.53-.16v0h0a.21.21,0,0,0-.28-.09h0c-.13.06-.28.23-.41.29a.17.17,0,0,1-.18,0,.13.13,0,0,1-.07-.15.2.2,0,0,1,0-.08.17.17,0,0,1,.17-.09s0,0,0,.07l-.06.09H3c0,.05,0,.06,0,.06a.2.2,0,0,0,.18-.16.11.11,0,0,0-.06-.15.19.19,0,0,0-.21.06.24.24,0,0,1-.09.08.09.09,0,0,1-.07,0h0c0,.08,0,.1,0,.15l-.06,0s0,0,0,.05l0,0Z"/><path class="cls-1" d="M5.2,219.43h0a.73.73,0,0,0-.27.28.45.45,0,0,1,.6-.07h0A.25.25,0,0,0,5.2,219.43Z"/><path class="cls-1" d="M3.61,219c0,.09.17.13.33.05l.12-.08c.13-.11.25-.23.37-.35a2.39,2.39,0,0,1,.23-.22.6.6,0,0,1,.45-.15.52.52,0,0,0-.48-.09.68.68,0,0,0-.3.23l-.17.21a.46.46,0,0,1-.29.17c-.08,0-.12-.05-.09-.16v0a.57.57,0,0,0-.15.16.49.49,0,0,0-.06.17.23.23,0,0,0,0,.11Z"/><path class="cls-1" d="M5.72,218h0l.25-.11a.36.36,0,0,0-.4-.17l-.24.12a.91.91,0,0,0-.16.11A1,1,0,0,0,5,218,.87.87,0,0,0,5.72,218Z"/><path class="cls-1" d="M7.11,218h0a.15.15,0,0,1,.13.13.16.16,0,0,0,0-.14.14.14,0,0,0-.09-.11.28.28,0,0,0-.2,0l-.1,0A.42.42,0,0,0,7.11,218Z"/><path class="cls-1" d="M5.88,219.29a.59.59,0,0,0,0,.13.83.83,0,0,0,.15.43H6l0-.06c.08.07.1.18.22.24v-.18l.21.08a1.08,1.08,0,0,1-.3-1A.63.63,0,0,0,5.88,219.29Z"/><path class="cls-1" d="M6,218.44a.23.23,0,0,0,.11-.28h0a.46.46,0,0,0-.05-.1l-.27.11a.44.44,0,0,0-.33.35s0,.08,0,.13l.55-.21Z"/><path class="cls-1" d="M7.2,217.77a.18.18,0,0,1,.16,0,.17.17,0,0,0,0-.15.13.13,0,0,0-.12,0,.26.26,0,0,0-.21.14H7.2Z"/><path class="cls-1" d="M6.85,217.88a.36.36,0,0,1-.36,0h0l.11.13h0a.65.65,0,0,0,.28.21.23.23,0,0,0,.27,0c-.08-.09-.16-.15-.26-.13A1.37,1.37,0,0,0,6.85,217.88Z"/><path class="cls-1" d="M3,219.84a.15.15,0,0,1-.17,0,.11.11,0,0,0-.12,0,.27.27,0,0,0-.07.08v0s0,0,.06,0A.75.75,0,0,0,3,219.84Z"/><path class="cls-40" d="M10.71,219.67v0h0Z"/><path class="cls-41" d="M10.71,219.91v-.08h0v.08Z"/><path class="cls-42" d="M10.6,219h0l0,.1Z"/><polygon class="cls-43" points="8.83 220.58 8.83 220.58 8.83 220.58 8.83 220.58"/><polygon class="cls-44" points="8.83 220.58 8.83 220.58 8.83 220.58 8.83 220.58"/><path class="cls-22" d="M10.7,220h0a1.49,1.49,0,0,1,0,.21A1.23,1.23,0,0,0,10.7,220Z"/><path class="cls-22" d="M10.6,220.61c0-.05,0-.1,0-.15h0a.83.83,0,0,0,0,.15Z"/><path class="cls-22" d="M10.67,220.3a.15.15,0,0,0,0-.07s0,.05,0,.07Z"/><polygon class="cls-22" points="9.18 219.87 9.18 219.87 9.18 219.87 9.18 219.87"/><polygon class="cls-22" points="9.18 219.87 9.18 219.87 9.18 219.87 9.18 219.87"/><polygon class="cls-22" points="9.18 219.87 9.18 219.87 9.18 219.87 9.18 219.87"/><polygon class="cls-22" points="2.65 220.01 2.65 220.01 2.65 220.01 2.65 220.01"/><polygon class="cls-45" points="2.65 220.01 2.65 220.01 2.65 220.01 2.65 220.01"/><path class="cls-1" d="M6.18,218.91a.63.63,0,0,0-.3.38.59.59,0,0,0,0,.13.83.83,0,0,0,.15.43H6l0-.06c.08.07.1.18.22.24v-.18l.21.08A1.08,1.08,0,0,1,6.18,218.91Z"/><path class="cls-1" d="M5.2,219.43h0a.73.73,0,0,0-.27.28.45.45,0,0,1,.6-.07h0A.25.25,0,0,0,5.2,219.43Z"/><path class="cls-1" d="M4,220a.24.24,0,0,0-.17.17s0,.05.06.05,0-.06,0-.08a.19.19,0,0,1,.09,0s.06,0,.07,0a.18.18,0,0,1-.1.16.13.13,0,0,1-.08,0,.17.17,0,0,1-.16-.07.19.19,0,0,1,0-.18c.07-.13.24-.27.32-.39A.2.2,0,0,0,4,219.4H4c0,.17-.07.34-.19.52l-.2.3a.19.19,0,0,0,0,.12v0a.08.08,0,0,0,0,0l.08-.07s0,.06,0,.09l0,.06s0,0,.08,0l.05-.06a.11.11,0,0,0,.15,0,.11.11,0,0,1,0-.08l.08-.08a.18.18,0,0,0,.08-.2A.12.12,0,0,0,4,220Z"/><path class="cls-1" d="M3.61,219c0,.09.17.13.33.05l.12-.08c.13-.11.25-.23.37-.35a2.39,2.39,0,0,1,.23-.22.6.6,0,0,1,.45-.15.52.52,0,0,0-.48-.09.68.68,0,0,0-.3.23l-.17.21a.46.46,0,0,1-.29.17c-.08,0-.12-.05-.09-.16v0a.57.57,0,0,0-.15.16.49.49,0,0,0-.06.17.23.23,0,0,0,0,.11Z"/><path class="cls-1" d="M6.1,218.06l-.27.11a.44.44,0,0,0-.33.35s0,.08,0,.13l.55-.21H6a.23.23,0,0,0,.11-.28h0A.46.46,0,0,0,6.1,218.06Z"/><path class="cls-1" d="M4.8,218.77a1.17,1.17,0,0,0,.3-.19.16.16,0,0,0,.05-.11s0-.06,0-.07a8.24,8.24,0,0,1,1.26-.54,0,0,0,0,1,0,0,.27.27,0,0,0,.3,0c.06,0,.19-.15.19-.19H6.77a.75.75,0,0,0-.21,0s-.06.06-.09.09,0,.05-.07.06a8.41,8.41,0,0,0-1.23.55.14.14,0,0,1-.11,0,.28.28,0,0,0-.22,0,1.81,1.81,0,0,0-.47.4c-.08.09-.15.19-.22.28l0,.05,0,0h0A5.62,5.62,0,0,1,4.8,218.77Z"/><path class="cls-1" d="M3.65,219.82l0,0a.24.24,0,0,0,.14-.12.29.29,0,0,0,0-.16.12.12,0,0,0-.05-.09.26.26,0,0,0-.27,0,.39.39,0,0,0-.1.08.15.15,0,0,1-.06,0,1.18,1.18,0,0,0-.19.11c-.08.06-.11.12-.1.18L2.9,220a.29.29,0,0,0-.08.14s0,0,0,0h0a0,0,0,0,0,.07,0A.28.28,0,0,0,3,220a.86.86,0,0,1,.26-.31l.06,0-.19.23a.33.33,0,0,0-.11.22s0,0,0,0a.48.48,0,0,0,.22-.12l.23-.18,0,.05a1.35,1.35,0,0,1-.28.25c-.05,0-.23.18-.14.24s.1,0,.15-.08l.13-.18c.07,0,.12,0,.19-.12Z"/><path class="cls-1" d="M2.72,219.48a.22.22,0,0,0,.15.07.3.3,0,0,0-.08.08l0,0a.23.23,0,0,0,.16,0l.31-.17c.19-.12.37-.23.53-.16v0h0a.21.21,0,0,0-.28-.09h0c-.13.06-.28.23-.41.29a.17.17,0,0,1-.18,0,.13.13,0,0,1-.07-.15.2.2,0,0,1,0-.08.17.17,0,0,1,.17-.09s0,0,0,.07l-.06.09H3c0,.05,0,.06,0,.06a.2.2,0,0,0,.18-.16.11.11,0,0,0-.06-.15.19.19,0,0,0-.21.06.24.24,0,0,1-.09.08.09.09,0,0,1-.07,0h0c0,.08,0,.1,0,.15l-.06,0s0,0,0,.05l0,0Z"/><polygon class="cls-1" points="2.65 220.01 2.65 220.01 2.65 220.01 2.65 220.01"/><path class="cls-1" d="M2.78,219.83a.11.11,0,0,0-.12,0,.27.27,0,0,0-.07.08v0s0,0,.06,0a.75.75,0,0,0,.3-.17A.15.15,0,0,1,2.78,219.83Z"/><path class="cls-1" d="M3.39,220.18a.73.73,0,0,0-.11.29.06.06,0,0,0,.06.08h0c.08,0,.1-.12.08-.16s0-.06-.06-.1Z"/><path class="cls-1" d="M4.58,219.34h0a.26.26,0,0,1,.15-.17,2.84,2.84,0,0,1,.38-.13.35.35,0,0,0,.26-.25.48.48,0,0,0,0-.29l-.07.1a.6.6,0,0,1-.29.23,3.68,3.68,0,0,0-.45.21,1,1,0,0,0-.25.21.23.23,0,0,0-.07.15.21.21,0,0,0,0,.12h0a.28.28,0,0,0,.27.1.43.43,0,0,0,.27-.13H4.69A.13.13,0,0,1,4.58,219.34Z"/><path class="cls-1" d="M7,217.81l-.1,0a.42.42,0,0,0,.21.13h0a.15.15,0,0,1,.13.13.16.16,0,0,0,0-.14.14.14,0,0,0-.09-.11A.28.28,0,0,0,7,217.81Z"/><path class="cls-1" d="M9.2,219.44s0-.13,0-.15,0-.18-.06-.24-.27-.08-.36-.14a.17.17,0,0,1-.09-.11.12.12,0,0,1,.08-.1h.06a.13.13,0,0,1,.14.07s0,.05,0,.05H8.88s0,0,0,0,0,0,0,0a.25.25,0,0,0,.21.07.09.09,0,0,0,.07-.1.21.21,0,0,0-.16-.13l-.08,0a.09.09,0,0,1,0-.06h0c-.07,0-.06.06-.08.1l-.05,0s-.06,0-.07,0v.05a.19.19,0,0,0,0,.07H8.56v0a.27.27,0,0,0,.06.1.4.4,0,0,0,.15.14l-.06,0a.15.15,0,0,0-.16,0l-.05,0h0L8.33,219a.09.09,0,0,0-.05.1.78.78,0,0,0-.22,0,.23.23,0,0,0-.16,0h0v0h0a.37.37,0,0,0,.18.05H8.3a.11.11,0,0,0,0,.12l.1,0h.07a.27.27,0,0,0,.2.12h0l-.18.08a.33.33,0,0,0-.13.07s0,0,0,0l.05,0h0l0,.06a.08.08,0,0,0,0,0s0,.05,0,.05h.06a.1.1,0,0,0,0,.12l.05,0,.09,0a.23.23,0,0,0,.21,0,.11.11,0,0,0,0-.13.25.25,0,0,0-.22,0s0,0,0,.06,0,0,0,0a.2.2,0,0,1,.08,0,0,0,0,0,1,0,.06.14.14,0,0,1-.15,0,.1.1,0,0,1,0,0,.12.12,0,0,1,0-.13.16.16,0,0,1,.13-.06c.1,0,.27,0,.38,0S9.19,219.52,9.2,219.44Z"/><path class="cls-1" d="M152,217a4.28,4.28,0,0,0-1.1,1h0v0c-.19-.29-.3-.86.47-1.36a1.73,1.73,0,0,0-1,2.16,2.81,2.81,0,0,1,.06.82l-.27.53a3.16,3.16,0,0,0-.23.59h.22a3.15,3.15,0,0,1,.19-.49c.07-.13.34-.67.45-.87a1.31,1.31,0,0,0,.17-1.33.52.52,0,0,0,.08.11,1.16,1.16,0,0,1,.34.6,3.1,3.1,0,0,1-.43,1.5.71.71,0,0,0,0,.48h1.28l0-.14a.3.3,0,0,0,0-.1l.13-.28a2.28,2.28,0,0,1,1.29-1c1.47-.52,4.36.43,6.43,1.42v-2.24C157.74,216.89,154.4,215.37,152,217Z"/><path class="cls-1" d="M153.71,219.27a2.09,2.09,0,0,0-1.35,1.38h7.21C157.6,219.73,155.06,218.79,153.71,219.27Z"/><path class="cls-1" d="M7.2,217.62a.26.26,0,0,0-.21.14H7.2a.18.18,0,0,1,.16,0,.17.17,0,0,0,0-.15A.13.13,0,0,0,7.2,217.62Z"/><path class="cls-1" d="M7.37,217.4a.3.3,0,0,0-.19.14.42.42,0,0,0,.25,0l0,0h0a.06.06,0,0,0,0,0S7.4,217.39,7.37,217.4Z"/><path class="cls-1" d="M153.31,2.63a.8.8,0,0,0-.79.79h0a.79.79,0,0,0,.79.79h0a.79.79,0,0,0,0-1.58Z"/><path class="cls-1" d="M5.63,219.2s0,.08,0,.12,0,.28,0,.42a.49.49,0,0,1-.07.33.29.29,0,0,1-.41.08.19.19,0,0,1-.08-.25.25.25,0,0,1,.18-.12.11.11,0,0,1,.11.06.08.08,0,0,1,0,.1v0a.17.17,0,0,0,.19-.09c0-.11-.11-.23-.26-.21a.35.35,0,0,0-.3.21.26.26,0,0,0,.06.33l0,0-.14.14a.35.35,0,0,0,.38-.05l0,.19a.29.29,0,0,0,.22-.06l.16-.17.05.13a.33.33,0,0,0,.21-.37c0-.14-.05-.29-.09-.43a.79.79,0,0,1,0-.48.54.54,0,0,1,.36-.28.55.55,0,0,1,.4,0,.14.14,0,0,0,0,0l-.2-.08A.6.6,0,0,0,5.63,219.2Z"/><path class="cls-1" d="M155.19,5c-2.55.32-4.39-1.18-4.62-1.82a.41.41,0,0,0-.18-.23c-.2-.16-.45-.25-.59-.62a1.72,1.72,0,0,1-.11-.5c-.05-.52-.22-1.21-.29-1.78H10.59s0,0,0,.06a3,3,0,0,1-.18.41A1.16,1.16,0,0,1,10.58,0a.59.59,0,0,0-.4.51h0a.86.86,0,0,1,0,.16l.09-.1.06.08a.66.66,0,0,1,0-.15,1.6,1.6,0,0,1,0,1,1.93,1.93,0,0,1-.49.84l-.11.11a3,3,0,0,1-2.18.61A4.78,4.78,0,0,1,6.8,3,18.38,18.38,0,0,1,2.5,1.61C2.07,1.84,1.12,2.41,0,3V217.74L2.36,219l.24.13h0l.59-.33c1.25-.67,2-1.07,2.66-1.33a.63.63,0,0,0,.26.2h0a1.07,1.07,0,0,1-.09-.27l.24-.08v.05a1,1,0,0,0,.07.29h0c0-.13.15-.18.28-.21s-.08-.11-.14-.15l.08-.09.26-.07a.15.15,0,0,1,0,.11.28.28,0,0,0-.06.18v0a.88.88,0,0,0,.21-.12.11.11,0,0,0,0-.15.13.13,0,0,0-.06-.07,3.8,3.8,0,0,1,2.3.12,1.54,1.54,0,0,1,1.14,1.09,2.2,2.2,0,0,1,.23.59.27.27,0,0,0-.07.2v0h0a1.43,1.43,0,0,0,.18.5v.13l-.13-.13a.77.77,0,0,1-.17-.44c0-.12,0-.22,0-.32a.67.67,0,0,0,0-.2.41.41,0,0,0-.22-.26v.08a.67.67,0,0,0-.37-.23l.08.13-.17-.07a.14.14,0,0,0-.15,0l.15.09h0v0a.36.36,0,0,0,0,.37c.08.08.29.16.37,0s0-.06,0-.11a.17.17,0,0,0-.11-.09h0v0c.05,0,.06.06.05.09a.17.17,0,0,1-.14,0c-.11-.06-.15-.19-.11-.24s.09-.06.18,0a.37.37,0,0,1,.24.2,1.05,1.05,0,0,1,.06.24.68.68,0,0,1,0,.15.5.5,0,0,0,0,.21,1.23,1.23,0,0,0,.42.56s0,.08,0,.11,0,0,0,0a1.59,1.59,0,0,0-.13-.13l-.11-.08-.1-.09a.57.57,0,0,0,.19.46h0l.13.15,0,.16a4.89,4.89,0,0,0-.45-.46.4.4,0,0,0,0-.41.48.48,0,0,0-.22-.15l-.17-.06a.26.26,0,0,1-.17-.15s0-.09.08-.09h0a.27.27,0,0,0-.14-.07.19.19,0,0,0-.18,0,.15.15,0,0,0,0,.2l.1.09a.7.7,0,0,0,.17.09,1.7,1.7,0,0,1,.24.22,1.3,1.3,0,0,0-.26-.14l-.23-.08h0l0,0a3.89,3.89,0,0,1,.36.34s0,0,0,0a.51.51,0,0,1-.21-.1l0,0a.67.67,0,0,0-.2-.12.13.13,0,0,0-.17,0,.13.13,0,0,0,0,.1.16.16,0,0,0,0,.1h0a.24.24,0,0,0,.14.14.19.19,0,0,1,0-.08.09.09,0,0,1,.06-.1h0a.2.2,0,0,1,.15.07,1.84,1.84,0,0,1,.17.22.24.24,0,0,0,.22.11.33.33,0,0,0,.21-.12,3.24,3.24,0,0,1,.48.5.06.06,0,0,0,0,0H149.4a3,3,0,0,1,0-.4h0v-.06a1.12,1.12,0,0,1,0-.31c.17-.46.53-1.41.66-2a.43.43,0,0,1,0,0c.08-.49-.19-.52,1.24-1.3l0,0,.54-.29a6,6,0,0,1,5.11,0l.15.05a30.16,30.16,0,0,1,2.92,1.47V3a19.89,19.89,0,0,1-4.16,1.78A4.5,4.5,0,0,1,155.19,5Z"/><path class="cls-1" d="M8.94.14,8.88.21a.22.22,0,0,0,.29,0A2.27,2.27,0,0,0,9.42.05s.07,0,.1,0H9.26a.33.33,0,0,1-.19,0A.1.1,0,0,1,9,0H8.72s0,.07.07.09Z"/><path class="cls-1" d="M6.31,218.08v.06a1,1,0,0,0,.51.73v-.05l.22.09L7,218.74l.13-.05A1.57,1.57,0,0,1,6.31,218.08Z"/><polygon class="cls-1" points="151.7 3.01 151.88 3.33 152.2 3.15 152.01 2.83 151.7 3.01"/><path class="cls-1" d="M6.85,217.88a.36.36,0,0,1-.36,0h0l.11.13h0a.65.65,0,0,0,.28.21.23.23,0,0,0,.27,0c-.08-.09-.16-.15-.26-.13A1.37,1.37,0,0,0,6.85,217.88Z"/><path class="cls-1" d="M2.83,220.62a1.1,1.1,0,0,1,.09-.14c.07-.08,0-.13,0-.14a.11.11,0,0,0-.06,0,.06.06,0,0,0,0-.06s0-.06-.09,0l-.1.06-.11,0a.12.12,0,0,0,.09.1,1.32,1.32,0,0,0-.2.12l0,.06h.19l.1-.1A.11.11,0,0,0,2.83,220.62Z"/><path class="cls-1" d="M8.5,2.57a1.16,1.16,0,0,0,.61-.46,1,1,0,0,0,.19-.47h0V1.52a1.21,1.21,0,0,0,0-.19C9.19.74,8.53.22,7.45.14a8.82,8.82,0,0,0-3.87,1l-.71.33C6.25,2.77,7.75,2.82,8.5,2.57Z"/><path class="cls-1" d="M152.19,1.71a4.42,4.42,0,0,1-.13-.61,1.51,1.51,0,0,1,0-.3c0-.09,0-.19,0-.28s0-.25.06-.38,0-.08,0-.14h-1.28A3.23,3.23,0,0,0,152.19,1.71Z"/><path class="cls-1" d="M.18,220.59l1.49-.87.15-.08h0l.21-.12c-.49-.31-1.19-.77-2-1.26v2.24l.05,0Z"/><path class="cls-1" d="M5.72,218h0l.25-.11a.36.36,0,0,0-.4-.17l-.24.12a.91.91,0,0,0-.16.11A1,1,0,0,0,5,218,.87.87,0,0,0,5.72,218Z"/><path class="cls-1" d="M2.35.11h0s0,0,0,0A.35.35,0,0,0,2.54.07L2.62,0H2.43a.39.39,0,0,0-.08.1Z"/><path class="cls-1" d="M9.4.43a.43.43,0,0,0,0,.16A.71.71,0,0,1,10,.17C10,.1,9.77,0,9.68.05a.47.47,0,0,0-.33.21h0c0,.07-.09.11-.11.2Z"/><rect class="cls-1" x="154.53" y="3.34" width="0.37" height="0.36" transform="translate(45.24 112.9) rotate(-46.28)"/><path class="cls-1" d="M152.25,1.08a2,2,0,0,0,.27.82l.06,0a3.82,3.82,0,0,0,2.75.31,8.81,8.81,0,0,0,1.25-.32A24.2,24.2,0,0,0,159.9.15L159.57,0h-7.21A2.8,2.8,0,0,0,152.25,1.08Z"/><path class="cls-1" d="M10.18,0a.15.15,0,0,0,.2,0h0s0,0,0,0h-.23Z"/><path class="cls-1" d="M150.93,2.77a.11.11,0,0,0,.14,0,.07.07,0,0,0,0-.06.11.11,0,0,0,0-.09,2.27,2.27,0,0,1-.94-2.6h-.22A2.49,2.49,0,0,0,150.93,2.77Z"/><path class="cls-1" d="M10.31,220.47a.31.31,0,0,0-.31-.13H9.92l.25.3h.24l0,0Z"/><path class="cls-1" d="M7.1,217.21c0,.09,0,.12-.07.16a1.13,1.13,0,0,0-.1.13.26.26,0,0,0,.28-.08C7.25,217.35,7.21,217.26,7.1,217.21Z"/><path class="cls-1" d="M10.11.32h0s0-.09,0-.13a.5.5,0,0,0-.08-.2H10s0,0,0,.05A.33.33,0,0,1,10.11.32Z"/><path class="cls-1" d="M9.63,220.44c-.09,0-.24.15-.33.2h.22a.58.58,0,0,1,.21-.1.37.37,0,0,1,.24.1h.11A.38.38,0,0,0,9.63,220.44Z"/><path class="cls-1" d="M8.89,220.45a.15.15,0,0,1,.14-.13.2.2,0,0,1,.13.09.11.11,0,0,1,0,.08.08.08,0,0,1-.08,0h0a.12.12,0,0,0,.11.1c.09,0,.16-.2.1-.3a.26.26,0,0,0-.28-.09.23.23,0,0,0-.17.16l0,0-.13-.05v0c0,.1.06.15.15.21l-.14,0,0,0H9A.2.2,0,0,1,8.89,220.45Z"/><path class="cls-22" d="M159.9.15a24.2,24.2,0,0,1-3.32,1.77,8.81,8.81,0,0,1-1.25.32,3.82,3.82,0,0,1-2.75-.31l-.06,0a2,2,0,0,1-.27-.82A2.8,2.8,0,0,1,152.36,0h-.21c0,.06,0,.13,0,.14s0,.25-.06.38,0,.19,0,.28a1.51,1.51,0,0,0,0,.3,4.42,4.42,0,0,0,.13.61A3.23,3.23,0,0,1,150.87,0h-.76a2.27,2.27,0,0,0,.94,2.6.11.11,0,0,1,0,.09.07.07,0,0,1,0,.06.11.11,0,0,1-.14,0,2.49,2.49,0,0,1-1-2.77h-.49c.07.57.24,1.26.29,1.78a1.72,1.72,0,0,0,.11.5c.14.37.39.46.59.62a.41.41,0,0,1,.18.23c.23.64,2.07,2.14,4.62,1.82a4.5,4.5,0,0,0,.73-.15A19.89,19.89,0,0,0,160.08,3V0h-.51Zm-8,3.18L151.7,3l.32-.18.18.32Zm1.43.88h0a.79.79,0,0,1-.79-.79h0a.79.79,0,1,1,1.58,0A.79.79,0,0,1,153.31,4.21Zm1.4-.43-.26-.25.26-.27.26.25Z"/><path class="cls-22" d="M9.26,0H9a.1.1,0,0,0,.07,0A.33.33,0,0,0,9.26,0Z"/><path class="cls-22" d="M6.8,3a4.78,4.78,0,0,0,.76.08A3,3,0,0,0,9.74,2.5l.11-.11a1.93,1.93,0,0,0,.49-.84,1.6,1.6,0,0,0,0-1,.66.66,0,0,0,0,.15L10.29.59l-.09.1a.86.86,0,0,0,0-.16h0a.59.59,0,0,1,.4-.51,1.16,1.16,0,0,0-.19.44,3,3,0,0,0,.18-.41s0,0,0-.06h-.18s0,0,0,0h0a.15.15,0,0,1-.2,0h-.1a.5.5,0,0,1,.08.2s0,.12,0,.13h0A.33.33,0,0,0,10,.05s0,0,0,0H9.52s-.07,0-.1.05a2.27,2.27,0,0,1-.25.18.22.22,0,0,1-.29,0L8.94.14,8.79.09S8.74,0,8.72,0H2.62L2.54.07a.35.35,0,0,1-.17.06s0,0,0,0h0A.39.39,0,0,1,2.43,0H0V3c1.12-.61,2.07-1.18,2.5-1.41A18.38,18.38,0,0,0,6.8,3ZM9.35.26A.47.47,0,0,1,9.68.05c.09,0,.28.05.31.12A.71.71,0,0,0,9.4.59a.43.43,0,0,1,0-.16l-.12,0c0-.09.08-.13.11-.2ZM3.58,1.1a8.82,8.82,0,0,1,3.87-1C8.53.22,9.19.74,9.3,1.33a1.21,1.21,0,0,1,0,.19v.12h0a1,1,0,0,1-.19.47,1.16,1.16,0,0,1-.61.46c-.75.25-2.25.2-5.63-1.14Z"/><path class="cls-22" d="M157,216.22a6,6,0,0,0-5.11,0l-.54.29,0,0c-1.43.78-1.16.81-1.24,1.3a.43.43,0,0,0,0,0c-.13.55-.49,1.5-.66,2a1.12,1.12,0,0,0,0,.31v.06h0a3,3,0,0,0,0,.4h.49a3.16,3.16,0,0,1,.23-.59l.27-.53a2.81,2.81,0,0,0-.06-.82,1.73,1.73,0,0,1,1-2.16c-.77.5-.66,1.07-.47,1.36v0h0a4.28,4.28,0,0,1,1.1-1c2.4-1.59,5.74-.07,8.08,1.3v-.52a30.16,30.16,0,0,0-2.92-1.47Z"/><path class="cls-22" d="M150.91,220.17a3.1,3.1,0,0,0,.43-1.5,1.16,1.16,0,0,0-.34-.6.52.52,0,0,1-.08-.11,1.31,1.31,0,0,1-.17,1.33c-.11.2-.38.74-.45.87a3.15,3.15,0,0,0-.19.49h.76A.71.71,0,0,1,150.91,220.17Z"/><path class="cls-22" d="M153.65,219.08a2.28,2.28,0,0,0-1.29,1l-.13.28a.3.3,0,0,1,0,.1l0,.14h.21a2.09,2.09,0,0,1,1.35-1.38c1.35-.48,3.89.46,5.86,1.38h.51v-.15C158,219.51,155.12,218.56,153.65,219.08Z"/><path class="cls-22" d="M10.12,220.11a.33.33,0,0,1-.21.12.24.24,0,0,1-.22-.11,1.84,1.84,0,0,0-.17-.22.2.2,0,0,0-.15-.07h0a.09.09,0,0,0-.06.1.19.19,0,0,0,0,.08.24.24,0,0,1-.14-.14h0a.16.16,0,0,1,0-.1.13.13,0,0,1,0-.1.13.13,0,0,1,.17,0,.67.67,0,0,1,.2.12l0,0a.51.51,0,0,0,.21.1s0,0,0,0a3.89,3.89,0,0,0-.36-.34l0,0h0l.23.08a1.3,1.3,0,0,1,.26.14,1.7,1.7,0,0,0-.24-.22.7.7,0,0,1-.17-.09l-.1-.09a.15.15,0,0,1,0-.2.19.19,0,0,1,.18,0,.27.27,0,0,1,.14.07h0c-.08,0-.11,0-.08.09a.26.26,0,0,0,.17.15l.17.06a.48.48,0,0,1,.22.15.4.4,0,0,1,0,.41,4.89,4.89,0,0,1,.45.46l0-.16-.13-.15h0a.57.57,0,0,1-.19-.46l.1.09.11.08a1.59,1.59,0,0,1,.13.13s0,0,0,0,0-.07,0-.11a1.23,1.23,0,0,1-.42-.56.5.5,0,0,1,0-.21.68.68,0,0,0,0-.15,1.05,1.05,0,0,0-.06-.24.37.37,0,0,0-.24-.2c-.09,0-.15,0-.18,0s0,.18.11.24a.17.17,0,0,0,.14,0s0-.05-.05-.09v0h0a.17.17,0,0,1,.11.09c0,.05,0,.08,0,.11s-.29,0-.37,0a.36.36,0,0,1,0-.37v0h0l-.15-.09a.14.14,0,0,1,.15,0l.17.07-.08-.13a.67.67,0,0,1,.37.23v-.08a.41.41,0,0,1,.22.26.67.67,0,0,1,0,.2c0,.1,0,.2,0,.32a.77.77,0,0,0,.17.44l.13.13v-.13a1.43,1.43,0,0,1-.18-.5h0v0a.27.27,0,0,1,.07-.2,2.2,2.2,0,0,0-.23-.59,1.54,1.54,0,0,0-1.14-1.09,3.8,3.8,0,0,0-2.3-.12.13.13,0,0,1,.06.07.11.11,0,0,1,0,.15.88.88,0,0,1-.21.12v0a.28.28,0,0,1,.06-.18.15.15,0,0,0,0-.11l-.26.07-.08.09c.06,0,.13.07.14.15s-.25.08-.28.21h0a1,1,0,0,1-.07-.29v-.05l-.24.08a1.07,1.07,0,0,0,.09.27h0a.63.63,0,0,1-.26-.2c-.64.26-1.41.66-2.66,1.33l-.59.33h0L2.36,219,0,217.74v.52c.83.49,1.53,1,2,1.26l-.21.12h0l-.15.08-1.49.87-.13-.07,0,0v.15H2.43l0-.06a1.32,1.32,0,0,1,.2-.12.12.12,0,0,1-.09-.1l.11,0,.1-.06c.06,0,.08,0,.09,0a.06.06,0,0,1,0,.06.11.11,0,0,1,.06,0s.07.06,0,.14a1.1,1.1,0,0,0-.09.14.11.11,0,0,1-.11-.07l-.1.1h6.1l0,0,.14,0c-.09-.06-.15-.11-.15-.21v0l.13.05,0,0a.23.23,0,0,1,.17-.16.26.26,0,0,1,.28.09c.06.1,0,.29-.1.3a.12.12,0,0,1-.11-.1h0a.08.08,0,0,0,.08,0,.11.11,0,0,0,0-.08.2.2,0,0,0-.13-.09.15.15,0,0,0-.14.13.2.2,0,0,0,.11.2h.3c.09,0,.24-.16.33-.2a.38.38,0,0,1,.45.21h.09l-.25-.3H10a.31.31,0,0,1,.31.13l.13.15,0,0h.18a.06.06,0,0,1,0,0A3.24,3.24,0,0,0,10.12,220.11ZM7,217.37s.1-.07.07-.16.15.14.11.21a.26.26,0,0,1-.28.08A1.13,1.13,0,0,1,7,217.37Zm-1.86.53a.91.91,0,0,1,.16-.11l.24-.12a.36.36,0,0,1,.4.17l-.25.11h0A.87.87,0,0,1,5,218,1,1,0,0,1,5.17,217.9Zm-1.53.78a.57.57,0,0,1,.15-.16v0c0,.11,0,.16.09.16a.46.46,0,0,0,.29-.17l.17-.21a.68.68,0,0,1,.3-.23.52.52,0,0,1,.48.09.6.6,0,0,0-.45.15,2.39,2.39,0,0,0-.23.22c-.12.12-.24.24-.37.35l-.12.08c-.16.08-.29,0-.33-.05h0a.23.23,0,0,1,0-.11A.49.49,0,0,1,3.64,218.68Zm-.88.71.06,0s-.08-.07,0-.15h0a.09.09,0,0,0,.07,0,.24.24,0,0,0,.09-.08.19.19,0,0,1,.21-.06.11.11,0,0,1,.06.15.2.2,0,0,1-.18.16s0,0,0-.06h.08l.06-.09s0-.07,0-.07a.17.17,0,0,0-.17.09.2.2,0,0,0,0,.08.13.13,0,0,0,.07.15.17.17,0,0,0,.18,0c.13-.06.28-.23.41-.29h0a.21.21,0,0,1,.28.09h0v0c-.16-.07-.34,0-.53.16l-.31.17a.23.23,0,0,1-.16,0l0,0a.3.3,0,0,1,.08-.08.22.22,0,0,1-.15-.07h0l0,0S2.72,219.41,2.76,219.39Zm-.11.62h0s-.06,0-.06,0v0a.27.27,0,0,1,.07-.08.11.11,0,0,1,.12,0,.15.15,0,0,0,.17,0A.75.75,0,0,1,2.65,220Zm.72.54h0a.06.06,0,0,1-.06-.08.73.73,0,0,1,.11-.29v.11s0,.07.06.1S3.45,220.55,3.37,220.55Zm0-.45-.13.18c0,.07-.12.11-.15.08s.09-.21.14-.24a1.35,1.35,0,0,0,.28-.25l0-.05-.23.18a.48.48,0,0,1-.22.12s0,0,0,0a.33.33,0,0,1,.11-.22l.19-.23-.06,0A.86.86,0,0,0,3,220a.28.28,0,0,1-.13.15,0,0,0,0,1-.07,0h0s0,0,0,0A.29.29,0,0,1,2.9,220l.18-.15c0-.06,0-.12.1-.18a1.18,1.18,0,0,1,.19-.11.15.15,0,0,0,.06,0,.39.39,0,0,1,.1-.08.26.26,0,0,1,.27,0,.12.12,0,0,1,.05.09.29.29,0,0,1,0,.16.24.24,0,0,1-.14.12l0,0-.1.16C3.48,220.07,3.43,220.1,3.36,220.1Zm.68.18-.08.08a.11.11,0,0,0,0,.08.11.11,0,0,1-.15,0l-.05.06c0,.06,0,.06-.08,0l0-.06s0-.06,0-.09l-.08.07a.08.08,0,0,1,0,0v0a.19.19,0,0,1,0-.12l.2-.3c.12-.18.24-.35.19-.52H4a.2.2,0,0,1,.07.28c-.08.12-.25.26-.32.39a.19.19,0,0,0,0,.18.17.17,0,0,0,.16.07.13.13,0,0,0,.08,0,.18.18,0,0,0,.1-.16s0,0-.07,0a.19.19,0,0,0-.09,0s0,.05,0,.08-.06,0-.06-.05A.24.24,0,0,1,4,220a.12.12,0,0,1,.15.08A.18.18,0,0,1,4,220.28Zm.08-1.16,0-.05c.07-.09.14-.19.22-.28a1.81,1.81,0,0,1,.47-.4.28.28,0,0,1,.22,0,.14.14,0,0,0,.11,0,8.41,8.41,0,0,1,1.23-.55s0,0,.07-.06,0-.08.09-.09a.75.75,0,0,1,.21,0H7s-.13.14-.19.19a.27.27,0,0,1-.3,0,0,0,0,0,0,0,0,8.24,8.24,0,0,0-1.26.54s0,0,0,.07a.16.16,0,0,1-.05.11,1.17,1.17,0,0,1-.3.19,5.62,5.62,0,0,0-.64.34h0ZM6,218.44H6l-.55.21c0-.05,0-.09,0-.13a.44.44,0,0,1,.33-.35l.27-.11a.46.46,0,0,1,.05.1h0A.23.23,0,0,1,6,218.44Zm-1.5,1.17a.28.28,0,0,1-.27-.1h0a.21.21,0,0,1,0-.12.23.23,0,0,1,.07-.15,1,1,0,0,1,.25-.21,3.68,3.68,0,0,1,.45-.21.6.6,0,0,0,.29-.23l.07-.1a.48.48,0,0,1,0,.29.35.35,0,0,1-.26.25,2.84,2.84,0,0,0-.38.13.26.26,0,0,0-.15.17h0a.13.13,0,0,0,.11.13h.12A.43.43,0,0,1,4.54,219.61Zm.94,0h0a.45.45,0,0,0-.6.07.73.73,0,0,1,.27-.28h0A.25.25,0,0,1,5.48,219.64Zm.79.21V220c-.12-.06-.14-.17-.22-.24l0,.06H6a.83.83,0,0,1-.15-.43.59.59,0,0,1,0-.13.63.63,0,0,1,.3-.38,1.08,1.08,0,0,0,.3,1Zm.25-1a.55.55,0,0,0-.4,0,.54.54,0,0,0-.36.28.79.79,0,0,0,0,.48c0,.14.06.29.09.43a.33.33,0,0,1-.21.37l-.05-.13-.16.17a.29.29,0,0,1-.22.06l0-.19a.35.35,0,0,1-.38.05l.14-.14,0,0a.26.26,0,0,1-.06-.33.35.35,0,0,1,.3-.21c.15,0,.3.1.26.21a.17.17,0,0,1-.19.09v0a.08.08,0,0,0,0-.1.11.11,0,0,0-.11-.06.25.25,0,0,0-.18.12.19.19,0,0,0,.08.25.29.29,0,0,0,.41-.08.49.49,0,0,0,.07-.33c0-.14,0-.28,0-.42s0-.08,0-.12a.6.6,0,0,1,.73-.43l.2.08A.14.14,0,0,1,6.52,218.89Zm.52,0-.22-.09v.05a1,1,0,0,1-.51-.73v-.06a1.57,1.57,0,0,0,.77.61l-.13.05Zm-.18-.67a.65.65,0,0,1-.28-.21h0l-.11-.13h0a.36.36,0,0,0,.36,0,1.37,1.37,0,0,1,0,.19c.1,0,.18,0,.26.13A.23.23,0,0,1,6.86,218.24Zm.38-.14a.15.15,0,0,0-.13-.13h0a.42.42,0,0,1-.21-.13l.1,0a.28.28,0,0,1,.2,0,.14.14,0,0,1,.09.11A.16.16,0,0,1,7.24,218.1Zm0-.33H7a.26.26,0,0,1,.21-.14.13.13,0,0,1,.12,0,.17.17,0,0,1,0,.15A.18.18,0,0,0,7.2,217.77Zm.25-.28,0,0a.42.42,0,0,1-.25,0,.3.3,0,0,1,.19-.14s0,0,.07,0a.06.06,0,0,1,0,0Zm1.22,2.06a.16.16,0,0,0-.13.06.12.12,0,0,0,0,.13.1.1,0,0,0,0,0,.14.14,0,0,0,.15,0,0,0,0,0,0,0-.06.2.2,0,0,0-.08,0s0,0,0,0,0-.05,0-.06a.25.25,0,0,1,.22,0,.11.11,0,0,1,0,.13.23.23,0,0,1-.21,0l-.09,0-.05,0a.1.1,0,0,1,0-.12H8.43s-.06,0,0-.05a.08.08,0,0,1,0,0l0-.06h0l-.05,0s0,0,0,0a.33.33,0,0,1,.13-.07l.18-.08h0a.27.27,0,0,1-.2-.12H8.38l-.1,0a.11.11,0,0,1,0-.12H8.08a.37.37,0,0,1-.18-.05h0v0h0a.23.23,0,0,1,.16,0,.78.78,0,0,1,.22,0,.09.09,0,0,1,.05-.1l.14.06h0l.05,0a.15.15,0,0,1,.16,0l.06,0a.4.4,0,0,1-.15-.14.27.27,0,0,1-.06-.1v0h.08a.19.19,0,0,1,0-.07v-.05s0,0,.07,0l.05,0s0-.09.08-.1h0a.09.09,0,0,0,0,.06l.08,0a.21.21,0,0,1,.16.13.09.09,0,0,1-.07.1.25.25,0,0,1-.21-.07s0,0,0,0,0,0,0,0H9s0,0,0-.05a.13.13,0,0,0-.14-.07H8.8a.12.12,0,0,0-.08.1.17.17,0,0,0,.09.11c.09.06.27.09.36.14s.09.13.06.24,0,.11,0,.15,0,.15-.15.15S8.77,219.54,8.67,219.55Z"/><path class="cls-22" d="M9.52,220.65H10a.37.37,0,0,0-.24-.1A.58.58,0,0,0,9.52,220.65Z"/></g></g></svg>