<svg xmlns="http://www.w3.org/2000/svg" viewBox="0 0 316.13 179.49"><defs><style>.cls-1{fill:#290216;}.cls-2{fill:#be6f72;}.cls-3{fill:#590725;}.cls-4,.cls-6{isolation:isolate;}.cls-4{opacity:0.1;}.cls-5{fill:#720d2e;}.cls-6{opacity:0.2;}.cls-7{fill:#1c0212;}.cls-8{fill:#960f30;}.cls-9{fill:#fbbebe;}</style></defs><g id="Laag_2" data-name="Laag 2"><g id="Laag_1-2" data-name="Laag 1"><path class="cls-1" d="M264.44,35.55a12.31,12.31,0,0,1,1.68,1.08,11.67,11.67,0,0,1,1.67,1.84c2.39,3.1,4.6,6.69,4.37,10.6a4.34,4.34,0,0,1-1.24,3.07,5.6,5.6,0,0,1-3.7.88,7.81,7.81,0,0,1-4.1-.73c-1.22-.72-2.24-2.13-3.68-2.1a2.08,2.08,0,0,1-.61,0c-.5-.16-.6-.81-.92-1.23-.56-.74-1.74-.55-2.61-.23s-1.85.81-2.71.43A2.83,2.83,0,0,1,251.41,48c-2.07-3.35-2.51-7.37-2.9-11.26-.24-2.37-2.07-10.44,3-8.6,2.23.8,4.32,2.41,6.35,3.59Z"/><path class="cls-1" d="M259.46,36.34a2.48,2.48,0,0,0,3.06-.12A4.62,4.62,0,0,0,264,33.33c.56-.17.84.56,1.2,1,.62.76,1.89.75,2.46,1.56.4.56.31,1.33.59,2,.36.82,1.26,1.24,1.87,1.9a6.51,6.51,0,0,1,1.23,2.45l.92,2.75a13.5,13.5,0,0,1,.83,3.55,4.58,4.58,0,0,1-1.06,3.4c-1.22,1.32-3.24,1.46-5,1.42a6.52,6.52,0,0,1-1.76-.21,5,5,0,0,1-3-3.68,47.23,47.23,0,0,1-.62-4.92,19,19,0,0,0-1.39-4.67c-.49-1.16-1.84-2.89-1.82-4.13C258.83,35.71,259.12,36.08,259.46,36.34Z"/><path class="cls-2" d="M261.46,30.69a9.22,9.22,0,0,1-.45-2.45,10.64,10.64,0,0,1,1.53-4.74l-6.38.86a2.83,2.83,0,0,0-2.06.91,2.21,2.21,0,0,0,0,2.06,10.62,10.62,0,0,1,.76,2,9.81,9.81,0,0,0,.2,1.79,3.9,3.9,0,0,0,.82,1.15A38.42,38.42,0,0,1,260.44,39c0-.07,3.84-3.08,3.69-4.06-.09-.56-1.22-1.23-1.57-1.76A8.7,8.7,0,0,1,261.46,30.69Z"/><polygon class="cls-3" points="316.13 8.89 316.13 14.39 222.03 32.74 217.15 35.7 200.31 35.7 200.31 32.6 292.76 10.27 316.13 8.89"/><polygon class="cls-4" points="316.13 14.39 222.03 32.74 217.15 35.7 200.31 35.7 293.45 15.77 316.13 14.39"/><path class="cls-5" d="M240.58,164.9a7.28,7.28,0,0,0-8.87-1.89,2.3,2.3,0,0,0-.81.64c-.56.78-.21,1.86-.16,2.82.13,2.36-1.74,4.27-3.43,5.92a8.15,8.15,0,0,0-2.23,3,2.84,2.84,0,0,0,1,3.35,4.11,4.11,0,0,0,1.53.42,16.38,16.38,0,0,0,5.41.15,5.87,5.87,0,0,0,4.3-3,3,3,0,0,1,.72-1.19c1-.77,2.48.14,3.6-.41.92-.46,1-1.18,1-2.13C242.63,170,242.24,167,240.58,164.9Z"/><path class="cls-5" d="M254,164.8a18.31,18.31,0,0,1,.87,5.71,5.45,5.45,0,0,1-.52,3.25,4.43,4.43,0,0,1-2.9,1.67c-2.33.48-5,0-6.53-1.82a6.82,6.82,0,0,1-1.17-5.17c.17-1.5.55-3.26-.52-4.33-.28-.28-.64-.48-.9-.79a2.65,2.65,0,0,1-.17-2.54,11.25,11.25,0,0,0,.88-2.52c0-.41,7.55.29,8.24.63.95.46.8,1.24,1.09,2.18C252.73,162.37,253.49,163.55,254,164.8Z"/><path class="cls-1" d="M255.35,84.65c1.47.95,2,2.83,2.27,4.57.63,4.77-.47,9.59-.56,14.4-.08,6.75,1.88,13.62.21,20.15-1,3.9-.15,8.37-1.09,12.31-.28,1.17-.79,2.28-1.06,3.45-.56,2.54-1,5.19-.19,7.68a5.66,5.66,0,0,1-.34,5.23l-2.34,7.91c-.38.89-1.85,1-2.79,1.15-1.78.21-3.76.36-5.17-.74s-1.75-2.94-2-4.65a72,72,0,0,1-.56-10,7.73,7.73,0,0,0-.23-2.58,23.43,23.43,0,0,1-1.16-2.79c-.24-1.31.43-2.59.67-3.91a11.88,11.88,0,0,0,0-3.62q-.33-2.69-.76-5.35c-.4-2.48.18-4.93.56-7.42a20.23,20.23,0,0,0-.56-7,19.41,19.41,0,0,1-.69,5.58c-.3.89-.72,1.74-1,2.64-1.14,4.06,1.3,8.31.95,12.52-.16,2-.93,3.9-.71,5.84a19.25,19.25,0,0,0,1.26,4.06,5.32,5.32,0,0,1,0,4.16c-.95,6.27-.46,8.08,1.16,11.6a15.13,15.13,0,0,1,.86,1.93c.48,1.58.08,3.29.21,4.94a3.15,3.15,0,0,1-2.62-.79c-.24-.26-.44-.56-.68-.82a6.89,6.89,0,0,0-2.34-1.46,3.05,3.05,0,0,0-1.67-.39,3.44,3.44,0,0,0-1.59,1,16.21,16.21,0,0,1-1.75,1.34,2.08,2.08,0,0,1-.9.39.8.8,0,0,1-.82-.42,1.36,1.36,0,0,1-.06-.29,47.77,47.77,0,0,1-.33-5.07c0-2.92-3.49-4.93-3.93-7.82-.35-2.32.3-4.69.08-7a33.43,33.43,0,0,1-.41-3.59c0-.78.17-1.54.24-2.32a18.52,18.52,0,0,0,0-2.58l-.18-2.7a23.07,23.07,0,0,0-1.4-7.81,26.51,26.51,0,0,1-2.17-9c-.11-2,0-3.91-.26-5.86a28,28,0,0,1-.52-5.3c.1-1.38.55-2.7.66-4.08.22-2.64-.79-5.2-1.57-7.73s-1.37-5.33-.34-7.77a2.57,2.57,0,0,1,.72-1,2.94,2.94,0,0,1,1.31-.49,101.84,101.84,0,0,1,29.14-1.86A9.66,9.66,0,0,1,255.35,84.65Z"/><circle class="cls-2" cx="223.68" cy="16.45" r="8.94"/><path class="cls-2" d="M222,27.62a3.38,3.38,0,0,1,0,1.55,3.56,3.56,0,0,1-.59,1,25.47,25.47,0,0,1-2.86,3.11,5.21,5.21,0,0,0,2.67,2.64A15.72,15.72,0,0,0,224.86,37a5.28,5.28,0,0,0,1.94.14,5.06,5.06,0,0,0,1.67-.76l5-3a9.41,9.41,0,0,0,2.06-1.49,5,5,0,0,0,1.44-3.49.93.93,0,0,0-.18-.66,1.18,1.18,0,0,0-.68-.28,6.06,6.06,0,0,1-3.9-3.41,18.2,18.2,0,0,1-1.36-5.17l-5.29,2.79c-.79.42-1.57.83-2.38,1.2-.52.23-1.57.43-1.94.9C220.51,24.63,221.76,26.56,222,27.62Z"/><path class="cls-1" d="M218.53,31.65A5.85,5.85,0,0,0,216.82,34a6,6,0,0,0,.31,3.4,101.47,101.47,0,0,1,3.35,14.39c.47,3.34.64,6.74.87,10.13.47,6.91,1.15,17.92,2.06,24.78,3.35.15,6.61-.82,9.93-1.18,6.2-.66,12.59.85,18.67-.56-1.48-5.82-2.95-15.75-4.42-21.57a40.63,40.63,0,0,1-1.35-7c-.13-1.7-.05-3.41,0-5.12,0-3.35-.13-6.7-.32-10a63.22,63.22,0,0,0-1.35-11.64,2.11,2.11,0,0,0-.65-1.27A2.58,2.58,0,0,0,242,28.1a8.46,8.46,0,0,1-5.79-1.37c-.74-.5-1.73-1.12-2.41-.56a2.35,2.35,0,0,0-.56,1.19,6,6,0,0,1-3.49,3.44,17.46,17.46,0,0,1-4.95,1,2.45,2.45,0,0,1-1.53-.17c-.79-.49-.85-2.24-1.85-2.35S219.12,31.08,218.53,31.65Z"/><path class="cls-5" d="M231.73,45.27c-2.06-2-3-4.83-4.46-7.25a15.93,15.93,0,0,0-3.86-4.24A11.86,11.86,0,0,1,221.32,32c-.53-.66-.94-1.53-1.74-1.78a2.12,2.12,0,0,0-1.88.52,17.76,17.76,0,0,0-1.39,1.49c-2.37,2.44-6.53,2.79-8.4,5.62a4.57,4.57,0,0,0-1,2.09,16.22,16.22,0,0,0,3,11.66A4,4,0,0,0,212,53.28a6.51,6.51,0,0,0,.41,3.06,80.61,80.61,0,0,0,3.8,10.35,25,25,0,0,0-.75,4c-.39,3.4,0,6.86-.4,10.28-.3,2.79-1.11,5.5-1.14,8.3,0,.45,0,1,.42,1.2a1.21,1.21,0,0,0,.67.14l6.86.21a56,56,0,0,0,11.93-.5,5,5,0,0,0,1.5-.48c1.33-.74,1.77-2.41,2-3.9a35.63,35.63,0,0,0,.33-5.84c.83,2.63,1.82,5.35,4.33,6.49a9.71,9.71,0,0,0,4.3.51,79.75,79.75,0,0,0,9.37-1,1.23,1.23,0,0,0,1.37-1.07,1.09,1.09,0,0,0,0-.36l0-3c.06-6.19-1.47-12.1-2.07-18.26a39,39,0,0,0-.65-5.81c-.19-.8-.48-1.58-.65-2.38a17.36,17.36,0,0,1-.28-2.38l-.43-6.14c-.21-2.84-.5-5.58-.72-8.41a40.38,40.38,0,0,0-1.2-8.18c-.48-1.68-1.49-3.57-3.24-3.78a6.54,6.54,0,0,0-2.72.59,11.1,11.1,0,0,1-6.7,0,8.89,8.89,0,0,0-2.08-.56,2.05,2.05,0,0,0-1.91.79,2.87,2.87,0,0,0-.3,1.41A74,74,0,0,1,231.73,45.27Z"/><path class="cls-1" d="M222.76,45.44c-2.58-2.71-5.22-5.48-8.53-7.2A6.86,6.86,0,0,0,210,37.3a3.18,3.18,0,0,0-2.73,3,21,21,0,0,0,.77,2.61c.2,1-.09,2.07.23,3a5.14,5.14,0,0,0,1.11,1.72l4,4.68a25.69,25.69,0,0,0,5.5,5.28,8.28,8.28,0,0,0,7.31,1,9,9,0,0,0,4-3.67c1-1.57,1.67-3.27,2.59-4.89a24.24,24.24,0,0,1,5.58-6.76A6.26,6.26,0,0,1,235,41.63a6.36,6.36,0,0,1-.53-1l-.9-2a2.24,2.24,0,0,0-1.67.63,15,15,0,0,1-1.25,1.27c-.78.59-1.85.75-2.56,1.42a6.72,6.72,0,0,0-.75.94A6.26,6.26,0,0,1,222.76,45.44Z"/><path class="cls-2" d="M238.53,33.77c1.93-3.53,1.84-7.77,2.4-11.75A5.38,5.38,0,0,1,242,19.1c1.12-1.26,3.09-1.28,4.77-1.12.5.06,1.12.29,1.09.79a1,1,0,0,1-.25.47,13.37,13.37,0,0,0-2.76,7.32c.88.61,2.24-.64,3.08,0,.56.47.3,1.4,0,2.07q-1.15,2.32-2.4,4.62a15,15,0,0,1-2.55,3.67c-.71.68-1.54,1.22-2.26,1.89-1.67,1.57-2.68,3.78-4.41,5.31a.75.75,0,0,1-1.15,0A8.52,8.52,0,0,1,233,41.59c-.65-1.21-.55-1.57.48-2.43A18.28,18.28,0,0,0,238.53,33.77Z"/><path class="cls-5" d="M219.52,43c.33.2.75.44,1.12.27a1.3,1.3,0,0,0,.37-.37,12.74,12.74,0,0,0,1.58-2.75,1.16,1.16,0,0,0,.12-.45c0-.36-.32-.62-.61-.82A23.37,23.37,0,0,0,217,36.5a10.62,10.62,0,0,0-4.58-.9,4.35,4.35,0,0,0-3,1.55c-1.12,1.44.75,1.87,1.92,2.39C214,40.77,217,41.49,219.52,43Z"/><path class="cls-4" d="M217.76,52.52a.82.82,0,0,0,.24.71c.16-.8-.05-1.63.11-2.43.25-1.2,1.41-2.1,1.52-3.31C217.49,47.07,217.78,51.23,217.76,52.52Z"/><polygon class="cls-6" points="316.13 8.89 316.13 14.39 293.45 15.77 292.76 10.27 316.13 8.89"/><path class="cls-7" d="M215.63,17.78c1.42-1.15.6-3.58,1.56-5.13A5.05,5.05,0,0,1,219.61,11a11.23,11.23,0,0,1,3.55-1,4.1,4.1,0,0,1,3.34,1.23c.37.41.61.92.95,1.35A3.64,3.64,0,0,0,231,13.79c.74-.17,1.51-.73,1.46-1.49a2.07,2.07,0,0,0-.67-1.19l-1.6-1.77c-1.81-2-3.82-4.14-6.48-4.64a11.13,11.13,0,0,0-5.54.74c-.72.24-1.53.6-1.73,1.33-.13.5.07,1.05,0,1.55-.23,1-1.52,1.35-2.12,2.2s-.42,1.85-.6,2.79a24.46,24.46,0,0,0-.73,2.83c0,.58.25,1.67.91,1.88S215.22,17.08,215.63,17.78Z"/><path class="cls-8" d="M231.89,11.5a16.83,16.83,0,0,0-3-6.79A11.94,11.94,0,0,0,223.64.52a7.58,7.58,0,0,0-6.58.52,9.61,9.61,0,0,0-3.29,4.14c-1.44,3.12-2,6.92-.3,9.91.67-.81,1.82-.44,2.84-.74a30,30,0,0,0,3.56-1.74C223.52,11,228,12.3,231.89,11.5Z"/><path class="cls-4" d="M214.33,11.33c-.13-1-.22-2.17.5-2.89a.33.33,0,0,1,.29-.13.35.35,0,0,1,.23.2,12.39,12.39,0,0,1,1.05,2.05,2.14,2.14,0,0,0-2.23.87"/><path class="cls-4" d="M227.36,8.49l-.2-2a.91.91,0,0,1,0-.49.63.63,0,0,1,.82-.22,1.63,1.63,0,0,1,.65.65,11.8,11.8,0,0,1,1.15,2.27,6.92,6.92,0,0,0-2.72,0"/><polygon class="cls-3" points="228.36 89.33 228.36 94.14 204.29 94.14 140.37 14.06 140.37 10.28 153.77 10.28 228.36 89.33"/><polygon class="cls-4" points="228.36 89.33 228.36 94.14 204.29 94.14 140.37 14.06 140.37 10.28 204.64 89.33 228.36 89.33"/><path class="cls-5" d="M148.75,169.59a1.67,1.67,0,0,1-1.34,1.95l-.12,0a10,10,0,0,0-4.3,2.23c-1.1,1.19-1.32,3.39,0,4.36a4.19,4.19,0,0,0,2.23.61,15.2,15.2,0,0,0,7.46-.93c1.64-.76,3.18-2.06,5-1.94.93.06,1.93.49,2.76.07s1.06-1.61,1.07-2.6a19.23,19.23,0,0,0-.92-6.07c-.08-.27-3.63-.48-4.06-.56l-4.3-.56c-.81-.1-2.57-.72-3.21,0S148.75,168.78,148.75,169.59Z"/><path class="cls-5" d="M174.42,155.67a13.64,13.64,0,0,0,.88,2.92c.6,1.52,1.36,3.13,2.82,3.87a5.06,5.06,0,0,0,4.31-.21,3.49,3.49,0,0,0,1.43-1.09,4.29,4.29,0,0,0,.56-2.5,13.78,13.78,0,0,0-1.11-6.31c-.85-1.68-2.33-3.12-2.35-5l-5.09,1a1.42,1.42,0,0,0-.74.3,1.22,1.22,0,0,0-.33.61A16.62,16.62,0,0,0,174.42,155.67Z"/><path class="cls-5" d="M113.72,102.66a8.33,8.33,0,0,0,.82,5.28,4.07,4.07,0,0,0,4.62,2,.67.67,0,0,0,.41-.31.78.78,0,0,0-.07-.56,8.29,8.29,0,0,1,.17-6.21c.12-.25.36-.55.62-.45a.51.51,0,0,1,.25.25,3,3,0,0,1,.39,1.54,6.12,6.12,0,0,0-.05,1.48c.11.48.62.93,1.07.73a1.14,1.14,0,0,0,.51-.72c1.24-3.6.68-7.54.11-11.3a.58.58,0,0,0-.56-.62.34.34,0,0,0-.1,0c-2.64-.26-4.08-.89-5.58,1.56C115,97.34,113.72,100.18,113.72,102.66Z"/><path class="cls-1" d="M144.51,93.51a45.41,45.41,0,0,0-1.62,9.87,44.53,44.53,0,0,0,.47,6.21l.58,4.83c.2,1.63.4,3.25.68,4.86a12.67,12.67,0,0,1,.3,2.53,13,13,0,0,1-.4,2.48,29.25,29.25,0,0,0-.58,5.19c-.06,2.79.28,5.58.5,8.37a94,94,0,0,1-.19,16.69,6.23,6.23,0,0,0,.91,4.31,5.78,5.78,0,0,1,.81,1.32c.42,1.28-.56,2.56-.81,3.87a3.9,3.9,0,0,0,3.25,4.46c4.46.53,9.05.29,13.07,2.34.42-1.24-.5-2.65-.08-3.91.27-.78,1-1.29,1.51-2a5.69,5.69,0,0,0,1-3.4A12.3,12.3,0,0,0,163,157a10.05,10.05,0,0,1-1.11-3.76,6.67,6.67,0,0,0-1-2.92c-.92-.46-.57-31.4.88-36.71.15-.49.38-1.06.88-1.18a1.26,1.26,0,0,1,1.07.42A7.29,7.29,0,0,1,165.4,116a6.91,6.91,0,0,1,.52,3.81c-.13.56,3.47,20.54,3.84,21.13.45,2.28,1,4.77,1.73,7.55s1.62,3.7,3.28,4.18a5.05,5.05,0,0,0,2.12,0c1.64-.25,3.47-.72,4.27-2.17a5.85,5.85,0,0,1,1-1.77c.51-.45,2.86-4.65,2.62-6.19-.34-2.23.59-6.69.48-8.92-.25-4.85-.41-9.72-.66-14.57a105.22,105.22,0,0,1-.13-13c.19-2.7.56-5.54-.44-8-1.42-3.55-5.36-5.54-9.17-5.92s-7.61.52-11.39,1.11A71.94,71.94,0,0,1,144.51,93.51Z"/><circle class="cls-9" cx="155.83" cy="31.24" r="8.94"/><path class="cls-9" d="M152.2,41.85a3.81,3.81,0,0,1-3.65,2.3,4.51,4.51,0,0,0,1.34,3.75,15.88,15.88,0,0,0,15.21,5.21,7.5,7.5,0,0,0,3-1.25,6.64,6.64,0,0,0,2.28-4,19.65,19.65,0,0,0,.22-4.66,1.23,1.23,0,0,0-.24-.85,1.19,1.19,0,0,0-.79-.26c-1.88-.17-3.85-.24-5.51-1.17s-2.83-3-2-4.73c-.13.26-3.39.39-3.82.45-1.34.19-2.69.4-4,.64a7.61,7.61,0,0,0-1.89.36c-.81.42-.51.21-.32,1C152.26,39.81,152.68,40.64,152.2,41.85Z"/><path class="cls-1" d="M159,47.28a14.83,14.83,0,0,1-3.58-.39,5,5,0,0,1-2.93-2c-.42-.63-.69-1.41-1.34-1.76-1.08-.56-2.31.38-3.17,1.25a11.46,11.46,0,0,1-2.69,2.16c-1.19.63-2.58.85-3.71,1.6a9.14,9.14,0,0,0-2.23,2.41l-7.91,10.76c-3.17,4.33-5.94,9-8.76,13.55-2.45,4-3.74,8.51-5.58,12.78a1.43,1.43,0,0,0-.18.86c.07.29.42.52.67.35-.83.83-.1,2.24-.3,3.4A4.14,4.14,0,0,1,116,94.37a10.65,10.65,0,0,1,3.69.17,11.41,11.41,0,0,1,3.48,1.67c.67-.1.61-1.3,1.11-1.75a2.4,2.4,0,0,1,1.15-.31c1.49-.29,2.08-2.08,3.22-3.09,1-.84,2.31-1.11,3.32-1.9,1.64-1.29,2-3.59,2.85-5.49.73-1.61,1.88-3,2.52-4.67a20.13,20.13,0,0,1,1.22-3.22c.95-1.59,2.75-2.44,4.46-3.21a7.55,7.55,0,0,1,3.4-.91c-.07,2.6-.39,5.15.17,7.69.19.89.47,1.76.7,2.65a49.61,49.61,0,0,1,1.37,12.27,38,38,0,0,1,7.81-.94c2.07-.06,4.13.21,6.2.17,2.46,0,4.89-.52,7.34-.68a13.72,13.72,0,0,1,7.19,1.11,68.25,68.25,0,0,1,.3-10.6l.59-5.54a33.37,33.37,0,0,1,.74-4.79c.33-1.27.79-2.5,1.15-3.77,1.26-4.46,1-9.23.79-13.87a17.7,17.7,0,0,0-2.13-6.87,17.8,17.8,0,0,0-1.34-2.27,13.17,13.17,0,0,0-11.52-5.41,2.56,2.56,0,0,0-.83.17,2.75,2.75,0,0,0-1,1.26A13.74,13.74,0,0,1,159,47.28Z"/><path class="cls-7" d="M148,34.21c.25-.56.93-.77,1.34-1.21.79-.85.44-2.21.56-3.35A4.79,4.79,0,0,1,153.05,26a10.3,10.3,0,0,1,5-.32,5,5,0,0,1,2.27.75c.29.21.55.49.83.68a2.22,2.22,0,0,0,3-.71c-2-2.37-4.16-4.88-7.16-5.61a15,15,0,0,0-3.13-.3,10.16,10.16,0,0,0-4.11.48,6.87,6.87,0,0,0-3.6,4.16,20.32,20.32,0,0,0-.88,5.58,21.92,21.92,0,0,0,0,3.8,10.55,10.55,0,0,0,1.87,4.78,1.38,1.38,0,0,0,.55.52C150.29,40.9,147.77,34.67,148,34.21Z"/><path class="cls-8" d="M163.91,25c-.31-2.63-2.18-4.8-4.17-6.55a15.48,15.48,0,0,0-5.61-3.37,7.49,7.49,0,0,0-6.33.77,9.71,9.71,0,0,0-3.08,4.23,13.3,13.3,0,0,0-1.34,6.14,6.62,6.62,0,0,0,3,5.31,5.62,5.62,0,0,1,2.9-1.87A141.29,141.29,0,0,1,163.91,25Z"/><path class="cls-4" d="M147,23.91c.18,0,.3.19.38.34a13.54,13.54,0,0,1,1.17,2.23c-.65.14-1.77.29-2.1-.28C146.27,25.91,146.48,23.88,147,23.91Z"/><path class="cls-4" d="M159.7,22.65c-.13.13-.29-.13-.29-.32V20.16a.33.33,0,0,1,0-.17.28.28,0,0,1,.19-.09c.45,0,.82.34,1.11.7a12,12,0,0,1,1.15,1.91l-2.36-.08"/><path class="cls-1" d="M189.16,58.5a14.18,14.18,0,0,1,1.64-1.35A24.18,24.18,0,0,1,196,55.06c1.73-.66,3.5-1.73,4.17-3.46a8.08,8.08,0,0,0,.32-3.35,3.2,3.2,0,0,0-.24-1.37,2.71,2.71,0,0,0-.88-1c-2.36-1.74-5.51-1.88-8.44-1.7a52.84,52.84,0,0,0-18.64,4.65,1.62,1.62,0,0,0-.78.56,1.56,1.56,0,0,0-.15.77,12.9,12.9,0,0,0,.63,4.86c.77,2,2.35,3.59,3,5.61.3.91.4,1.88.66,2.79a4,4,0,0,0,1.57,2.34c2.2,1.31,4.29-.46,5.81-1.83Z"/><path class="cls-5" d="M160.3,66.23l-2.83-6.18a20.7,20.7,0,0,1-1.07-2.63c-.33-1.08-.48-2.2-.78-3.28-1-3.6-3.5-6.61-4.72-10.14a2,2,0,0,0-.46-.85,1.46,1.46,0,0,0-1.25-.22c-1.7.29-3,1.59-4.6,2.33-.72.33-1.51.56-2.23.94a2.83,2.83,0,0,0-1.5,1.78,4.47,4.47,0,0,0,.61,2.51,28.09,28.09,0,0,1,1.93,11c0,2.52-.08,5.23-1.57,7.25-2.86,3.91-1,9.64,0,14.37.13.56.28,1.16.37,1.75a15.17,15.17,0,0,1,.13,2.23,17.44,17.44,0,0,1-1.19,7.36,8.38,8.38,0,0,0,3.35,1q4.86.61,9.76.87a10.48,10.48,0,0,0,3.06-.16,5.56,5.56,0,0,0,4.12-5.46,6.91,6.91,0,0,0,1.63,4.29c1.12,1.07,2.76,1.23,4.28,1.32a80.43,80.43,0,0,0,12.89-.36,2.4,2.4,0,0,0,.79-.19c.83-.41.87-1.55.81-2.46-.13-1.72-.26-3.43-.46-5.13a20.07,20.07,0,0,1-.27-3.28,19.05,19.05,0,0,1,.56-3.35,37.93,37.93,0,0,0,1.09-10.6,17.62,17.62,0,0,1-.11-2.62c.15-2,1.18-3.84,1-5.8-.56-5.76-1-11.67-2.62-17.22a4.47,4.47,0,0,0-1.52-2.63c-1.12-.75-2.69-.36-4-.83a10,10,0,0,1-1.7-1A7.86,7.86,0,0,0,170,39.6a3.27,3.27,0,0,0-2.79,1,4,4,0,0,0-.56,1.52c-.81,3.41-1.75,6.77-2.7,10.14l-.91,3.22-2.44,8.66C160.38,65.07,160.54,65.35,160.3,66.23Z"/><polyline class="cls-3" points="174.56 32.44 228.53 89.16 228.53 93.97 204.47 93.97 163.91 41.03"/><polygon class="cls-4" points="164.77 40.29 164.94 40.35 204.81 89.16 228.53 89.16 228.53 93.97 204.47 93.97 163.91 41.03 164.77 40.29"/><path class="cls-5" d="M171,41.48c-1.95.86-4.12,2-4.71,4a2.36,2.36,0,0,0-.07,1.12,2.29,2.29,0,0,0,2.05,1.57,6.65,6.65,0,0,0,2.68-.5l11.52-3.8c.31-.1.67-.25.75-.56a1,1,0,0,0-.11-.56c-.36-.87-.71-2.65-1.46-3.25s-1.83-.32-2.57-.31C176.2,39.21,173.52,40.37,171,41.48Z"/><path class="cls-1" d="M181.25,44.32a18.53,18.53,0,0,1,5.72.89,10.17,10.17,0,0,1,4.74,3.23,3.59,3.59,0,0,1,.74,1.47c.12.55,1.94.89,1.53,1.27,1.23-.2.94.38,2.17.37a4.09,4.09,0,0,0,3.32-1.32,4.3,4.3,0,0,0,.66-2.73,4.74,4.74,0,0,0-.37-1.93,5.69,5.69,0,0,0-3-2.34l-10-4.56a6.41,6.41,0,0,0-1.84-.65,6.75,6.75,0,0,0-1.62,0l-4.52.51a6.79,6.79,0,0,1,3.09,6"/><path class="cls-7" d="M144.75,157.1s.53,1,2.29.6c3.35-.83,14.05-1,14.05-1s.38,0,.6-.06c1.2-.24.82-.92.82-.92a10.21,10.21,0,0,1,1.38,4.93c.15,2.83-.17,3.51-.74,3.71s-10.62.93-12.8,1.12-5.15.54-5.31-.84c-.1-1-.14-.54-.41-2.69-.13-1.1-.35-4.18-.39-5C144.17,155.86,144.23,156.3,144.75,157.1Z"/><ellipse class="cls-7" cx="42.63" cy="138.09" rx="42.63" ry="40.99"/><path class="cls-7" d="M65.92,154.08a3.23,3.23,0,0,1,2.41,1.06l10.47,11.4A3.28,3.28,0,1,1,74,171L63.5,159.58a3.29,3.29,0,0,1,2.42-5.5m0-3a6.29,6.29,0,0,0-4.63,10.53L71.76,173A6.28,6.28,0,0,0,81,164.51l-10.47-11.4a6.28,6.28,0,0,0-4.62-2Z"/><path class="cls-7" d="M91.75,178.06H90a2,2,0,0,1-2-2v-.78a2,2,0,0,1,2-2h1.79a2,2,0,0,1,2,2v.78A2,2,0,0,1,91.75,178.06ZM90,174.28a1,1,0,0,0-1,1v.78a1,1,0,0,0,1,1h1.79a1,1,0,0,0,1-1v-.78a1,1,0,0,0-1-1Z"/><path class="cls-7" d="M96.5,178.06H94.71a2,2,0,0,1-2-2v-.78a2,2,0,0,1,2-2H96.5a2,2,0,0,1,2,2v.78A2,2,0,0,1,96.5,178.06Zm-1.79-3.78a1,1,0,0,0-1,1v.78a1,1,0,0,0,1,1H96.5a1,1,0,0,0,1-1v-.78a1,1,0,0,0-1-1Z"/><path class="cls-7" d="M101.29,178.42H99.5a2,2,0,0,1-2-2v-.79a2,2,0,0,1,2-2h1.79a2,2,0,0,1,2,2v.79A2,2,0,0,1,101.29,178.42Zm-1.79-3.79a1,1,0,0,0-1,1v.79a1,1,0,0,0,1,1h1.79a1,1,0,0,0,1-1v-.79a1,1,0,0,0-1-1Z"/><path class="cls-7" d="M106.08,178.68h-1.79a2,2,0,0,1-2-2v-.79a2,2,0,0,1,2-2h1.79a2,2,0,0,1,2,2v.79A2,2,0,0,1,106.08,178.68Zm-1.79-3.79a1,1,0,0,0-1,1v.79a1,1,0,0,0,1,1h1.79a1,1,0,0,0,1-1v-.79a1,1,0,0,0-1-1Z"/><path class="cls-7" d="M120.45,178.37h-1.79a2,2,0,0,1-2-2v-.79a2,2,0,0,1,2-2h1.79a2,2,0,0,1,2,2v.79A2,2,0,0,1,120.45,178.37Zm-1.79-3.79a1,1,0,0,0-1,1v.79a1,1,0,0,0,1,1h1.79a1,1,0,0,0,1-1v-.79a1,1,0,0,0-1-1Z"/><path class="cls-7" d="M125.24,178.08h-1.79a2,2,0,0,1-2-2v-.79a2,2,0,0,1,2-2h1.79a2,2,0,0,1,2,2v.79A2,2,0,0,1,125.24,178.08Zm-1.79-3.79a1,1,0,0,0-1,1v.79a1,1,0,0,0,1,1h1.79a1,1,0,0,0,1-1v-.79a1,1,0,0,0-1-1Z"/><path class="cls-7" d="M129.76,175.61H128a2,2,0,0,1-2-2v-.79a2,2,0,0,1,2-2h1.79a2,2,0,0,1,2,2v.79A2,2,0,0,1,129.76,175.61ZM128,171.82a1,1,0,0,0-1,1v.79a1,1,0,0,0,1,1h1.79a1,1,0,0,0,1-1v-.79a1,1,0,0,0-1-1Z"/><path class="cls-7" d="M133.43,172.45h-1.78a2,2,0,0,1-2-2v-.78a2,2,0,0,1,2-2h1.78a2,2,0,0,1,2,2v.78A2,2,0,0,1,133.43,172.45Zm-1.78-3.78a1,1,0,0,0-1,1v.78a1,1,0,0,0,1,1h1.78a1,1,0,0,0,1-1v-.78a1,1,0,0,0-1-1Z"/><path class="cls-7" d="M136.33,168.67h-1.79a2,2,0,0,1-2-2v-.79a2,2,0,0,1,2-2h1.79a2,2,0,0,1,2,2v.79A2,2,0,0,1,136.33,168.67Zm-1.79-3.79a1,1,0,0,0-1,1v.79a1,1,0,0,0,1,1h1.79a1,1,0,0,0,1-1v-.79a1,1,0,0,0-1-1Z"/><path class="cls-7" d="M140.14,165.61h-1.79a2,2,0,0,1-2-2v-.79a2,2,0,0,1,2-2h1.79a2,2,0,0,1,2,2v.79A2,2,0,0,1,140.14,165.61Zm-1.79-3.79a1,1,0,0,0-1,1v.79a1,1,0,0,0,1,1h1.79a1,1,0,0,0,1-1v-.79a1,1,0,0,0-1-1Z"/><path class="cls-7" d="M87,177.38H85.17a2,2,0,0,1-2-2v-.78a2,2,0,0,1,2-2H87a2,2,0,0,1,2,2v.78A2,2,0,0,1,87,177.38Zm-1.79-3.78a1,1,0,0,0-1,1v.78a1,1,0,0,0,1,1H87a1,1,0,0,0,1-1v-.78a1,1,0,0,0-1-1Z"/><path class="cls-7" d="M82.17,175.89H80.38a2,2,0,0,1-2-2v-.79a2,2,0,0,1,2-2h1.79a2,2,0,0,1,2,2v.79A2,2,0,0,1,82.17,175.89Zm-1.79-3.79a1,1,0,0,0-1,1v.79a1,1,0,0,0,1,1h1.79a1,1,0,0,0,1-1v-.79a1,1,0,0,0-1-1Z"/><path class="cls-7" d="M110.87,177.93h-1.79a2,2,0,0,1-2-2v-.79a2,2,0,0,1,2-2h1.79a2,2,0,0,1,2,2v.79A2,2,0,0,1,110.87,177.93Zm-1.79-3.79a1,1,0,0,0-1,1v.79a1,1,0,0,0,1,1h1.79a1,1,0,0,0,1-1v-.79a1,1,0,0,0-1-1Z"/><path class="cls-7" d="M115.66,178.08h-1.79a2,2,0,0,1-2-2v-.79a2,2,0,0,1,2-2h1.79a2,2,0,0,1,2,2v.79A2,2,0,0,1,115.66,178.08Zm-1.79-3.79a1,1,0,0,0-1,1v.79a1,1,0,0,0,1,1h1.79a1,1,0,0,0,1-1v-.79a1,1,0,0,0-1-1Z"/><path class="cls-7" d="M144.93,163.88h-1.79a2,2,0,0,1-2-2v-.79a2,2,0,0,1,2-2h1.79a2,2,0,0,1,2,2v.79A2,2,0,0,1,144.93,163.88Zm-1.79-3.79a1,1,0,0,0-1,1v.79a1,1,0,0,0,1,1h1.79a1,1,0,0,0,1-1v-.79a1,1,0,0,0-1-1Z"/><path class="cls-7" d="M227,155.28a1.18,1.18,0,0,0,1.27.43c1.41-.21,9.52-.73,10.91-1.34.49-.22.42-.29.49.24a45.78,45.78,0,0,0,1.83,5.76s-8.34,1.95-11.24,2c-1.28,0-.49-.53-1-2.15A12.87,12.87,0,0,0,227,156C226.77,155.79,227,155.28,227,155.28Z"/><path class="cls-7" d="M210.19,175.85H208.4a2,2,0,0,1-2-2v-.79a2,2,0,0,1,2-2h1.79a2,2,0,0,1,2,2v.79A2,2,0,0,1,210.19,175.85Zm-1.79-3.79a1,1,0,0,0-1,1v.79a1,1,0,0,0,1,1h1.79a1,1,0,0,0,1-1v-.79a1,1,0,0,0-1-1Z"/><path class="cls-7" d="M214.71,173.38h-1.79a2,2,0,0,1-2-2v-.78a2,2,0,0,1,2-2h1.79a2,2,0,0,1,2,2v.78A2,2,0,0,1,214.71,173.38Zm-1.79-3.78a1,1,0,0,0-1,1v.78a1,1,0,0,0,1,1h1.79a1,1,0,0,0,1-1v-.78a1,1,0,0,0-1-1Z"/><path class="cls-7" d="M218.38,170.23h-1.79a2,2,0,0,1-2-2v-.79a2,2,0,0,1,2-2h1.79a2,2,0,0,1,2,2v.79A2,2,0,0,1,218.38,170.23Zm-1.79-3.79a1,1,0,0,0-1,1v.79a1,1,0,0,0,1,1h1.79a1,1,0,0,0,1-1v-.79a1,1,0,0,0-1-1Z"/><path class="cls-7" d="M221.28,166.44h-1.79a2,2,0,0,1-2-2v-.79a2,2,0,0,1,2-2h1.79a2,2,0,0,1,2,2v.79A2,2,0,0,1,221.28,166.44Zm-1.79-3.79a1,1,0,0,0-1,1v.79a1,1,0,0,0,1,1h1.79a1,1,0,0,0,1-1v-.79a1,1,0,0,0-1-1Z"/><path class="cls-7" d="M225.09,163.38H223.3a2,2,0,0,1-2-2v-.78a2,2,0,0,1,2-2h1.79a2,2,0,0,1,2,2v.78A2,2,0,0,1,225.09,163.38Zm-1.79-3.78a1,1,0,0,0-1,1v.78a1,1,0,0,0,1,1h1.79a1,1,0,0,0,1-1v-.78a1,1,0,0,0-1-1Z"/><path class="cls-7" d="M229.88,161.65h-1.79a2,2,0,0,1-2-2v-.78a2,2,0,0,1,2-2h1.79a2,2,0,0,1,2,2v.78A2,2,0,0,1,229.88,161.65Zm-1.79-3.78a1,1,0,0,0-1,1v.78a1,1,0,0,0,1,1h1.79a1,1,0,0,0,1-1v-.78a1,1,0,0,0-1-1Z"/><path class="cls-7" d="M174.31,167.44h-1.79a2,2,0,0,1-2-2v-.79a2,2,0,0,1,2-2h1.79a2,2,0,0,1,2,2v.79A2,2,0,0,1,174.31,167.44Zm-1.79-3.79a1,1,0,0,0-1,1v.79a1,1,0,0,0,1,1h1.79a1,1,0,0,0,1-1v-.79a1,1,0,0,0-1-1Z"/><path class="cls-7" d="M177.58,170.84h-1.79a2,2,0,0,1-2-2v-.79a2,2,0,0,1,2-2h1.79a2,2,0,0,1,2,2v.79A2,2,0,0,1,177.58,170.84Zm-1.79-3.79a1,1,0,0,0-1,1v.79a1,1,0,0,0,1,1h1.79a1,1,0,0,0,1-1v-.79a1,1,0,0,0-1-1Z"/><path class="cls-7" d="M181.58,173.71h-1.79a2,2,0,0,1-2-2v-.79a2,2,0,0,1,2-2h1.79a2,2,0,0,1,2,2v.79A2,2,0,0,1,181.58,173.71Zm-1.79-3.79a1,1,0,0,0-1,1v.79a1,1,0,0,0,1,1h1.79a1,1,0,0,0,1-1v-.79a1,1,0,0,0-1-1Z"/><path class="cls-7" d="M186.16,175.74h-1.79a2,2,0,0,1-2-2V173a2,2,0,0,1,2-2h1.79a2,2,0,0,1,2,2v.78A2,2,0,0,1,186.16,175.74ZM184.37,172a1,1,0,0,0-1,1v.78a1,1,0,0,0,1,1h1.79a1,1,0,0,0,1-1V173a1,1,0,0,0-1-1Z"/><path class="cls-7" d="M191,175.25h-1.79a2,2,0,0,1-2-2v-.79a2,2,0,0,1,2-2H191a2,2,0,0,1,2,2v.79A2,2,0,0,1,191,175.25Zm-1.79-3.79a1,1,0,0,0-1,1v.79a1,1,0,0,0,1,1H191a1,1,0,0,0,1-1v-.79a1,1,0,0,0-1-1Z"/><path class="cls-7" d="M205.4,175.54h-1.79a2,2,0,0,1-2-2v-.79a2,2,0,0,1,2-2h1.79a2,2,0,0,1,2,2v.79A2,2,0,0,1,205.4,175.54Zm-1.79-3.79a1,1,0,0,0-1,1v.79a1,1,0,0,0,1,1h1.79a1,1,0,0,0,1-1v-.79a1,1,0,0,0-1-1Z"/><path class="cls-7" d="M195.82,175.1H194a2,2,0,0,1-2-2v-.79a2,2,0,0,1,2-2h1.79a2,2,0,0,1,2,2v.79A2,2,0,0,1,195.82,175.1ZM194,171.31a1,1,0,0,0-1,1v.79a1,1,0,0,0,1,1h1.79a1,1,0,0,0,1-1v-.79a1,1,0,0,0-1-1Z"/><path class="cls-7" d="M200.61,175.25h-1.79a2,2,0,0,1-2-2v-.79a2,2,0,0,1,2-2h1.79a2,2,0,0,1,2,2v.79A2,2,0,0,1,200.61,175.25Zm-1.79-3.79a1,1,0,0,0-1,1v.79a1,1,0,0,0,1,1h1.79a1,1,0,0,0,1-1v-.79a1,1,0,0,0-1-1Z"/><path class="cls-7" d="M170.41,164.4h-1.79a2,2,0,0,1-2-2v-.79a2,2,0,0,1,2-2h1.79a2,2,0,0,1,2,2v.79A2,2,0,0,1,170.41,164.4Zm-1.79-3.79a1,1,0,0,0-1,1v.79a1,1,0,0,0,1,1h1.79a1,1,0,0,0,1-1v-.79a1,1,0,0,0-1-1Z"/><path class="cls-7" d="M165.62,162.65h-1.79a2,2,0,0,1-2-2v-.78a2,2,0,0,1,2-2h1.79a2,2,0,0,1,2,2v.78A2,2,0,0,1,165.62,162.65Zm-1.79-3.78a1,1,0,0,0-1,1v.78a1,1,0,0,0,1,1h1.79a1,1,0,0,0,1-1v-.78a1,1,0,0,0-1-1Z"/></g></g></svg>