<svg xmlns="http://www.w3.org/2000/svg" viewBox="0 0 242.18 230.08"><defs><style>.cls-1{fill:#d99c8a;}.cls-2{isolation:isolate;opacity:0.1;}.cls-3{fill:#960f30;}.cls-4{fill:#720d2e;}.cls-5{fill:#1c0212;}.cls-6{fill:#e6e6e6;}.cls-7{fill:#290216;}.cls-8{opacity:0.05;}.cls-9{fill:#915762;}.cls-10{fill:#590725;}.cls-11{fill:#cb8683;}.cls-12{fill:#f2f2f2;}</style></defs><g id="Laag_2" data-name="Laag 2"><g id="Laag_1-2" data-name="Laag 1"><g id="Group_40" data-name="Group 40"><path id="Path_453" data-name="Path 453" class="cls-1" d="M130.83,78l-7.76-.83.44-4.51h7.24Z"/><path id="Path_454" data-name="Path 454" class="cls-2" d="M130.83,78l-7.76-.83.44-4.51h7.24Z"/><path id="Path_455" data-name="Path 455" class="cls-3" d="M194,10.32a8.81,8.81,0,0,0-2-4.14,16.66,16.66,0,0,0-23.49-1.52h0l-.14.13a17,17,0,0,0-27.32,5.26,15.86,15.86,0,0,0,.71,14.36,16.65,16.65,0,0,0,2,2.74c.77.88,21.49,23.93,21.7,24.16a.27.27,0,0,0,.2.09h.07a.31.31,0,0,0,.16-.12l.11-.18.13-.22,1.92-3.2a103.7,103.7,0,0,1,21.3-24.92,14.3,14.3,0,0,0,4.83-9.58A11.33,11.33,0,0,0,194,10.32Z"/><path id="Path_456" data-name="Path 456" class="cls-1" d="M120.31,106.12l-1.08,2.51,1.76,8.9,18-2.5-.14-10.85-.36-2.38Z"/><path id="Path_457" data-name="Path 457" class="cls-1" d="M111,221.46h4l1.89-15.28H111Z"/><path id="Path_458" data-name="Path 458" class="cls-4" d="M122.08,227l-6-5.91v-2.71l-.7,0-4.34.26-1.3.08-.8,11.33h2.85l.5-5.13,1.3,5.13h7.54a1.69,1.69,0,0,0,1.69-1.69,1.73,1.73,0,0,0-.73-1.4Z"/><path id="Path_459" data-name="Path 459" class="cls-1" d="M133.29,221.46h4l2.33-22.5-7.45-.44Z"/><path id="Path_460" data-name="Path 460" class="cls-4" d="M144.34,227l-6-5.91v-2.71l-.76,0-4.41.27-1.16.07-.8,11.33H134l.5-5.14,1.3,5.14h7.53a1.7,1.7,0,0,0,1.7-1.7,1.72,1.72,0,0,0-.73-1.39Z"/><path id="Path_461" data-name="Path 461" class="cls-5" d="M110.12,183.44l.39-12.69.71-23.18h0a30.06,30.06,0,0,1,9.56-27.19,0,0,0,0,0,0,0l-.12-3.54s0,0,0,0L138.91,115s0,4.66,0,0l0,5.3h0L142.25,131a14.65,14.65,0,0,1,.56,2.71h0c2.05,20-4,81.68-4.4,81.54l-5.75.25c0-.42-2-32.54-2-32.54l.16-4.38h0l-.32-5L129,151.57s0,0,0,0a0,0,0,0,0,0,0l-5.5,27.23-7.11,36.63h-5.87"/><path id="Path_462" data-name="Path 462" class="cls-5" d="M116.2,63.84a9.69,9.69,0,1,0,16.67-6.73l-.05,0-.23-.24h0a2,2,0,0,1-.31-.27c-1.31-1.83-2.79-3.36-6.39-2.4C120.72,55.52,116.2,58.48,116.2,63.84Z"/><path id="Path_463" data-name="Path 463" class="cls-1" d="M169.45,59.69a3.55,3.55,0,0,1-3.4,3.69,4.42,4.42,0,0,1-.63,0l-25,20.51-3.81-6.71L162.38,59.1a3.57,3.57,0,0,1,7.06.59Z"/><path id="Path_464" data-name="Path 464" class="cls-4" d="M129.87,89.92s.81,1.69,4-.71c2.54-1.92,14.64-10.21,17.33-13.71a2.81,2.81,0,0,0,3.33-.8l-6.62-6.37c-2.07.14-2.1,1.53-1.91,2.32l-5.32,2.11-13.84,8,2.44,8Z"/><circle id="Ellipse_91" data-name="Ellipse 91" class="cls-1" cx="128.28" cy="66.08" r="8.13"/><path id="Path_465" data-name="Path 465" class="cls-4" d="M139.55,115.63c.84-16.12,3.3-17.87,2.69-21.82a8,8,0,0,0-3.3-4.94l-1.1-2.54-1.62-3.76-4.73-2.82-.3-1.34-.11-1-8.33-.72-.6,2.17h0a10.58,10.58,0,0,0-4.07,1.91,10.73,10.73,0,0,0-4.25,8.57l0,5.27v1.49l4.08,11,.15.43,2.39,9.37"/><path id="Path_466" data-name="Path 466" class="cls-6" d="M138.72,112.23l0,0"/><path id="Path_467" data-name="Path 467" class="cls-5" d="M119.77,68.21l.23,0,3.8-.68.11-2.86,1.53,2.57a12.82,12.82,0,0,0,9.84-1,27.21,27.21,0,0,0,2.95-1.62c.31-4.85-1.65-7.95-5.29-7.62-.14,0-.23-.13-.35-.19h0l-.6-.26a9,9,0,0,0-9.4,1.82A10.74,10.74,0,0,0,119.77,68.21Z"/><path id="Path_468" data-name="Path 468" class="cls-5" d="M125.07,54.38a1.52,1.52,0,0,1-1.25,1.07c-1.09,1.35-2.34,2.78-4,3a1.94,1.94,0,0,1-1.43-.24l-.14-.12a1,1,0,0,1-.07-1.35l.11-.1c-2.15.85-3.41,3.18-3.73,5.47a26.27,26.27,0,0,0,.41,6.91,13.36,13.36,0,0,1-.48,6.84,8.7,8.7,0,0,1-6.19,4.9c-.24,0-.47.1-.72.13a7.36,7.36,0,0,0-1.18-3,6.73,6.73,0,0,1-.28,3.15,12.55,12.55,0,0,1-5.75-1.49,18.78,18.78,0,0,1-6.09-5.4c2.84,2,6.77,2.77,9.86,1.18,2.77-1.43,4.4-4.44,5.12-7.47s-2.29-6.75-2-9.84,4.07-5.72,6.11-8.07a6.35,6.35,0,0,1,5.21-2.42,4.67,4.67,0,0,1,4.21,5.1,5.07,5.07,0,0,1-.11.68,1.44,1.44,0,0,1,2-.17,1.37,1.37,0,0,1,.35.45A1.19,1.19,0,0,1,125.07,54.38Z"/><path id="Path_469" data-name="Path 469" class="cls-5" d="M169.59,55.46c-.08-.52.49-.9.71-1.39a2.35,2.35,0,0,0,0-1.34,3.13,3.13,0,0,0-.7-1.64,2.8,2.8,0,0,0-1.54-.65,13.38,13.38,0,0,0-4.19-.07l1.06.06a5.7,5.7,0,0,0-2,.23A2,2,0,0,0,161.64,52a1.24,1.24,0,0,0,1,1.47h0a1.28,1.28,0,0,0-.52,2.5c-.16.42-.6.61-1,.82s-.8.56-.73,1,.86.69,1.43.67l6.31-.28a3.31,3.31,0,0,0,1.58-.33,1.15,1.15,0,0,0,.58-1.36C170.09,56.12,169.65,55.88,169.59,55.46Z"/><path id="Path_470" data-name="Path 470" class="cls-7" d="M96.42,111.65c-.87,3.81-1.28,8.13,1,11.54a8,8,0,0,0,4.1,3.1,11.57,11.57,0,0,0,5.23.32c3.94-.54,7.45-2.6,11.33-3.4a8.94,8.94,0,0,1,5.17.21c1.24.51,2.54,1.53,2.54,3s-1.29,2.48-2.58,2.94a13.53,13.53,0,0,1-5.3.3,8.43,8.43,0,0,0-5.49,1.27,9.65,9.65,0,0,0-3,4.14,43.62,43.62,0,0,0-1.64,6.08,27.15,27.15,0,0,1-1.94,5.3,27.54,27.54,0,0,1-6.71,8.7,8.89,8.89,0,0,1-4.94,2.51c-1.45.08-3.22-.53-3.78-2a2.87,2.87,0,0,1,1.34-3.41,2.23,2.23,0,0,1,2.91,1.2c0,.1.07.2.1.3a1.93,1.93,0,0,1-.2,1.73c-.38.56.53,1.09.91.53a3.29,3.29,0,0,0-.66-4.09,3,3,0,0,0-4-.3,4,4,0,0,0-1.46,4.11,4.37,4.37,0,0,0,3.63,2.9,7.45,7.45,0,0,0,5.42-1.56,23.88,23.88,0,0,0,4.3-4,28.53,28.53,0,0,0,5.7-10.18c1.15-3.7,1.24-8.6,4.68-11.11,1.77-1.29,3.93-1.14,6-1a10.35,10.35,0,0,0,5.3-.75,4.18,4.18,0,0,0,2.53-3.55,4.32,4.32,0,0,0-2.49-3.68c-3.59-2-7.9-.38-11.44.93s-7.6,2.86-11.36,1.47a7,7,0,0,1-3.9-3.72,11.77,11.77,0,0,1-.84-6.23,28.48,28.48,0,0,1,.58-3.3c.15-.66-.86-.94-1-.28Z"/><path id="Path_471" data-name="Path 471" class="cls-1" d="M113.83,132.85a3.55,3.55,0,0,1,.58-5h0a3.11,3.11,0,0,1,.52-.34l-5.35-15.82L114,94.93l7,3.18-4.34,12.65,3.25,18.4a3.57,3.57,0,0,1-6.06,3.69Z"/><path id="Path_472" data-name="Path 472" class="cls-4" d="M120.27,81.12s-1.65-.89-2.8,2.91c-.92,3-7.18,19.59-7.29,24a2.79,2.79,0,0,0-2.22,2.6l9.1,1.26c1.6-1.33.8-2.47.18-3l3.1-5.25,6.47-14.16-5.32-7.73Z"/><path id="Path_473" data-name="Path 473" class="cls-3" d="M102.86,101a35,35,0,0,1-4.64,9.75c-.51.74-1,1.45-1.59,2.16a11.24,11.24,0,0,0-1.56-2.18c-2.12-2.33-5-3.86-7.72-5.39s-5.56-3.16-7.51-5.64A10,10,0,0,1,78,95.89a6.58,6.58,0,0,1,.81-5.38c1.58-2.27,4.74-3.07,7.43-2.41a12.9,12.9,0,0,1,6.68,4.67c-.57-2.64,2.21-5.18,4.9-5s4.84,2.58,5.56,5.18A14.53,14.53,0,0,1,102.86,101Z"/><path id="Path_474" data-name="Path 474" class="cls-4" d="M154.82,4.55a10.63,10.63,0,0,0-7.08,4.51,10.28,10.28,0,0,0-1.37,8.47A10.45,10.45,0,0,0,148.82,22c.46.5,1.2-.25.74-.74a9.65,9.65,0,0,1-2.46-7.52A9.26,9.26,0,0,1,151,7.19a9.52,9.52,0,0,1,4.06-1.62c.67-.1.38-1.12-.28-1Z"/><g id="Group_38" data-name="Group 38" class="cls-8"><path id="Path_475" data-name="Path 475" d="M190.88,21.14a13.27,13.27,0,0,1-1.57,1.61A103.46,103.46,0,0,0,168,47.66l-1.92,3.2-.13.22a5.33,5.33,0,0,1-1.16-1.21c-1.23-1.79-1.24-4.13-.94-6.28a26.16,26.16,0,0,1,27-22.46Z"/></g><g id="Group_39" data-name="Group 39" class="cls-8"><path id="Path_476" data-name="Path 476" d="M98.22,110.72c-.51.74-1,1.45-1.59,2.15a12.38,12.38,0,0,0-1.56-2.18c-2.12-2.33-5-3.85-7.72-5.38s-5.56-3.17-7.51-5.64A10.13,10.13,0,0,1,78,95.88a26.59,26.59,0,0,1,16.09,8.54A25.78,25.78,0,0,1,98.22,110.72Z"/></g><circle id="Ellipse_92" data-name="Ellipse 92" class="cls-4" cx="165.41" cy="49.61" r="1.4"/></g><g id="Group_26" data-name="Group 26"><path id="Path_329" data-name="Path 329" class="cls-9" d="M56.49,70.62h5.65v6.21h-6Z"/><path id="Path_330" data-name="Path 330" class="cls-2" d="M56.49,70.62h5.65v6.21h-6Z"/><path id="Path_331" data-name="Path 331" class="cls-10" d="M55.09,56c-1.19,2.55.07,5.54,1.58,7.91s5,4.51,5,7.31A30.23,30.23,0,0,0,63,80.7c.29,1-4.27,3.2-3.84,4.16,1.43,3.18.77,6.85,1,10.33a4.14,4.14,0,0,0,.48,2c.85,1.41,2.8,1.54,4.45,1.54l5.3-.06a4,4,0,0,1,1.82.27c1.27.61,1.51,2.29,2.22,3.51a5.94,5.94,0,0,0,4,2.65,14.44,14.44,0,0,0,5-.08c2.25-.36,4.59-.93,6.23-2.5-3.11-.56-6.78-1.55-7.8-4.55a11.77,11.77,0,0,0,7.58-2.52c-4.48-1.62-9.24-3.46-12-7.35-3.07-4.39-2.73-10.52-.35-15.32,1.22-2.46,3-5.09,2.18-7.72-.74-2.43-3.35-3.67-5.66-4.73s-4.87-2.56-5.24-5.07a9.74,9.74,0,0,0-.28-2.09C66.52,49,56.43,53.15,55.09,56Z"/><path id="Path_332" data-name="Path 332" class="cls-9" d="M41.67,220.41H36.61L34.2,200.89h7.47Z"/><path id="Path_333" data-name="Path 333" class="cls-7" d="M44.39,230H40.8l-.64-3.39L38.52,230H29a2.14,2.14,0,0,1-1.22-3.9l7.6-5.25v-3.43l8,.48Z"/><path id="Path_334" data-name="Path 334" class="cls-9" d="M42.69,107l-.5,2.36.21,10.34,17.24,2.21L60,105.66l-1.8-3Z"/><path id="Path_335" data-name="Path 335" class="cls-9" d="M67.28,220.41H62.22l-2.41-19.52h7.47Z"/><path id="Path_336" data-name="Path 336" class="cls-5" d="M67.48,203.61l-7.69.77,0-.33-4.08-20.68-1-2.5-6-28.32-3.09,7.07s.24,7.5-.41,8.26c0,0-1,7.25-2.5,7.52h0a53.38,53.38,0,0,1,.55,25.19l-.83,3.76-7,.1c-2.29-.36-1.41-12.51-4.41-23.76C30.68,179.27,33,124,42.37,118.35l17.42.43L60,119c.08.09,7.56,9.65,7.11,19.82l-2,20.79.4,3.51L67,172.62l1.16,4.4h0a50.48,50.48,0,0,1,.61,17.8Z"/><path id="Path_337" data-name="Path 337" class="cls-7" d="M70,230H66.42l-.65-3.39L64.13,230H54.61a2.14,2.14,0,0,1-1.22-3.9L61,220.86v-3.43l8,.48Z"/><path id="b0ed392d-e28e-41ab-913e-3eea91058667-1240" class="cls-9" d="M67.61,62.79A8,8,0,1,1,64,57.89a7.93,7.93,0,0,1,3.64,4.9Z"/><path id="f63de286-de7c-4407-a1c4-23ed0a8d5112-1241" class="cls-10" d="M49.82,61.43a13.78,13.78,0,0,1,1.69-4c.75-.86,1.28-1.82,4.29-2.72,1.14-.34,1.38-.09,2.44-.62,2.39-1.19,3.91-2.23,6.32-1.89l-3.51,3.45.05,0h0a8.56,8.56,0,0,1,6.09,10.45l0,.19-3.33-.86L63.53,62l-1.07,3.12-1.72-.45-.15-1.75-.54,1.57c-3.26,1.27-6.16,0-10.28-2.89Z"/><path id="Path_338" data-name="Path 338" class="cls-9" d="M12.22,109.72a3.37,3.37,0,0,0,6.58,1.19,3.73,3.73,0,0,0,.12-.58l25.89-7.62-4.42-4.33-24.62,8.17h0a3.37,3.37,0,0,0-3.55,3.17Z"/><path id="Path_339" data-name="Path 339" class="cls-7" d="M56.17,83.08a5,5,0,0,1,3.9,5.6c-.33,4.88-11.29,15.5-13,17.26s-18,1.89-18,1.89l-4.84-4.7c6.21-2.86,11.8-4.93,15.26-4.3Z"/><path id="Path_340" data-name="Path 340" class="cls-7" d="M62.16,75.68l-6.59-.39a1.33,1.33,0,0,0-1.31.83L52.4,80.63,44.66,87s-4.2,3.27-3.51,8.49c.66,5-.65,17.12-.65,17.12s17.18,1.15,17.55.77c.73-.76,1.61-4.64,1.61-4.64l6-22.15a8.21,8.21,0,0,0-1.17-6.9,2.49,2.49,0,0,0-1.27-1.1C62.33,78.41,62.82,76.34,62.16,75.68Z"/><path id="Path_341" data-name="Path 341" class="cls-5" d="M45.22,203a3.1,3.1,0,0,1-3.09,3.09H35.05A3.1,3.1,0,0,1,32,203h0a3.1,3.1,0,0,1,3.1-3.1l8.84-2.21c1.71,0,1.33,3.59,1.33,5.3h0Z"/><path id="Path_342" data-name="Path 342" class="cls-5" d="M67.33,206H60.25A3.09,3.09,0,0,1,57.16,203h0c0-1.71-.39-5.31,1.32-5.31l8.84,2.21h0a3.1,3.1,0,0,1,3.09,3.1h0A3.1,3.1,0,0,1,67.33,206Z"/><path id="Path_343" data-name="Path 343" class="cls-10" d="M68,59.09l-8.18-1,2.07,17.4L71.1,81Z"/><rect id="Rectangle_27" data-name="Rectangle 27" class="cls-4" x="13.5" y="105.44" width="29.36" height="48.29" transform="translate(-93.71 77.35) rotate(-54.53)"/><path id="Path_344" data-name="Path 344" class="cls-9" d="M48.41,130.43a3.37,3.37,0,0,0,5.8-3.32,3.25,3.25,0,0,0-.28-.52l14.91-22.5-6.16-.47-13.6,22.09a3.36,3.36,0,0,0-.67,4.71Z"/><path id="Path_345" data-name="Path 345" class="cls-7" d="M61,81.71a5,5,0,0,1,6.71,1.2c3.22,3.69,3,19,3,21.41,0,.77-1.1,2.44-2.63,4.36-.69.86-1.47,1.78-2.26,2.68-.46.53-.06,1.64-.52,2.14s-1.78.42-2.22.9c-2.07,2.24-3.75,3.94-3.75,3.94l-6.75.08c-.07-5,3.36-9.49,7.77-13.81Z"/></g><g id="Group_96" data-name="Group 96"><path id="Path_782" data-name="Path 782" class="cls-11" d="M179.25,117.57l-9.81-6.73a3.55,3.55,0,0,0-3.7-2.19,2.88,2.88,0,0,0-1.73,3.41,2.42,2.42,0,0,0,2.36,1.79l9.86,6.86Z"/><path id="Path_783" data-name="Path 783" class="cls-5" d="M187.47,91c-.87,2.35-.68,12.74-.44,15.08.18,1.66.49,8.7,0,8.57s1.53,1.93.27,1.07c-3.07-2.07-14.61-3.51-14.61-3.51l-2.86,4.54s10.91,7.09,16.49,10.28,9.81-11,9.81-11c9-4.91,4.37-12.2,3-18.3C199.13,97.77,188.29,88.8,187.47,91Z"/><path id="Path_784" data-name="Path 784" class="cls-11" d="M203.65,226.2H200l-1.74-14.09h5.4Z"/><path id="Path_785" data-name="Path 785" class="cls-5" d="M203.77,230H192.54v-.14a4.37,4.37,0,0,1,4.37-4.37h0l2.06-1.56,3.82,1.56h1Z"/><path id="Path_786" data-name="Path 786" class="cls-11" d="M239.74,214.56l-2.89,2.24L229,209l4.26-3.31Z"/><path id="Path_787" data-name="Path 787" class="cls-5" d="M242.18,217.5l-8.88,6.89-.08-.11a4.38,4.38,0,0,1,.77-6.14h0l.66-2.49,4-1.11.78-.6Z"/><path id="Path_788" data-name="Path 788" class="cls-7" d="M225.66,147.73s-.25,3.82-.57,9.27c-.05.9.26,1.87.2,2.84,0,.65-.43,1.27-.46,1.95s0,1.44,0,2.17-.2,1.44-.24,2.17c-.4,7.91-2.59,17.38-1.13,20,.72,1.31,11.54,20.09,11.54,20.09s-4.53,6.1-5.7,4.4c-2.53-3.37-16.81-19.18-16.81-22.2s-3.44-25.61-3.44-25.61l-2.4,13.37-1.1,2.65-.12,1.65-.25,2,0,2.08-.7,3.86s-.17,18.63,0,31c-1.17.84-5.93,2.28-6.6.77-1.08-2.24-3.24-31.37-3.24-31.37s-.69-13.68-1.46-26.4c0-.74-.56-1.63-.6-2.35s.28-1.94.24-2.76-.46-1.6-.5-2.5c-.31-6.95-.36-12.42.2-13.26,1.68-2.51,3.19-4.52,3.19-4.52s24-5.87,30,1.67Z"/><path id="Path_789" data-name="Path 789" class="cls-3" d="M204.1,75.78l5.78-.32,4.35,2.38,12.12,68.6S214,152.16,206.29,150a62.09,62.09,0,0,0-15.76-2.07l5.89-65.54L201.17,78Z"/><path id="Path_790" data-name="Path 790" class="cls-5" d="M213.74,77.24l8.95,3.65a6.1,6.1,0,0,1,5.7,5l-.6,17.67L224.57,112l2,16.47a9,9,0,0,1-.89,5.09h0a6.36,6.36,0,0,1,.29,4.19,14.82,14.82,0,0,0,.44,7.5h-1.1l-2.19-.36s-4.83,1.67-5.82-4.34c-2.59-15.76-4.05-8.82-4.05-8.82L212,82.81Z"/><path id="Path_791" data-name="Path 791" class="cls-5" d="M201.54,77.25,193.48,85c-2.83.14-5.49,3.19-6,6l3.46,27.18-1.23,7.93a9.48,9.48,0,0,0,.5,4.86h0l-.12,2.79.48,2.33h0a14.87,14.87,0,0,0,0,6.57l.34,1.47,5.48-1.47,0-3.9,1.46-53Z"/><path id="Path_792" data-name="Path 792" class="cls-3" d="M219.47,77.25a1.63,1.63,0,0,0-2.2-.53,1.91,1.91,0,0,0-.71-2.53,5.19,5.19,0,0,0-3.27-.38l-9.13,1a8.11,8.11,0,0,0-3.06.72,2.85,2.85,0,0,0-1.66,2.5,5.13,5.13,0,0,0-2.23-.29,1.78,1.78,0,0,0-1.57,1.42c-.13,1.21,1.31,1.91,2.48,2.24l6.53,1.85-.67.14a27.75,27.75,0,0,0,12.59-1.82A6,6,0,0,0,219.05,80,2.42,2.42,0,0,0,219.47,77.25Z"/><path id="Path_797" data-name="Path 797" class="cls-11" d="M169.45,112.15a3.06,3.06,0,0,0-2.54-3.51,2.56,2.56,0,0,0-2.9,3.44,2.41,2.41,0,0,0,2.36,1.79Z"/><path id="Path_798" data-name="Path 798" class="cls-11" d="M212.12,77.67s-3.34,3-5.13,2.93S202.32,78,202.32,78V70.42l9.49-.32Z"/><path id="Path_249" data-name="Path 249" class="cls-2" d="M212.58,70.52a9.58,9.58,0,0,1-9.53,2c-.29-.41.11-.57-.13-1-1.15-2.19-1.4-3.69.38-4.34a35.55,35.55,0,0,1,6.46-1.93,4.4,4.4,0,0,1,2,0C213.11,65.67,212.39,68.26,212.58,70.52Z"/><circle id="Ellipse_134" data-name="Ellipse 134" class="cls-11" cx="205.34" cy="64.54" r="9.8"/><path id="Path_799" data-name="Path 799" class="cls-5" d="M215.26,70.85l-3.42.92a18.34,18.34,0,0,1,.68-2.72,2.78,2.78,0,0,0-.52-2.63c-.68-.65-2.09-.4-2.2.53l-1.73-3.69c-1.64,3.39-5,.5-8.68,1.35-1.87.45-4.21.26-5.2-1.4a6,6,0,0,0,1.39-1.66,5.53,5.53,0,0,1-1.76.23,3.65,3.65,0,0,1,1.63-3c.53-.35-.78-1.58-.32-2,.94-.88,1.58-.28,2.14-1.45A4.29,4.29,0,0,1,201.14,53c1.6,0,4.48,0,5.1,1.5a6.16,6.16,0,0,1,6.69.43c1.61,1.13,3.44,4.54,3.84,6.46S216.28,69.18,215.26,70.85Z"/><rect id="Rectangle_27-2" data-name="Rectangle 27" class="cls-4" x="174.55" y="94.48" width="32.83" height="53.99" transform="translate(8.12 254.87) rotate(-68.58)"/><path id="Path_795" data-name="Path 795" class="cls-11" d="M223.82,118.92l-10.15,9.74a2.51,2.51,0,0,0-2.19,2.8.68.68,0,0,0,0,.14,2.81,2.81,0,0,0,3.13,2.12,2.38,2.38,0,0,0,1.86-1.81l14.2-10.31Z"/><path id="Path_796" data-name="Path 796" class="cls-5" d="M225.29,89.67c-2,1.29,5.24,19.44,4.14,20.68a4.81,4.81,0,0,0-.89,2c-.16.48-.16,1-1.55,2-1.23.9-8.35,8.72-8.35,8.72l2.92,6.38s14-10.76,17.49-16.14,1.23-7.19,1.23-7.19c-4.37-9.27-8.45-24.4-14.62-23.39C225.66,82.73,227.3,88.39,225.29,89.67Z"/><path class="cls-12" d="M170.24,110l3.1-7.72,2.17.87-3.11,7.72Zm2.86-2,.72-1.8,3.79,1.53-.72,1.8Zm1.27-3.17.73-1.8,4,1.59-.72,1.8Z"/><path class="cls-12" d="M180.58,114.35a5,5,0,0,1-1.55-1,4.4,4.4,0,0,1-1-1.38,4,4,0,0,1-.37-1.64,4.2,4.2,0,0,1,.32-1.72,4.44,4.44,0,0,1,.95-1.47,4.14,4.14,0,0,1,1.39-.91,4.19,4.19,0,0,1,1.66-.31,5.13,5.13,0,0,1,1.8.37,5,5,0,0,1,1.55,1,4.25,4.25,0,0,1,1,1.37,4.12,4.12,0,0,1,.36,1.63,4.41,4.41,0,0,1-.33,1.72,4.34,4.34,0,0,1-1,1.46,4,4,0,0,1-1.39.93,4.2,4.2,0,0,1-1.66.32A5,5,0,0,1,180.58,114.35Zm.75-1.92a2.15,2.15,0,0,0,1.15.16,1.82,1.82,0,0,0,1-.46,2.56,2.56,0,0,0,.69-1,2.66,2.66,0,0,0,.21-.92,1.9,1.9,0,0,0-.58-1.49,2.41,2.41,0,0,0-.76-.48,2.28,2.28,0,0,0-1.15-.17,1.94,1.94,0,0,0-1,.46,2.7,2.7,0,0,0-.69,1,2.81,2.81,0,0,0-.21.93,1.89,1.89,0,0,0,.13.83,1.76,1.76,0,0,0,.45.67A2.15,2.15,0,0,0,181.33,112.43Z"/><path class="cls-12" d="M185.7,116.23l3.1-7.72,2.17.87-3.11,7.72Zm3-2.38.6-1.49,1.31.53a1.05,1.05,0,0,0,.77,0,.9.9,0,0,0,.46-1.15,1.06,1.06,0,0,0-.59-.49l-1.31-.52.63-1.57,1.66.67a3.56,3.56,0,0,1,1.29.86,2.68,2.68,0,0,1,.63,1.2,2.28,2.28,0,0,1-.15,1.35,2.2,2.2,0,0,1-.84,1.07,2.4,2.4,0,0,1-1.31.42,3.7,3.7,0,0,1-1.6-.3Zm1.17,4.05-.78-4.14,2.12.36,1.12,4.77Z"/><path class="cls-12" d="M194.09,119.6l6-6.54,2.21.89-.2,8.89-2.25-.91.48-7.42.78.31-4.85,5.67Zm2.43-.53.68-1.69,4.31,1.73-.68,1.69Z"/><path class="cls-12" d="M202.76,123.09l3.1-7.72,2.17.87-3.1,7.72Zm1.77.71.74-1.84,3.61,1.45-.74,1.84Z"/><path class="cls-12" d="M209,125.58l3.11-7.71,2.16.87-3.1,7.72Zm1.77.72.74-1.85,3.61,1.45-.74,1.85Z"/><path class="cls-12" d="M166,123.43l3.11-7.72,2.17.87-3.11,7.72Zm2.85-2,.63-1.57,1.39.57a1.3,1.3,0,0,0,.51.08.86.86,0,0,0,.47-.18,1.08,1.08,0,0,0,.34-.47,1.11,1.11,0,0,0,.08-.58.8.8,0,0,0-.22-.45,1.06,1.06,0,0,0-.42-.29l-1.39-.56.62-1.56,1.82.73a3.21,3.21,0,0,1,1.23.84,2.48,2.48,0,0,1,.62,1.24,3,3,0,0,1-1.09,2.69,2.46,2.46,0,0,1-1.3.48,3.21,3.21,0,0,1-1.47-.24Z"/><path class="cls-12" d="M173,126.25l3.1-7.72,2.17.87-3.11,7.72Zm1.75.7.73-1.8,4.14,1.67-.73,1.8Zm1.23-3.06.71-1.75,3.74,1.5-.71,1.76Zm1.15-2.86.73-1.8,4.07,1.64-.72,1.8Z"/><path class="cls-12" d="M183.58,130.67a4.77,4.77,0,0,1-1.55-1,4.59,4.59,0,0,1-1-1.38,4.2,4.2,0,0,1,0-3.36,4.29,4.29,0,0,1,.95-1.47,4.22,4.22,0,0,1,3.05-1.22,5,5,0,0,1,1.79.37,4.93,4.93,0,0,1,1.56,1,4.25,4.25,0,0,1,1,1.37,4.12,4.12,0,0,1,.36,1.63,4.25,4.25,0,0,1-.34,1.72,4.17,4.17,0,0,1-.94,1.46,4,4,0,0,1-1.39.93,4.23,4.23,0,0,1-1.66.32A5,5,0,0,1,183.58,130.67Zm.74-1.92a2.2,2.2,0,0,0,1.16.16,1.86,1.86,0,0,0,1-.46,2.56,2.56,0,0,0,.69-1,2.66,2.66,0,0,0,.21-.92,2,2,0,0,0-.13-.82,1.89,1.89,0,0,0-.45-.67,2.35,2.35,0,0,0-.76-.48,2.3,2.3,0,0,0-1.16-.17,1.9,1.9,0,0,0-1,.46,2.59,2.59,0,0,0-.69,1,3.12,3.12,0,0,0-.22.93,2,2,0,0,0,.13.83,1.89,1.89,0,0,0,.45.67A2.35,2.35,0,0,0,184.32,128.75Z"/><path class="cls-12" d="M188.69,132.55l3.11-7.72,2.17.87-3.11,7.72Zm2.85-2,.63-1.56,1.39.56a1.15,1.15,0,0,0,.51.09.94.94,0,0,0,.47-.18,1.22,1.22,0,0,0,.34-.47,1.12,1.12,0,0,0,.08-.58.8.8,0,0,0-.22-.45,1,1,0,0,0-.42-.29l-1.39-.56.62-1.57,1.82.74a3.21,3.21,0,0,1,1.23.84,2.48,2.48,0,0,1,.62,1.24,3,3,0,0,1-1.09,2.69,2.55,2.55,0,0,1-1.3.48,3.21,3.21,0,0,1-1.47-.24Z"/><path class="cls-12" d="M195.7,135.36l3.1-7.72,2.17.88-3.11,7.72Zm1.76.71.74-1.84,3.61,1.45-.74,1.85Z"/><path class="cls-12" d="M201.9,137.86l3.1-7.72,2.17.87-3.1,7.72Zm1.75.7.73-1.8,4.14,1.67-.72,1.8Zm1.23-3.05.71-1.76,3.74,1.5-.71,1.76Zm1.16-2.87.72-1.79,4.08,1.63-.73,1.8Z"/></g><path class="cls-12" d="M14.85,116.9l4.09-5.7,1.6,1.15-4.09,5.7Zm2.48-1.61,1-1.33,3.2,2.29-1,1.33Zm1,4.08,4.09-5.7,1.6,1.15-4.09,5.7Z"/><path class="cls-12" d="M23.16,123a3.37,3.37,0,0,1-1.09-1.25,2.73,2.73,0,0,1-.26-1.48,3.07,3.07,0,0,1,.58-1.47l2.43-3.39,1.6,1.15-2.53,3.53a1,1,0,0,0-.21.55,1,1,0,0,0,.11.53,1.37,1.37,0,0,0,.38.42,1.16,1.16,0,0,0,.53.22.88.88,0,0,0,.51-.06,1,1,0,0,0,.44-.38l2.54-3.54L29.8,119l-2.43,3.4a3,3,0,0,1-1.2,1,2.78,2.78,0,0,1-1.48.23A3.25,3.25,0,0,1,23.16,123Z"/><path class="cls-12" d="M26.55,125.3l4.09-5.7,1.16.83-.1,4.62-.51-.36,4.34-1.59,1.16.84-4.08,5.7L31,128.5l2.2-3.07.19.23-2.35.83-1-.74,0-2.49.27.1-2.2,3.07Z"/><path class="cls-12" d="M33.13,130l6.25-4.14L41,127l-2,7.24-1.66-1.2,1.88-6,.58.41-5.11,3.67Zm2.09.05.9-1.25,3.19,2.29-.9,1.24Z"/><path class="cls-12" d="M39.53,134.6l4.09-5.7,1.12.81-.38,1.54-3.23,4.5Zm3.92,2.82-.32-6.53,1.61-1.18.32,6.52Zm0,0,.51-1.56,3.18-4.43,1.6,1.15-4.09,5.7Z"/><path class="cls-12" d="M8.29,126.75l4.09-5.7,1.6,1.14-4.09,5.7Zm2.93-1.35.79-1.1,1,.69a.84.84,0,0,0,.62.2.63.63,0,0,0,.47-.3.67.67,0,0,0,.13-.55.83.83,0,0,0-.38-.52l-1-.69.83-1.15,1.22.87a3,3,0,0,1,.89,1,2.19,2.19,0,0,1,.27,1.1,2.09,2.09,0,0,1-1.29,1.79,2,2,0,0,1-1.15.08,3,3,0,0,1-1.26-.57Zm.15,3.55.19-3.55,1.66.72,0,4.13Z"/><path class="cls-12" d="M13.58,130.54l4.09-5.7,1.6,1.15-4.09,5.7Z"/><path class="cls-12" d="M18.87,134.48a4.28,4.28,0,0,1-1.07-1.1,3.74,3.74,0,0,1-.54-1.33,3.5,3.5,0,0,1,.63-2.74,3.31,3.31,0,0,1,1.08-1,3.59,3.59,0,0,1,1.35-.45,4.27,4.27,0,0,1,1.46.11,4.15,4.15,0,0,1,1.39.67,4.36,4.36,0,0,1,1.22,1.29,3.35,3.35,0,0,1,.5,1.47l-1.86.3a2.59,2.59,0,0,0-.25-.95,1.91,1.91,0,0,0-.65-.72,2,2,0,0,0-.9-.36,1.66,1.66,0,0,0-.93.14,1.87,1.87,0,0,0-.78.66,2,2,0,0,0-.4.95,1.67,1.67,0,0,0,.14.91,2,2,0,0,0,.64.76,1.9,1.9,0,0,0,.85.35,1.32,1.32,0,0,0,.8-.16,2.09,2.09,0,0,0,.69-.62l.59,1.48-2.59-2,.92-1.28,3.16,2.27-.17.24a4.6,4.6,0,0,1-1.63,1.48,3.17,3.17,0,0,1-1.82.35A3.88,3.88,0,0,1,18.87,134.48Z"/><path class="cls-12" d="M22.51,136.94l4.09-5.7,1.6,1.15-4.09,5.7ZM25,135.33l1-1.33,3.2,2.29-1,1.33Zm1,4.08,4.09-5.7,1.6,1.15-4.09,5.7Z"/><path class="cls-12" d="M29.86,142.21l4.09-5.7,1.6,1.15-4.09,5.7Zm1.41-5.56,1-1.36,5,3.6-1,1.36Z"/><path class="cls-12" d="M35.27,146.24a4.35,4.35,0,0,1-1.11-1.12,3.62,3.62,0,0,1-.52-1.39l1.72-.28a3,3,0,0,0,.34.92,2,2,0,0,0,.62.68,1.17,1.17,0,0,0,.57.26.38.38,0,0,0,.36-.15.44.44,0,0,0,.07-.4,1.74,1.74,0,0,0-.23-.48c-.11-.18-.24-.36-.39-.56a6.82,6.82,0,0,1-.39-.64,2.63,2.63,0,0,1-.28-.7,1.63,1.63,0,0,1,0-.76,1.81,1.81,0,0,1,.37-.82A1.95,1.95,0,0,1,38.5,140a3.26,3.26,0,0,1,1.28.59,4.18,4.18,0,0,1,1,1.06,2.92,2.92,0,0,1,.49,1.23l-1.72.28a2.51,2.51,0,0,0-.26-.76,1.57,1.57,0,0,0-.49-.54,1,1,0,0,0-.45-.2.3.3,0,0,0-.32.13.39.39,0,0,0,0,.38,1.61,1.61,0,0,0,.24.47l.38.56a5.16,5.16,0,0,1,.4.63,2.56,2.56,0,0,1,.28.71,1.86,1.86,0,0,1,0,.78,2.11,2.11,0,0,1-.39.84,2,2,0,0,1-1.59.9A3.49,3.49,0,0,1,35.27,146.24Z"/></g></g></svg>