<svg xmlns="http://www.w3.org/2000/svg" xmlns:xlink="http://www.w3.org/1999/xlink" viewBox="0 0 277.3 232.9"><defs><style>.cls-1{fill:#8a1538;}.cls-2{fill:#fff;}.cls-11,.cls-27,.cls-3{fill:none;}.cls-27,.cls-3{stroke:#191919;stroke-linecap:round;stroke-miterlimit:10;}.cls-4{fill:#1c0212;}.cls-5{fill:#f2b8ab;}.cls-6{isolation:isolate;opacity:0.1;}.cls-7{fill:#960f30;}.cls-8{fill:#210416;}.cls-9{fill:#f2f2f2;}.cls-10{fill:#ddd;}.cls-12,.cls-26{fill:#162d95;}.cls-13{fill:url(#Naamloos_verloop_16);}.cls-14{fill:url(#Naamloos_verloop_22);}.cls-15{fill:url(#Naamloos_verloop_22-2);}.cls-16{fill:url(#Naamloos_verloop_16-2);}.cls-17{fill:url(#Naamloos_verloop_22-3);}.cls-18{fill:url(#Naamloos_verloop_16-3);}.cls-19{fill:url(#Naamloos_verloop_22-4);}.cls-20{fill:url(#Naamloos_verloop_16-4);}.cls-21{fill:url(#Naamloos_verloop_22-5);}.cls-22{fill:url(#Naamloos_verloop_16-5);}.cls-23{fill:url(#Naamloos_verloop_22-6);}.cls-24{fill:url(#Naamloos_verloop_10);}.cls-25{fill:url(#Naamloos_verloop_22-7);}.cls-26{fill-rule:evenodd;}.cls-27{stroke-width:0.5px;}.cls-28{fill:#720d2e;}.cls-29{fill:#a0616a;}.cls-30{fill:#cb828c;}.cls-31{fill:#2f2e41;}.cls-32{fill:#1e1c1d;}.cls-33{fill:#d9a2a2;}.cls-34{fill:#290216;}.cls-35{fill:#3f3d56;}</style><linearGradient id="Naamloos_verloop_16" x1="-4699.16" y1="873.94" x2="-4699.15" y2="873.94" gradientTransform="translate(792036.62 364662.66) rotate(35.25) scale(182.41)" gradientUnits="userSpaceOnUse"><stop offset="0" stop-color="#dad7d3"/><stop offset="0.51" stop-color="#fffbf7"/><stop offset="1" stop-color="#eeebe7"/></linearGradient><linearGradient id="Naamloos_verloop_22" x1="-4705.47" y1="926.16" x2="-4705.45" y2="926.16" gradientTransform="translate(-549147.74 -587797.98) rotate(-121.91) scale(167.76)" gradientUnits="userSpaceOnUse"><stop offset="0" stop-color="#791426"/><stop offset="0.53" stop-color="#af1c3b"/><stop offset="1" stop-color="#791426"/></linearGradient><linearGradient id="Naamloos_verloop_22-2" x1="-4705.47" y1="926.16" x2="-4705.45" y2="926.16" xlink:href="#Naamloos_verloop_22"/><linearGradient id="Naamloos_verloop_16-2" x1="-4699.16" y1="873.94" x2="-4699.14" y2="873.94" xlink:href="#Naamloos_verloop_16"/><linearGradient id="Naamloos_verloop_22-3" x1="-4705.47" y1="926.16" x2="-4705.45" y2="926.16" xlink:href="#Naamloos_verloop_22"/><linearGradient id="Naamloos_verloop_16-3" x1="-4699.14" y1="873.94" x2="-4699.14" y2="873.94" xlink:href="#Naamloos_verloop_16"/><linearGradient id="Naamloos_verloop_22-4" x1="-4705.47" y1="926.16" x2="-4705.46" y2="926.16" xlink:href="#Naamloos_verloop_22"/><linearGradient id="Naamloos_verloop_16-4" x1="-4699.15" y1="873.94" x2="-4699.14" y2="873.94" xlink:href="#Naamloos_verloop_16"/><linearGradient id="Naamloos_verloop_22-5" x1="-4705.47" y1="926.16" x2="-4705.46" y2="926.16" xlink:href="#Naamloos_verloop_22"/><linearGradient id="Naamloos_verloop_16-5" x1="-4699.16" y1="873.94" x2="-4699.14" y2="873.94" xlink:href="#Naamloos_verloop_16"/><linearGradient id="Naamloos_verloop_22-6" x1="-4705.47" y1="926.16" x2="-4705.45" y2="926.16" xlink:href="#Naamloos_verloop_22"/><linearGradient id="Naamloos_verloop_10" x1="-4810.18" y1="913.06" x2="-4810.16" y2="913.06" gradientTransform="translate(-178504.77 134712.83) rotate(153.74) scale(45.67)" gradientUnits="userSpaceOnUse"><stop offset="0" stop-color="#fffbf7"/><stop offset="0.53" stop-color="#fffbf7"/><stop offset="1" stop-color="#b4b2af"/></linearGradient><linearGradient id="Naamloos_verloop_22-7" x1="-4690.58" y1="879.85" x2="-4690.57" y2="879.85" gradientTransform="translate(887819.06 8669.23) rotate(11.18) scale(186.03)" xlink:href="#Naamloos_verloop_22"/></defs><g id="Laag_2" data-name="Laag 2"><g id="Laag_1-2" data-name="Laag 1"><path class="cls-1" d="M79.08,35l22-6.32,3.57,12.39-22,6.32"/><path class="cls-2" d="M89,45.56l-6.34,1.82L78.94,35l6.46-1.86,2.72,0L85.8,34.54l2.72,0-2.33,1.41,2.72,0L86.59,37.3l2.72,0L87,38.67l2.72,0-2.32,1.41,2.72,0-2.32,1.42,2.72,0L88.17,42.8l2.72,0-2.32,1.42,2.72,0Z"/><line class="cls-3" x1="78.36" y1="34.41" x2="87.46" y2="66.04"/><path id="Path_838" data-name="Path 838" class="cls-4" d="M56,64.18c0,5.44-2.73,11-8.17,11s-13-4-11.27-12.4c1.07-5.35,4.13-8.46,9.58-8.46A9.87,9.87,0,0,1,56,64.17Z"/><path id="Path_453" data-name="Path 453" class="cls-5" d="M50.71,78.78,43,78l.44-4.51h7.24Z"/><path id="Path_454" data-name="Path 454" class="cls-6" d="M50.71,78.78,43,78l.44-4.51h7.24Z"/><path id="Path_456" data-name="Path 456" class="cls-5" d="M40.19,106.94l-1.08,2.51,1.76,8.9,18-2.5L58.69,105l-.36-2.38Z"/><path id="Path_457" data-name="Path 457" class="cls-5" d="M30.91,222.28h4L36.76,207H30.91Z"/><path id="Path_458" data-name="Path 458" class="cls-7" d="M42,227.81l-6-5.91v-2.71l-.7,0-4.34.26-1.29.08-.8,11.33h2.84l.5-5.13,1.3,5.13H41a1.7,1.7,0,0,0,1-3.09Z"/><path id="Path_459" data-name="Path 459" class="cls-5" d="M53.17,222.28h4l2.33-22.5L52,199.34Z"/><path id="Path_460" data-name="Path 460" class="cls-7" d="M64.22,227.81l-6-5.91v-2.71l-.77,0L53,219.5l-1.16.07-.8,11.33h2.85l.5-5.14,1.3,5.14h7.54A1.7,1.7,0,0,0,65,229.2a1.72,1.72,0,0,0-.73-1.39Z"/><path id="Path_461" data-name="Path 461" class="cls-8" d="M30,184.26l.39-12.69.71-23.18h0c-3.08-20.52,9.13-26.81,9.56-27.19v0l-.12-3.54s0,0,0,0l18.21-1.74s0,4.66,0,0l0,5.3h0l3.33,10.66a14.65,14.65,0,0,1,.56,2.71h0c2,20-3.55,81.85-3.95,81.71l-6.26.08c0-.42-2-32.54-2-32.54l.16-4.38h0l-.32-5L48.9,152.39s0,0,0,0a0,0,0,0,0,0,0l-5.5,27.23-6.57,36.63H30.35"/><path id="Path_463" data-name="Path 463" class="cls-5" d="M89.33,60.51a3.55,3.55,0,0,1-3.4,3.69,4.42,4.42,0,0,1-.63,0l-25,20.51L56.49,78,82.26,59.92a3.57,3.57,0,0,1,7.07.59Z"/><path id="Path_464" data-name="Path 464" class="cls-7" d="M49.75,90.74s.81,1.69,4-.71c2.54-1.92,14.64-10.21,17.33-13.71,1.47.07,1.84-.37,2.63-1.36l-5.92-5.81a2.82,2.82,0,0,0-1.91,2.33l-5.32,2.1-13.84,8,2.44,8Z"/><path id="Path_465" data-name="Path 465" class="cls-7" d="M59.36,111c0-6.7,0-3.22,1.29-7.82.32-1.24,2.09-4.56,1.47-8.51a8,8,0,0,0-3.3-4.94l-1.1-2.54-1.61-3.76-4.74-2.82-.3-1.34-.11-1-8.32-.72L42,79.64h0a10.58,10.58,0,0,0-4.07,1.91,10.73,10.73,0,0,0-4.25,8.57l0,5.27v1.49l4.08,11,.15.43,2.45,6.42"/><circle id="Ellipse_135" data-name="Ellipse 135" class="cls-5" cx="48.16" cy="66.91" r="8.11"/><path id="Path_839" data-name="Path 839" class="cls-4" d="M39.67,69l.22,0,3.79-.67.12-2.86L45.33,68a12.82,12.82,0,0,0,9.82-.94,28,28,0,0,0,2.94-1.62c.66-4-1-7.2-5.28-7.61-.14,0-.23-.12-.35-.18h0l-.6-.26a8.94,8.94,0,0,0-9.38,1.81A10.68,10.68,0,0,0,39.67,69Z"/><path id="Path_840" data-name="Path 840" class="cls-4" d="M42.78,57.47h0a4.84,4.84,0,0,1-.16,1.26l-.06.22h0a5,5,0,0,1-3.07,3.2l-.33.1a4.15,4.15,0,0,1-.7.15,4.73,4.73,0,0,1-.65,0,4.35,4.35,0,0,1-.51,0,4.58,4.58,0,0,1-1.15-.27A.49.49,0,0,1,36,62.1l-.09,0a5,5,0,0,1-2.67-6.51,2.29,2.29,0,0,0,.1-.23h0a5.12,5.12,0,0,1,1-1.37c.9-.89,1.3-3.14,2.66-3.14h.2c.91,0,2.61,2,3.33,2.47a4.81,4.81,0,0,1,1.36,1.3,5,5,0,0,1,.8,1.76A4.67,4.67,0,0,1,42.78,57.47Z"/><path id="Path_841" data-name="Path 841" class="cls-4" d="M36.71,55.74a7.79,7.79,0,0,1-3.07,1.72,12.92,12.92,0,0,0-7.51,9.44A47.81,47.81,0,0,1,25.39,72c-.47,1.64-1.64,3.25-3.32,3.53a6.18,6.18,0,0,1-3.35-.68L17,74.1l1.84-4.62a24.06,24.06,0,0,1-3.41,4L9,70.91c5.2,0,4.31-5,5.48-10.09.64-2.79,6.08-4.67,7.15-7.32a8.1,8.1,0,0,1,14.7-.74C37.43,53.19,37.46,54.85,36.71,55.74Z"/><path class="cls-9" d="M31.92,109.21,34.41,111a20.67,20.67,0,0,1,8.67-1.69,14.89,14.89,0,0,0,.29-2.34,4.87,4.87,0,0,0-.32-2.08,10.34,10.34,0,0,0-9-.44A8.83,8.83,0,0,0,31.92,109.21Z"/><path class="cls-9" d="M43.33,109.36a15.62,15.62,0,0,1,3.32,7.49,4.74,4.74,0,0,0,1.7-1.68,10.31,10.31,0,0,0-4.28-9.69c-.22-.15-.43-.29-.65-.42A10.21,10.21,0,0,1,43.33,109.36Z"/><path class="cls-9" d="M39,120.66c-1.5-.17-2.73-.44-3-.5-.35.31-2.31,2-4,1.85l-.21,0a5.82,5.82,0,0,0,.47.36,10.32,10.32,0,0,0,11.31.39,4.91,4.91,0,0,0,.77-2.3A13.57,13.57,0,0,1,39,120.66Z"/><path class="cls-9" d="M44.51,120.28a4.73,4.73,0,0,1-.58,2.14,10.23,10.23,0,0,0,2.61-2.56,10.41,10.41,0,0,0,1.73-4.14,4,4,0,0,1-1.63,1.42A13.92,13.92,0,0,1,44.51,120.28Z"/><path class="cls-9" d="M35.75,120a26.87,26.87,0,0,1-1.49-8.8l-2.47-1.75c-.54.34-3.85,2.59-4,5.27a10.31,10.31,0,0,0,3.26,6.75,1.77,1.77,0,0,0,.85.3C33.5,121.9,35.38,120.3,35.75,120Z"/><path class="cls-9" d="M29.36,111.1a13.44,13.44,0,0,1,2.3-1.9,8.87,8.87,0,0,1,1.87-4.54,10.29,10.29,0,0,0-5.73,8.85A7,7,0,0,1,29.36,111.1Z"/><path class="cls-9" d="M43.12,109.53a20.24,20.24,0,0,0-8.6,1.67A26.31,26.31,0,0,0,36,119.9c.62.14,5.46,1.18,8.3.23A13.79,13.79,0,0,0,46.41,117,15.09,15.09,0,0,0,43.12,109.53Z"/><path class="cls-10" d="M46.65,116.85a15.62,15.62,0,0,0-3.32-7.49,10.21,10.21,0,0,0,.09-4.3l-.37-.21a4.87,4.87,0,0,1,.32,2.08,14.89,14.89,0,0,1-.29,2.34A20.67,20.67,0,0,0,34.41,111l-2.49-1.75a8.83,8.83,0,0,1,2.14-4.8l-.53.25a8.87,8.87,0,0,0-1.87,4.54,13.44,13.44,0,0,0-2.3,1.9,7,7,0,0,0-1.56,2.41,11.86,11.86,0,0,0,0,1.19c.12-2.68,3.43-4.93,4-5.27l2.47,1.75a26.87,26.87,0,0,0,1.49,8.8c-.37.32-2.25,1.92-3.82,1.77a1.77,1.77,0,0,1-.85-.3,8,8,0,0,0,.61.53l.21,0c1.73.16,3.69-1.54,4-1.85.29.06,1.52.33,3,.5a13.57,13.57,0,0,0,5.28-.24,4.91,4.91,0,0,1-.77,2.3c.15-.09.31-.19.46-.3a4.73,4.73,0,0,0,.58-2.14,13.92,13.92,0,0,0,2.13-3.14,4,4,0,0,0,1.63-1.42c0-.19.06-.37.08-.55A4.74,4.74,0,0,1,46.65,116.85Zm-.24.16a13.79,13.79,0,0,1-2.11,3.12c-2.84,1-7.68-.09-8.3-.23a26.31,26.31,0,0,1-1.48-8.7,20.24,20.24,0,0,1,8.6-1.67A15.09,15.09,0,0,1,46.41,117Z"/><path class="cls-11" d="M39.42,114.63a0,0,0,0,0,0,0s0,0,0,0,0,0,0,0h0v0h0a0,0,0,0,0,0,0h0s0,0,0,0,0,0,0,0h0a0,0,0,0,0,0,0h.1s0,0,0,0,0,0,0,0h0a0,0,0,0,0,0,0s0-.08,0-.09h-.09s0,0,0,0,0,0,0,0,0,0,0,0h0Z"/><path class="cls-11" d="M39.21,114.19s-.06,0-.07,0l0,0s0,0,0,.06h0s0,0,0,0l0,0,0,0A.16.16,0,0,1,39.21,114.19Z"/><path class="cls-11" d="M39.26,114.22l0,0a.08.08,0,0,0-.12,0h0l0,0a.08.08,0,0,1,0,0s-.05,0-.06,0a.06.06,0,0,1,0,0H39a0,0,0,0,0,0,0,.06.06,0,0,0-.06,0,0,0,0,0,0,0,0h0s0,0,0,0l0,0s0,0,0,0h0v0a.06.06,0,0,0,.06,0l0-.06s0,0,0-.06a.08.08,0,0,1,.07,0s0,0,0,0Z"/><path class="cls-11" d="M39.51,114.75s0,0,0,0h0l0,0h0v0A.11.11,0,0,1,39.51,114.75Z"/><path class="cls-11" d="M39.07,114.08l-.07,0h0s0,0,0,0,0,0,0,0h0a0,0,0,0,0,0,0h0a0,0,0,0,1,0,0h.09s0,0,0,0,0,0,0,0h-.07Z"/><path class="cls-11" d="M38.64,114.31l-.11,0c.3.46.47.59.59.63a.2.2,0,0,0,.11,0,.18.18,0,0,0,.07,0h0a0,0,0,0,1,0,0,.26.26,0,0,0-.12-.31A1.43,1.43,0,0,0,38.64,114.31Z"/><path class="cls-11" d="M38.66,114.06h0v0h0s0,0,0,0h0s0,0,0,0h0s0,0,0,0Z"/><path class="cls-11" d="M38.72,114.15h0s0,0,0,0v0l0,0S38.71,114.14,38.72,114.15Z"/><path class="cls-11" d="M39.06,114.22a0,0,0,0,0,0,0h0a.07.07,0,0,0-.06,0s.07,0,.08,0Z"/><path class="cls-11" d="M38.9,114.06h0s0,0-.07,0l0,0h0v0h0s0,0,0,0h0s0,0,0,0,0,0,0,0h0s0,0,0,0h0a0,0,0,0,1,0,0l0,0h0s0,0,0,0a0,0,0,0,1,0,0l.07,0A0,0,0,0,0,38.9,114.06Z"/><path class="cls-11" d="M39.23,114.12h0s0,0,0,0h0v0h0a.08.08,0,0,0-.07,0v0Z"/><path class="cls-11" d="M39.47,114.06h0l0,0S39.48,114.08,39.47,114.06Z"/><path class="cls-11" d="M39.48,114.13h0s0,0,0,0a0,0,0,0,0,0,0l0,0Z"/><path class="cls-11" d="M39.68,114.67a.08.08,0,0,1,0-.07l0,0v0a0,0,0,0,0,0-.05h0a.08.08,0,0,0,0-.06v0l0,0h0v0h0s0,0,0,0,0,0,.05,0a0,0,0,0,0,0,0v0h0s0,0,0,0,0,0,0,0l0,0a.06.06,0,0,1,0,0s0,0,0,0l0,0s0,0,0,0a.14.14,0,0,0,0,.11h0Z"/><path class="cls-11" d="M38.69,114h0s0,0,0,0,0,0,0,0h0S38.7,114,38.69,114Z"/><polygon class="cls-11" points="37.07 113.52 37.01 113.51 37.01 113.57 37.06 113.57 37.07 113.52"/><path class="cls-11" d="M37.64,113.15a.33.33,0,0,0-.39.17.28.28,0,0,0,0,.13h0a.58.58,0,0,0,.32.27.75.75,0,0,0,.18.07,3,3,0,0,0,.56.07C38.1,113.58,37.86,113.21,37.64,113.15Z"/><path class="cls-11" d="M37.08,113.63h0a.12.12,0,0,0,0,.17h0a.11.11,0,0,0,.16,0,.12.12,0,0,0,0-.17A.12.12,0,0,0,37.08,113.63Zm.12.15a.06.06,0,0,1-.06,0h0A0,0,0,0,1,37.2,113.78Zm-.09,0h0a.13.13,0,0,1,0-.06h0A0,0,0,0,1,37.11,113.74Zm.09,0h-.05v0h0l0,0h0v0Zm0,0h0a.06.06,0,0,1,0,0l0,0A.08.08,0,0,1,37.24,113.75Zm-.09-.1h0l0,0Zm.1,0a0,0,0,0,1,0,0h0s0,0,0,0h0Z"/><rect class="cls-11" x="37.31" y="113.81" width="0.06" height="0.05" transform="translate(-20.62 8.98) rotate(-10.77)"/><path class="cls-11" d="M38.74,114.08s0,0,0,0,0,0,0,0h.13s0,0,0,0,0,0,0,0a0,0,0,0,0,0,0h-.11l.06,0h0l0,0h0Z"/><path class="cls-11" d="M39,114h.12a.1.1,0,0,1,.07,0,.12.12,0,0,0,0-.05H39a0,0,0,0,1-.05,0,0,0,0,0,1,0,0h0l0,0h0s0,0,0,0Z"/><path class="cls-11" d="M39.33,114.07l-.2,0a0,0,0,0,1,0,0h0l.2,0h0a.05.05,0,0,0,0,0s0,0,0,0l0,0h-.06Z"/><path class="cls-11" d="M39.23,114h.05s0-.05,0-.05h-.1a.12.12,0,0,0,.09,0Z"/><path class="cls-11" d="M39.4,114.13h0a.06.06,0,0,0,0,0h0s0,0,0,0h0v0Z"/><path class="cls-11" d="M39.41,114.12l0,0h0l0,0s0,0,0,0,0,0,0,0A0,0,0,0,0,39.41,114.12Z"/><path class="cls-11" d="M37.41,112.74h0v0a.18.18,0,0,1,0,.1s-.07.08-.18.14-.08.25,0,.38l0-.08,0,0,0,0s0,0,0,0l0,0h0l0,0a.31.31,0,0,1,.25,0c.23.06.5.44.67.74v0l.26,0h.06c-.13-.3-.44-1.17-1-1.18A.55.55,0,0,0,37.41,112.74Z"/><path class="cls-11" d="M39.36,114.15l0,0a.05.05,0,0,1-.05,0h0v0h0l0,0a.05.05,0,0,0,0,0S39.38,114.15,39.36,114.15Z"/><path class="cls-11" d="M37.41,112.74h0c0-.06,0-.13.18-.13a.27.27,0,0,0-.32.18.27.27,0,0,1-.06.1l-.08,0a.38.38,0,0,0-.19.48s0,0,0,0h0a.35.35,0,0,1,.17-.45l.13-.07c.08,0,.13-.07.14-.14Z"/><path class="cls-11" d="M38.78,113.94h0s0,0,0,0h0a0,0,0,0,0,0,0h.06a.11.11,0,0,1,.08,0h0s0,0,0,0h0s0,0-.07,0h0s0,0,0,0h0s0,0,0,0h0v0h0s0,0,0,0a0,0,0,0,0,0,0Z"/><path class="cls-11" d="M39.63,114.72v0l0,0h0s0,0,0,0v0a.1.1,0,0,0,0,.07Z"/><path class="cls-11" d="M39.29,114.11a.15.15,0,0,0,0,.13h0l0,0a0,0,0,0,0,0,0h0a.18.18,0,0,1,0-.14Z"/><path class="cls-11" d="M39.57,114.52v0l0,0a.07.07,0,0,0,0,0s0,0,0,0l0,0h0s0,0,0,.08h0s0,0,0,0h0s0,0,0,0h0v0a0,0,0,0,0,0,0h0s0,0,0,0h0s0,0,0,0v0s0,0,0,0h0a.34.34,0,0,1,0,.1h0s0-.07,0-.1a.09.09,0,0,0,0,0,.08.08,0,0,0,0,0v0a0,0,0,0,1,0,0s0,0,0,0h0v0h0A0,0,0,0,0,39.57,114.52Z"/><path class="cls-11" d="M39.55,114.7h0a.13.13,0,0,0,0,.06h0a0,0,0,0,0,0,0h0v0S39.57,114.7,39.55,114.7Z"/><path class="cls-11" d="M39.5,114.82h0s0,0,0,0h0v0a.12.12,0,0,1,.08-.06A.09.09,0,0,0,39.5,114.82Z"/><path class="cls-11" d="M39.54,114.38h0v.05h0l0,0a0,0,0,0,0,0,0l0,0h0l0,0s0,0,0,0a0,0,0,0,0,0,0h0s0,0,0,0h-.06s0,0,0,0h0s0,0,0,0h.05a0,0,0,0,0,0,0l0,0h0s0,0,0,0h0l0,0s0,0,0,0l0,0s0,0,0,0l0,0v0s0,0,0,0h0s0,0,0,0h0a0,0,0,0,0,0,0h0a0,0,0,0,0,0,0h0Z"/><path class="cls-12" d="M37.23,113.72a.06.06,0,0,0,0,0h0a.08.08,0,0,0,0,0Z"/><polygon class="cls-12" points="37.21 113.69 37.19 113.67 37.18 113.67 37.15 113.68 37.14 113.69 37.15 113.72 37.16 113.73 37.19 113.73 37.19 113.73 37.2 113.73 37.2 113.73 37.21 113.7 37.21 113.69"/><path class="cls-12" d="M37.15,113.77h0a.06.06,0,0,0,.06,0,0,0,0,0,0,0,0Z"/><path class="cls-12" d="M37.1,113.75h0a0,0,0,0,0,0,0h0A.13.13,0,0,0,37.1,113.75Z"/><path class="cls-12" d="M37.1,113.66h0v0l0,0Z"/><polygon class="cls-13" points="39.7 114.67 39.69 114.68 39.69 114.68 39.7 114.67"/><path class="cls-12" d="M37.21,113.66h0a0,0,0,0,0,0,0l0,0h0S37.2,113.65,37.21,113.66Z"/><polygon class="cls-14" points="39.68 114.71 39.68 114.7 39.68 114.7 39.68 114.7 39.68 114.71"/><path class="cls-15" d="M39.75,114.58Z"/><polygon class="cls-16" points="39.41 114.73 39.41 114.73 39.41 114.73 39.41 114.73"/><polygon class="cls-17" points="39.41 114.73 39.41 114.73 39.41 114.73 39.41 114.73"/><polygon class="cls-18" points="39.51 114.82 39.51 114.82 39.51 114.82 39.51 114.82"/><polygon class="cls-19" points="39.51 114.82 39.51 114.82 39.51 114.82 39.51 114.82"/><polygon class="cls-20" points="39.49 114.57 39.49 114.57 39.49 114.57 39.49 114.57"/><polygon class="cls-21" points="39.49 114.57 39.49 114.57 39.49 114.57 39.49 114.57"/><polygon class="cls-22" points="39.39 114.62 39.39 114.62 39.39 114.62 39.39 114.62"/><polygon class="cls-23" points="39.39 114.62 39.39 114.62 39.39 114.62 39.39 114.62"/><polygon class="cls-24" points="37.41 112.74 37.41 112.75 37.41 112.74 37.41 112.74"/><path class="cls-12" d="M37.68,112.62h-.1c-.24,0-.21,0-.26,0h0l-.25.18,0,0h0c-.05.07-.1.21-.15.3l0,.07a.2.2,0,0,0,0,.12,0,0,0,0,1,0,.05.72.72,0,0,0,.41.62l.1,0a5.33,5.33,0,0,0,1.1.18,2.84,2.84,0,0,0,.4.55l.09.07a.46.46,0,0,0,.32.12h0a.31.31,0,0,0,.13-.06.22.22,0,0,0,.1-.12l.06,0,.09-.08a.14.14,0,0,1,0-.11s0,0,0,0l0,0s0,0,0,0a.06.06,0,0,0,0,0l0,0s0,0,0,0,0,0,0,0h0v0a0,0,0,0,1,0,0s0,0-.05,0,0,0,0,0h0v0h0l0,0v0a.08.08,0,0,1,0,.06h0a0,0,0,0,1,0,.05v0l0,0a.08.08,0,0,0,0,.07v0a.26.26,0,0,1,0-.08h0s0,0,0,0a.51.51,0,0,0,0-.09.23.23,0,0,0-.05-.24.6.6,0,0,0-.27-.21h0a0,0,0,0,1,0,0h0l0,0h0a0,0,0,0,1,0,0s0,0-.06,0h0s0,0,0,0h0l0,0h0s0,0,0-.05l-.44-.07h-.1l0,0c-.11-.22-.33-.68-.41-.79v0A.93.93,0,0,0,37.68,112.62Zm1.74,1.46h0s0,0,0,0Zm0,0a0,0,0,0,1,0,0s0,0,0,0h0Zm-2.44-.6h.06v0H37Zm.36.35h0v-.06h0Zm-.1-.09a.11.11,0,0,1-.16,0h0a.12.12,0,0,1,0-.17h0a.12.12,0,0,1,.16,0A.12.12,0,0,1,37.27,113.77Zm.44,0a.75.75,0,0,1-.18-.07.58.58,0,0,1-.32-.27h0a.28.28,0,0,1,0-.13.33.33,0,0,1,.39-.17c.22.06.46.43.63.72A3,3,0,0,1,37.71,113.8Zm1,.28h0l0,0h0l-.06,0h.11a0,0,0,0,1,0,0s0,0,0,0,0,0,0,0h-.13s0,0,0,0,0,0,0,0h0Zm0-.06s0,0,0,0h0s0,0,0,0h0s0,0,0,0Zm.39.08s0,0,0,0H39a0,0,0,0,0,0,0h0a0,0,0,0,1,0,0h0s0,0,0,0,0,0,0,0h0l.07,0h.07S39.13,114.09,39.12,114.1Zm.11,0h0v0h0s0,0,0,0h0l-.08,0v0A.08.08,0,0,1,39.23,114.07Zm0,.11a.08.08,0,0,0-.07,0s0,0,0,.06l0,.06a.06.06,0,0,1-.06,0v0h0s0,0,0,0l0,0s0,0,0,0h0a0,0,0,0,1,0,0,.06.06,0,0,1,.06,0,0,0,0,0,1,0,0H39a.06.06,0,0,0,0,0s0,0,.06,0a.08.08,0,0,0,0,0l0,0h0a.08.08,0,0,1,.12,0l0,0h0S39.23,114.18,39.21,114.18Zm-.09.16s0,0,0,0h0s0-.05,0-.06l0,0s0,0,.07,0a.16.16,0,0,0-.05.15l0,0Zm.32.3h0s0,0,0,0,0,0,0,0,0,0,0,0h.09s0,0,0,.09a0,0,0,0,1,0,0h0s0,0,0,0,0,0,0,0h-.1a0,0,0,0,1,0,0h0s0,0,0,0,0,0,0,0h0a0,0,0,0,1,0,0h0v0h0s0,0,0,0,0,0,0,0a0,0,0,0,1,0,0h0Zm0,.09,0,0h0s0,0,0,0a.11.11,0,0,0-.11,0v0Zm-.42-.55a.07.07,0,0,1,.06,0h0a0,0,0,0,1,0,0h0S39,114.17,39,114.18Zm-.17-.06a0,0,0,0,0,0,0s0,0,0,0h0l0,0a0,0,0,0,0,0,0h0s0,0,0,0h0s0,0,0,0,0,0,0,0h0s0,0,0,0h0v0h0l0,0s.06,0,.07,0h0a0,0,0,0,1,0,0Zm-.06,0v0s0,0,0,0h0s0,0,0,0l0,0Zm-.07,0h0s0,0,0,0h0s0,0,0,0h0v0h0S38.69,114.07,38.68,114.08Zm.64.76a0,0,0,0,0,0,0h0a.18.18,0,0,1-.07,0,.2.2,0,0,1-.11,0c-.12,0-.29-.17-.59-.63l.11,0a1.43,1.43,0,0,1,.56.22A.26.26,0,0,1,39.32,114.84Zm.19,0v0h0s0,0,0,0h0a.09.09,0,0,1,.09,0A.12.12,0,0,0,39.51,114.85Zm.06-.08h0a0,0,0,0,1,0,0h0a.13.13,0,0,1,0-.06h0s0,0,0,0v0Zm.08-.1v0s0,0,0,0h0l0,0v0h0a.1.1,0,0,1,0-.07Zm0-.17v0h0s0,0,0,0a0,0,0,0,0,0,0v0a.08.08,0,0,1,0,0,.09.09,0,0,1,0,0s0,.06,0,.1h0a.34.34,0,0,0,0-.1h0s0,0,0,0v0s0,0,0,0h0s0,0,0,0h0a0,0,0,0,1,0,0h0v0h0s0,0,0,0h0s0,0,0,0h0s0-.05,0-.08h0l0,0s0,0,0,0a.07.07,0,0,1,0,0l0,0v0a0,0,0,0,1,0,0Zm0-.12h0a0,0,0,0,1,0,0h0a0,0,0,0,1,0,0h0s0,0,0,0h0s0,0,0,0v0l0,0s0,0,0,0l0,0s0,0,0,0l0,0h0s0,0,0,0h0l0,0a0,0,0,0,1,0,0h-.05s0,0,0,0h0s0,0,0,0h.06s0,0,0,0h0a0,0,0,0,1,0,0s0,0,0,0l0,0h0l0,0a0,0,0,0,1,0,0l0,0h0v-.05h.05Zm-.22-.14h0a0,0,0,0,1,0,0l0,0h0a.15.15,0,0,1,0-.13h0A.18.18,0,0,0,39.34,114.24Zm0,0a.05.05,0,0,1,0,0l0,0h0v0h0a.05.05,0,0,0,.05,0l0,0S39.38,114.17,39.39,114.19Zm0,0h0s0,0,0,0h0a.06.06,0,0,1,0,0h0l0,0Zm0,0s0,0,0,0l0,0h0l0,0a0,0,0,0,1,0,0S39.45,114.13,39.45,114.14Zm-.09-.07h0l0,0s0,0,0,0a.05.05,0,0,1,0,0h0l-.2,0h0a0,0,0,0,0,0,0l.2,0h0Zm-.22-.09h.1s0,0,0,.05h-.05A.12.12,0,0,1,39.14,114Zm-.25,0h0l0,0h0a0,0,0,0,0,0,0,0,0,0,0,0,.05,0h.1a.12.12,0,0,1,0,.05.1.1,0,0,0-.07,0h-.14S38.89,114,38.89,114Zm-.1,0a0,0,0,0,1,0,0s0,0,0,0h0v0h0s0,0,0,0h0s0,0,0,0h0s.05,0,.07,0h0s0,0,0,0h0a.11.11,0,0,0-.08,0h-.06a0,0,0,0,1,0,0h0s0,0,0,0h0Zm-.14,0h-.06l-.26,0v0c-.17-.3-.44-.68-.67-.74a.31.31,0,0,0-.25,0l0,0h0l0,0s0,0,0,0l0,0,0,0,0,.08c0-.13-.06-.33,0-.38s.16-.1.18-.14a.18.18,0,0,0,0-.1v0c0,.07-.06.11-.14.14l-.13.07a.35.35,0,0,0-.17.45h0s0,0,0,0a.38.38,0,0,1,.19-.48l.08,0a.27.27,0,0,0,.06-.1.27.27,0,0,1,.32-.18c-.14,0-.18.07-.18.13h0a.55.55,0,0,1,.22,0C38.21,112.73,38.52,113.6,38.65,113.9Z"/><polygon class="cls-12" points="38.68 114.02 38.68 114.02 38.68 114.02 38.68 114.02"/><polygon class="cls-25" points="38.68 114.02 38.68 114.02 38.68 114.02 38.68 114.02"/><g id="g9107"><g id="g20"><path id="path22" class="cls-12" d="M40.38,115.67s-.05,0-.12,0,0,0,0-.1l0,0c0,.05.12.14.09.18m-.12.07.05,0-.19.27s0,0-.08,0L40,116l.06-.09,0,0-.07.09-.08-.06a.45.45,0,0,0,0,.11l0,0,0,0s0,0,0,.05l0-.05.09.07a.12.12,0,0,0,.17,0l.25-.37s0-.1,0-.19l.12.08,0-.07-.25-.18s0,.06-.07.1a.17.17,0,0,0,0,.26m.24-.41h0l-.1-.06-.05.07.1.06.15.11.06-.07c-.09-.06-.17-.16-.11-.23l-.08,0c0,.06,0,.12,0,.18m-.63,1.06s0,0-.12,0,0,0,0-.1l0,0c0,.06.12.14.09.18m-.12.07c.07.05.13.05.16,0s0-.11,0-.2l.12.08.05-.07-.25-.17-.07.09a.17.17,0,0,0,0,.26M41.31,114c-.07-.05-.13,0-.19,0a.45.45,0,0,0,0,.1l0,.07a.38.38,0,0,1,.05-.12.07.07,0,0,1,.1,0s0,.08,0,.29l.06,0,.17-.24-.05-.06-.15.21c0-.13.07-.25,0-.31m-1.64,2.64h0s-.13.06-.19,0a.09.09,0,0,1,0-.14.1.1,0,0,1,.15,0,.2.2,0,0,1,.08.14m.17-.08-.15.07a.2.2,0,0,0-.06-.22.17.17,0,0,0-.25.06.18.18,0,0,0,0,.27.23.23,0,0,0,.27,0l.28-.14s-.08-.06-.13,0M41,114.85s-.1.05-.21,0a.09.09,0,0,1,0-.14.1.1,0,0,1,.15,0c.11.07.11.17.09.19m-.3-.21a.18.18,0,0,0,0,.26.25.25,0,0,0,.3,0,.25.25,0,0,0-.07-.29.19.19,0,0,0-.26.06m.13.08a.15.15,0,0,0,0,.07h.07s0,0,0-.07h-.07m.27-.43c-.06,0-.13,0-.19,0a.19.19,0,0,0,0,.1s0,0,0,.07a.27.27,0,0,1,0-.11.07.07,0,0,1,.1,0s0,.08,0,.29l0,0,.17-.24,0-.06-.15.21c0-.13.07-.25,0-.31m-.44.61a.12.12,0,0,0-.18,0,.34.34,0,0,0-.05.11.13.13,0,0,0,.05.06.34.34,0,0,1,0-.11.07.07,0,0,1,.1,0s0,.08,0,.28l.06,0,.17-.24,0,0-.15.2c0-.13.07-.24,0-.31"/></g><g id="g24"><path id="path26" class="cls-12" d="M40.91,114.14l0,0,0,0a.12.12,0,0,1,0,0,.1.1,0,0,1-.05,0h-.07a.13.13,0,0,1-.08,0l0,0a.19.19,0,0,1,0-.07.2.2,0,0,1,0-.07s0,0,0-.06l0,0,0,0,.06,0,0,0,0,0,0,0v0s0,0,0,0l0,0h.08l0,0,0,0s0,0,0,0,0,0,0,0Z"/></g><g id="g28"><path id="path30" class="cls-12" d="M41,113.81s0,0,0,0,0,0,0,.05a.09.09,0,0,1,0,0,.08.08,0,0,1,0,0l0,0,0,0s0,0,0,0l-.05,0-.17-.12.05-.07.15.11h.08s0,0,0,0a0,0,0,0,0,0,0v0s0,0,0,0l0,0-.16-.11.06-.07Z"/></g><g id="g32"><path id="path34" class="cls-12" d="M41,113.67v0h0v0l0,0h0a0,0,0,0,0,0,0s0,0,0,0h0l0,0Zm-.18,0,.06-.09a.22.22,0,0,1,.09-.08.08.08,0,0,1,.08,0,.1.1,0,0,1,.05.08.19.19,0,0,1,0,.09l0,0,.09.06-.05.08Z"/></g><g id="g36"><path id="path38" class="cls-12" d="M39.42,115.68l0-.07.23.11h0l-.18-.18.07-.1.23.11h0l-.18-.18,0-.07.22.25-.06.09-.23-.1h0l.19.18-.07.09Z"/></g><g id="g40"><path id="path42" class="cls-12" d="M39.88,115.32l0,0H40l0,0v0a.06.06,0,0,0,0,0s0,0,0,0l0,0,0,0h-.07l0,0s0,0,0,0a0,0,0,0,0,0,0l0,0s0,0,0,0m-.06.07,0,0a.08.08,0,0,1,0,0,.06.06,0,0,1,0-.06.09.09,0,0,1,0-.07l0,0,.06,0a.06.06,0,0,1,.06,0l.06,0,.06,0a.14.14,0,0,1,0,.06.06.06,0,0,1,0,.06l0,.07s0,0-.05,0l-.06,0h-.06l-.07,0"/></g><g id="g44"><path id="path46" class="cls-12" d="M40.06,115l0,0v0a0,0,0,0,1,0,0v0h-.05s0,0,0,0l0,0v0Zm-.16,0,.09-.13,0,0,0,0h.07s0,0,0,0a0,0,0,0,1,0,.05h.09l.09,0,0,.08-.06,0h-.08l0,0h0l.11.08,0,.07Z"/></g><g id="g48"><path id="path50" class="cls-12" d="M40.08,114.74l.05-.07.22.15.08-.11,0,0-.13.18Z"/></g><g id="g52"><path id="path54" class="cls-12" d="M40.5,114.62l0,0a.24.24,0,0,0,0-.08s0,0,0-.06a.07.07,0,0,0-.07,0,.1.1,0,0,0-.07,0l0,0Zm-.27-.08.07-.1a.1.1,0,0,1,.05-.06l.06,0s0,0,.06,0a.11.11,0,0,1,.07,0,.17.17,0,0,1,.06.06.14.14,0,0,1,0,.06s0,.05,0,.07a.43.43,0,0,0,0,.07l-.07.1Z"/></g><g id="g56"><path id="path58" class="cls-26" d="M38.81,116.55l.26.19.06-.08-.09-.07,0-.06,0-.07-.06.09-.06,0,.08-.1,0-.07Z"/></g><path id="path60" class="cls-26" d="M39.24,116.51l.06-.09-.27-.19-.06.09Z"/><g id="g62"><path id="path64" class="cls-26" d="M39.07,116.18l.27.19.06-.09-.1-.07,0-.06,0-.06-.06.08-.05,0,.07-.1,0-.06Z"/></g><g id="g66"><path id="path68" class="cls-26" d="M39.49,116l-.14,0,.09.11Zm.16,0-.06.08h0l-.07.09,0,0-.06.08-.2-.29.07-.08Z"/></g></g><g id="layer1"><g id="g3035"><path id="path2405" class="cls-12" d="M43.74,117l-1.46-.13.06-.6,1.8.16-.4.57"/><path id="path2407" class="cls-12" d="M42.47,118.43l.06-.6.55,0-.4.57-.21,0"/><path id="path2415" class="cls-12" d="M42.39,117.62l0-.6,1.17.11c-.16.22-.41.57-.4.57l-.82-.08"/></g></g><path id="Path_471" data-name="Path 471" class="cls-5" d="M39.87,131.43a3.55,3.55,0,0,1-.74-5h0a3.55,3.55,0,0,1,.41-.46l-9.09-14.27.22-3.52L40.93,97.29l-4.07,12.07,7.9,16.94a3.57,3.57,0,0,1-4.89,5.13Z"/><path id="Path_472" data-name="Path 472" class="cls-7" d="M40.15,81.94s-1.65-.89-2.8,2.91c-.92,3.05-6.86,19.47-7,23.88-.8.17-1.46,2.23-.37,3.3l8.12-1.25c.55-1.17.61-2.53,0-3.07l5.21-13.52,3.36-3.89-5.32-7.74Z"/><rect class="cls-27" x="79.92" y="31.42" width="23.35" height="13.32" rx="0.67" transform="translate(-6.96 26.83) rotate(-16.06)"/><path class="cls-7" d="M177,53.65c54.63,15.41,100.31-2.44,100.31-2.44l-8.14-21.77c-45.39,13.94-84.88,1.35-84.88,1.35Z"/><path class="cls-9" d="M200.88,40.32a20.07,20.07,0,0,1,2,.33c.65.15,1.17.27,1.58.39a5.8,5.8,0,0,1-.12.68,13.89,13.89,0,0,1-.42,1.55,3.33,3.33,0,0,1-.23.57c-.34-.11-.79-.22-1.34-.35s-1.17-.23-1.83-.31a2.47,2.47,0,0,0-2.09.51,3.63,3.63,0,0,0-.9,2.21q-.36,3,2.08,3.34l.42,0,.37-3,3.46.42L203.23,52a11.18,11.18,0,0,1-1.68.23,12,12,0,0,1-2.28-.08,6.5,6.5,0,0,1-4.33-2,5.85,5.85,0,0,1-1-4.65A5.8,5.8,0,0,1,196,41.19,6.79,6.79,0,0,1,200.88,40.32Z"/><path class="cls-9" d="M211.89,48.08a7.91,7.91,0,0,1,.43-2.63,4.89,4.89,0,0,1,1.15-1.84,4.45,4.45,0,0,1,1.81-1.07,7.21,7.21,0,0,1,2.39-.32,7.39,7.39,0,0,1,2.39.39,4.53,4.53,0,0,1,1.77,1.13,4.88,4.88,0,0,1,1.1,1.87,8.51,8.51,0,0,1,.35,2.65,7.86,7.86,0,0,1-.44,2.63,4.85,4.85,0,0,1-1.15,1.84,4.49,4.49,0,0,1-1.81,1.07,7.77,7.77,0,0,1-2.39.32,7.6,7.6,0,0,1-2.38-.4,4.47,4.47,0,0,1-1.78-1.12,4.94,4.94,0,0,1-1.09-1.87A7.88,7.88,0,0,1,211.89,48.08Zm3.65.06c0,2,.63,3.07,2,3.09a1.74,1.74,0,0,0,1.55-.73,4.16,4.16,0,0,0,.54-2.3c0-2-.63-3.07-2-3.09S215.57,46.1,215.54,48.14Z"/><path class="cls-9" d="M233.28,41.69l2.37-.2a6.07,6.07,0,0,1,1.37,0,2.12,2.12,0,0,1,1,.38,3,3,0,0,1,.75.87,10.33,10.33,0,0,1,.67,1.46l3.23,8.38-3.56.29-1-2.64-3,.25-.45,2.76-3.48.29Zm2.17,6.23,1.69-.14L236,44.87H236Z"/><path class="cls-9" d="M249.44,40.1l3.48-.79,1.88,8.29,4.81-1.1c0,.18.09.4.13.67s.1.54.13.83.07.57.09.85a4.19,4.19,0,0,1,0,.71l-8,1.81Z"/><path class="cls-28" d="M267.94,31.89,274.72,50A168.29,168.29,0,0,1,223,57.92a167.57,167.57,0,0,1-43.44-5.65l6.08-19A152.45,152.45,0,0,0,224.41,38a154.53,154.53,0,0,0,43.53-6.12m1.22-2.45A152.53,152.53,0,0,1,224.41,36c-23.77,0-40.13-5.22-40.13-5.22L177,53.65a169.48,169.48,0,0,0,46,6.27c32.06,0,54.34-8.71,54.34-8.71l-8.14-21.77Z"/><rect id="Rectangle_52" data-name="Rectangle 52" class="cls-29" x="223.45" y="80.3" width="8.71" height="8.71"/><rect id="Rectangle_53" data-name="Rectangle 53" class="cls-6" x="223.45" y="80.3" width="8.71" height="8.71"/><path id="Path_497" data-name="Path 497" class="cls-30" d="M246.8,223.08l-3.76,1.6-8-13.74,5.54-2.36Z"/><path id="Path_498" data-name="Path 498" class="cls-30" d="M215.74,226.64h-4.09l-1.94-15.76h6Z"/><path id="Path_499" data-name="Path 499" class="cls-4" d="M215.88,230.9H203.32v-.16a4.89,4.89,0,0,1,4.89-4.89h0l2.29-1.74,4.29,1.74h1.09Z"/><path id="Path_500" data-name="Path 500" class="cls-4" d="M249.09,225.81l-11.56,4.93-.06-.15a4.89,4.89,0,0,1,2.58-6.42h0l1.43-2.5,4.62-.08,1-.43Z"/><path id="Path_501" data-name="Path 501" class="cls-8" d="M211.73,133.36l-6.21,37.81,1.69,5.64-.72,3.73,1.76,35.3a6.05,6.05,0,0,0,.35,2.95,6.3,6.3,0,0,0,2,2.24h6.25l.79-31.5a31.41,31.41,0,0,0,2.21-4.37,7.08,7.08,0,0,0,.52-3.08l3.78-19.36.7,22.14,1.1,4.66a3.45,3.45,0,0,0,0,2.2,12.87,12.87,0,0,0,1.5,2.93l10.44,22.73H245l-2-5c-.41-3.67-.93-3-1.29-4.65v-2.44l-1.34-3.47-2.91-10.06,4.25-29-.51-24.44c-2.83-3.8-6-6.72-9.85-7.54Z"/><path id="Path_503" data-name="Path 503" class="cls-28" d="M227.71,134.67c6,0,11-.41,13.51,3.81-.06-.92-.38-2.35-.55-3.81l-.62-3.92.29-2.38s.91-1.12.74-1.7c-.11-.4-.68-.31-.94-1.39,0,0,.36-.69.68-1.41s-.41-1.4-.41-1.4a38.71,38.71,0,0,1,.62-5.15l3.35-17.69a6.41,6.41,0,0,0-3.54-7l-3.22-1.55-5.21-4.84L223,86.19l-3.07,4-8.11,2.75,1.36,28.14a4.4,4.4,0,0,0-.78,1.8c0,.72.51.85.74,1.11s-.09,2.2-.36,3.26l-.38,2.84,1.19.84L212,132.75l-.31,2.31C213.24,134.7,221,134.67,227.71,134.67Z"/><path id="Path_504" data-name="Path 504" class="cls-31" d="M229,83.14l.11-.24h0Z"/><circle id="fbcb1e7b-18f5-4394-a5dd-21324d3d96d7" class="cls-29" cx="227.46" cy="75.06" r="8.5"/><path id="fa11fa6f-8d0b-4738-bd9e-1b384a1b66c7-1821" class="cls-32" d="M221.43,67.18l-1.4-.56s2.94-3.24,7-3l-1.15-1.26s2.81-1.13,5.36,1.83a25,25,0,0,1,3.87,5.43h1.5L236,71l2.2,1.39L236,72.18a7.75,7.75,0,0,1-.22,3.58l.06,1.09s-2.61-4-2.61-4.61v1.41s-1.41-1.27-1.41-2.11l-.77,1L230.63,71l-4.73,1.54.77-1.26-2.94.42,1.15-1.55s-3.32,1.83-3.45,3.38A8.31,8.31,0,0,1,219.64,77l-.76-1.41S217.73,69.29,221.43,67.18Z"/><path id="Path_528" data-name="Path 528" class="cls-30" d="M195.17,53.69a3.35,3.35,0,0,1,.9,4.65h0a2.76,2.76,0,0,1-.37.46l5.36,10.64-6.15-.72-4.14-10a3.37,3.37,0,0,1,4.4-5Z"/><path id="eb9b57ee-86ab-410d-b03f-f9f5ae1c3330-240" class="cls-28" d="M212.89,103.6l2.82,1.14,1.18-2.11s.56-2.54-1-8.47c-.74-2.75-9.75-16.09-9.75-16.09l-8.34-18.46-6,4.28,6.74,15.35L204,94.81Z"/><path id="Path_528-2" data-name="Path 528" class="cls-30" d="M254.7,53.53a3.37,3.37,0,0,1,4.92,4.53l-3.05,10.38-6,1.38,4.18-11.15a4.16,4.16,0,0,1-.42-.42h0a3.35,3.35,0,0,1,.4-4.72Z"/><path id="eb9b57ee-86ab-410d-b03f-f9f5ae1c3330-240-2" data-name="eb9b57ee-86ab-410d-b03f-f9f5ae1c3330-240" class="cls-28" d="M250.32,95.36l3.86-16.07,5-16-6.45-3.61-6.3,19.25s-7.52,14.24-8,17c-.95,6.07-.13,8.54-.13,8.54l1.4,2h2.06a26.41,26.41,0,0,0,4.48-3.2Z"/><g id="Group_18" data-name="Group 18"><path id="Path_239" data-name="Path 239" class="cls-33" d="M129.2,73.12a6.05,6.05,0,0,1,.74-.78,3,3,0,0,0,.46-2.29c-.1-1.1-.33-2.25.25-3.13a3.37,3.37,0,0,1,1.13-1,26.27,26.27,0,0,1,4.59-2c1.32-.48,3-1.13,3.38.66a10.23,10.23,0,0,1,.16,1.09,27.17,27.17,0,0,1-.21,4.6,2.36,2.36,0,0,0,.29,1.74,4.43,4.43,0,0,0,.65.58c1.05.9,4.12,2.48,3.24,3.55-.57.69-4.37,1.24-5.26,1.35a10.32,10.32,0,0,1-4.65-.88l-2.77-1a4.3,4.3,0,0,1-1.62-.86A1.47,1.47,0,0,1,129.2,73.12Z"/><path id="Path_240" data-name="Path 240" class="cls-33" d="M169.13,50.87c.54,1.38,1.11,2.73,1.57,4.13.2.63,1.34,3.44.84,4-.28.32-1.84.05-2.27.05l-2.56,0a3.43,3.43,0,0,1-1.75-.33,3.35,3.35,0,0,1-1.17-2.78c-.21-3.35,0-6.75-.69-10a6.78,6.78,0,0,0-1.62-3.45c-1.43-1.44-3.81-1.78-4.9-3.49a4,4,0,0,1,.59-4.66,6,6,0,0,1,4.6-1.69,2.35,2.35,0,0,1,1.34.36,2.88,2.88,0,0,1,.81,1.22l1.7,4a23.89,23.89,0,0,1,1.24,3.27c.47,1.71.56,3.49.95,5.23C167.81,48,168.66,49.66,169.13,50.87Z"/><path id="Path_241" data-name="Path 241" class="cls-4" d="M114.93,168a2.72,2.72,0,0,1,1.85-1.5h0a16.12,16.12,0,0,1,2-.56,3.57,3.57,0,0,1,1.56-.07,4.23,4.23,0,0,1,1.45.81,8,8,0,0,1,1.53,1.43,10,10,0,0,1,1.21,3.17,6.58,6.58,0,0,0,.66,1.6c.21.34.66.71.78,1.12.27.92-.35,2.2-.3,3.19a11.48,11.48,0,0,0,.56,2.65c.46,1.58.93,3.17,1.4,4.75a10.08,10.08,0,0,1,.39,1.71,4,4,0,0,1,0,.85,2.33,2.33,0,0,1-1.4,2,2.57,2.57,0,0,1-1.9-.23,8.2,8.2,0,0,1-1.56-1,10.54,10.54,0,0,1-2.25-2.32c-1.94-2.91-1.32-6.85-2.69-10.07-.91-2.15-2.68-3.9-3.27-6.16A2.39,2.39,0,0,1,114.93,168Z"/><path id="Path_242" data-name="Path 242" class="cls-4" d="M74.57,117.23a4.31,4.31,0,0,1,1.91-.83c.73-.18,1.47-.29,2.22-.4l9.61-1.38a11.15,11.15,0,0,1,2.94-.15,3.77,3.77,0,0,1,2.56,1.31,2,2,0,0,1,.44,1.25,3.1,3.1,0,0,1-.44,1.29,4.53,4.53,0,0,0-.23.57c-.1.44-.21.88-.35,1.31-.4.9-2.09,1.12-2.91,1.46a39.11,39.11,0,0,0-3.7,1.76c-1.28.68-2.63,1.47-4.07,1.31a15.68,15.68,0,0,1-3-1.06,13.07,13.07,0,0,0-4.13-.36h-.11A2.14,2.14,0,0,1,74,123a2.2,2.2,0,0,1-.57-1.66C73.35,119.85,73.44,118.18,74.57,117.23Z"/><path id="Path_243" data-name="Path 243" class="cls-7" d="M82.37,120.39c1-1.53,3.08-1.92,4.91-2.17a4.9,4.9,0,0,1,5,1.24,2,2,0,0,1,.81,1c.11.53-.24,1.1-.08,1.61s.56.71.83,1.09a1.6,1.6,0,0,1,0,1.79c-.29.45-.82.76-1,1.28-.2.69.34,1.34.82,1.86a28.94,28.94,0,0,1,2.44,3.08,1.9,1.9,0,0,1,.39.91c0,.68-.61,1.28-.49,1.95s.6.85,1,1.15a6.5,6.5,0,0,1,3.12,4.82,17,17,0,0,1,3.78-8.59,5.78,5.78,0,0,0,1.41-2.19c.08-.34.1-.7.21-1,.38-1,1.64-1.47,2.18-2.42.38-.67.42-1.58.87-2.12s1.25-.72,1.67-1.29a9.12,9.12,0,0,0,.53-1.2,2.59,2.59,0,0,1,.72-.86,6.06,6.06,0,0,1,1.38-.78,23,23,0,0,1,10.66-1.7,36.75,36.75,0,0,1,10.59,2.44,20.48,20.48,0,0,0,3.75,1.2c1.29.22,2.61,0,3.55.9a3.55,3.55,0,0,1,1,2.88,1.58,1.58,0,0,0,.11,1.07c.14.18.37.28.47.48a1.72,1.72,0,0,1,0,.64,1,1,0,0,0,.93.94,1.48,1.48,0,0,0,.59,1.74,2.16,2.16,0,0,1,.45.29,1.43,1.43,0,0,1,.26.59,10.41,10.41,0,0,0,3.06,5,10.49,10.49,0,0,1,1.51,1.47,7.11,7.11,0,0,1,.68,1.35c1.06,2.54,2.11,5.08,3.17,7.63a16.82,16.82,0,0,1,1.36,4.39c.47,4.2,4.22,7.75,3.51,11.92a5.78,5.78,0,0,1-1.22,2.85,7.52,7.52,0,0,1-3.12,1.91,59.15,59.15,0,0,1-9.34,2.45l-5,1a22.52,22.52,0,0,1-3,.47,19.67,19.67,0,0,0-3.59.27,11.45,11.45,0,0,1-2.16.57c-.64,0-1.47-.06-1.81.42s-.09,1.21-.45,1.67c-.58.74-2,0-2.61.7a2.78,2.78,0,0,0-.39.86,2,2,0,0,1-2.09.92,4.19,4.19,0,0,1-2.1-1.17,10.7,10.7,0,0,1-3.42-7.17,3.73,3.73,0,0,1,.56-2.52c.35-.45.89-.78,1-1.33a2.55,2.55,0,0,1,.18-.67.69.69,0,0,1,.56-.31c.41,0,.91.1,1.34.07.87-.07,1.48-.94,2.23-1.31a4.68,4.68,0,0,1,2.46-.24,2.43,2.43,0,0,0,.89,0,3.61,3.61,0,0,0,.93-.67,3.91,3.91,0,0,1,3.43-.69,3.67,3.67,0,0,0,1.18.26c.76,0,1.3-.72,1.86-1.23,1.54-1.41,3.73-1.78,5.59-2.7a1.27,1.27,0,0,0,.67-.58c.22-.53-.27-1.06-.71-1.42l-3.22-2.67c-3.52-2.9-7.91-5.1-9.54-9.37a5.4,5.4,0,0,0-.78-1.6,2.27,2.27,0,0,0-.43-.39,3.28,3.28,0,0,0-2.4-.47,8.24,8.24,0,0,0-2.83,1.23c-1.39.86-2.75,1.76-4.07,2.72a36.67,36.67,0,0,0-3.74,3.06c-2,2-3.75,4.24-5.66,6.35a18.29,18.29,0,0,1-6.74,5.07,8.67,8.67,0,0,1-8.13-.72c-2.63-1.94-3.47-5.43-4.13-8.62-1.45-1.42-1.91-3.56-2.62-5.47-.45-1.19-1-2.36-1.51-3.54-.58-1.4-1-2.86-1.48-4.31a20.42,20.42,0,0,1-1-4.5c-.21-2.73.63-5.65-.54-8.12A3.66,3.66,0,0,1,82.37,120.39Z"/><path id="Path_249" data-name="Path 249" class="cls-6" d="M130.68,68.55c.3-.4.66-2.34,1.11-2.57a26.27,26.27,0,0,1,4.59-2c1.31-.48,3-1.13,3.38.66a10.51,10.51,0,0,1,.17,2c-1.61,3.65-5.67,5.1-9.47,3.89A2.58,2.58,0,0,1,130.68,68.55Z"/><circle id="Ellipse_17" data-name="Ellipse 17" class="cls-33" cx="132.76" cy="62.21" r="7.81"/><path id="Path_251" data-name="Path 251" class="cls-34" d="M133.65,75.56c-.7-.61-1.16-1.44-1.87-2a3.67,3.67,0,0,0-2.53-.81.67.67,0,0,0-.34.1c-.09.09-1.71.18-1.74.29l-5.58.89s0,0,0,0c-3.62.56-7.37,5-7.37,6.9,0,3.83,4.41,3.28,2.64,6.68-2.17,4.17,4,7,1.43,10.92-1.06,1.64-.73,6.1-2.27,7.32-1.67,1.39-1.74,11.83-3.6,13-.39.22-.84.52-.84,1,0,.65.87.86,1.52.82,2.33-.13,4.64-.79,7-.58,2.93.26,5.62,1.89,8.56,2a25.75,25.75,0,0,1,3.4.1c1.45.27,2.74,1.15,4.21,1.27,1.27.11,2.54-.37,3.81-.32a7.42,7.42,0,0,1,3.94,1.6l.94-5.61c.17-1,.33-2,.43-3s.14-1.78.23-2.66a50.75,50.75,0,0,1,1.25-6.34,67.19,67.19,0,0,0,2.24-14.3,41.36,41.36,0,0,0-.41-5.67c-.25-2.09-.56-4.16-.92-6.23a11.77,11.77,0,0,0-1.38-4.36,4.33,4.33,0,0,0-3.79-2.2,6.2,6.2,0,0,0-1.7.46l-1.34.48-3.16,1.17A2.8,2.8,0,0,1,133.65,75.56Z"/><path id="Path_253" data-name="Path 253" class="cls-34" d="M115.41,82.57c.56,1.08,1.31,2,1.89,3.1a22.24,22.24,0,0,1,2.06,7.45,4.36,4.36,0,0,1,.07,1.3A5.18,5.18,0,0,1,118,96.83a15.22,15.22,0,0,0-2.73,4.73,2.81,2.81,0,0,1-1,1.65c-.2.11-.43.17-.62.29a2.4,2.4,0,0,0-.61.62l-1.53,2a26.11,26.11,0,0,0-.58-5.28,9.05,9.05,0,0,0-2.57-4.57,1.18,1.18,0,0,1-.45-.58,1.72,1.72,0,0,1,0-.6c.06-.65-.29-1.31-.08-1.93.3-.94,1.69-1.16,1.95-2.12a4.17,4.17,0,0,0,.06-.71,17.67,17.67,0,0,1,.85-2.34,8.63,8.63,0,0,1,.39-2.25,6.41,6.41,0,0,1,1-1.17,4.7,4.7,0,0,0,1-1.86,13.37,13.37,0,0,1,1.2-2C114.35,78.9,115,81.85,115.41,82.57Z"/><path id="Path_254" data-name="Path 254" class="cls-34" d="M146.47,77.08c.06-.81,5.48-2.22,6-2.88a12.81,12.81,0,0,1,2.4-2,17.53,17.53,0,0,0,2.28-2.44q1.91-2.28,3.77-4.58a8.81,8.81,0,0,0,2.3-4.35,4.19,4.19,0,0,0,0-.5,12.38,12.38,0,0,0-.29-2.34,1.06,1.06,0,0,1,0-.56c.11-.38.56-.53.95-.62a14.15,14.15,0,0,1,6.93.26,2.13,2.13,0,0,1,.91.46,6.52,6.52,0,0,1,.55.82c.36.49.94.73,1.33,1.17s.47,1.28-.08,1.51a1.3,1.3,0,0,1-.33.07l-.22,0a1.33,1.33,0,0,0-.73,1.51c.09.6.38,1.16.45,1.77a4.78,4.78,0,0,1-1.14,3,24.84,24.84,0,0,1-2.09,2.8c-.55.62-1.15,1.18-1.72,1.76-2.11,2.17-3.79,4.71-5.69,7a15.57,15.57,0,0,1-2.31,2.42A17.7,17.7,0,0,1,158,82.63l-3.26,2.06c-.37.27-2.28,2.54-2.28,2.54s-3.41,8.41-3.71,8S147.07,85,147.07,84.69C146.92,82.26,136.63,78,146.47,77.08Z"/><path id="Path_255" data-name="Path 255" class="cls-33" d="M105.45,101.54a4.37,4.37,0,0,0,3-1.81,4.18,4.18,0,0,0,.31-3,4.65,4.65,0,0,0-.73-1.82,8.35,8.35,0,0,0-1.51-1.46,21,21,0,0,1-5-6.21,9.79,9.79,0,0,1-1.17-3.23c-.1-.86,0-1.75-.1-2.62-.13-1.5-.64-2.94-.78-4.44a25.22,25.22,0,0,0-.24-3.13,3,3,0,0,0-1.86-2.34,2.79,2.79,0,0,0-2.09.34,7.81,7.81,0,0,0-1.66,1.38,2.44,2.44,0,0,0-1,2.92,42,42,0,0,0,3,8.47c.51,1,1.06,2.08,1.53,3.15s.81,2,1.17,3l2.27,6.43a8,8,0,0,0,.78,1.74,7.68,7.68,0,0,0,1,1.24C103.53,101.31,103.89,101.87,105.45,101.54Z"/><path id="Path_258" data-name="Path 258" class="cls-35" d="M162.9,57.41c.12-.38.57-.54,1-.62a14,14,0,0,1,6.93.26,2,2,0,0,1,.91.46,6.52,6.52,0,0,1,.55.82c.36.48.94.73,1.33,1.17s.47,1.28-.08,1.51a1.94,1.94,0,0,1-.33.07,28.85,28.85,0,0,1-2-2.17.91.91,0,0,0-1.23-.23l-3.23,1.1a6.82,6.82,0,0,1-3.51.55,13,13,0,0,0-.3-2.34A1.27,1.27,0,0,1,162.9,57.41Z"/><path id="Path_259" data-name="Path 259" class="cls-34" d="M162.9,57.41c.12-.38.57-.54,1-.62a14,14,0,0,1,6.93.26,2,2,0,0,1,.91.46,6.52,6.52,0,0,1,.55.82c.36.48.94.73,1.33,1.17s.47,1.28-.08,1.51a1.94,1.94,0,0,1-.33.07,28.85,28.85,0,0,1-2-2.17.91.91,0,0,0-1.23-.23l-3.23,1.1a6.82,6.82,0,0,1-3.51.55,13,13,0,0,0-.3-2.34A1.27,1.27,0,0,1,162.9,57.41Z"/><path id="Path_263" data-name="Path 263" class="cls-34" d="M109.73,96.72a17.56,17.56,0,0,1,2.08,4,10.09,10.09,0,0,1-.3,5.31.47.47,0,0,1-.06.15.51.51,0,0,1-.34.17c-1.43.33-3,.63-4.29-.15s-1.61-2.08-2.57-3c-.68-.66-1.63-1.17-1.82-2.1a6.81,6.81,0,0,0,4.78-7.54C108.91,94,109,95.41,109.73,96.72Z"/><path id="Path_799" data-name="Path 799" class="cls-28" d="M140,59.23c-.71,1.19-2.68.15-4-.17-2.66-.62-4.48,2.57-5.67.11l-1.79.61c-.07-.67-1.49-.18-2,.29s-1.62,3.18-1.41,3.84-.27-.22-.38-1.31c-.91-.24-.61-1.53-.61-1.53a3.47,3.47,0,0,1-.48-3.18,9.64,9.64,0,0,1,2.79-4.68,4.42,4.42,0,0,1,4.84-.31c.45-1.07,2.54-1.06,3.7-1.09a3.12,3.12,0,0,1,2.81,1.72c.4.84.87,0,1.56.65.33.31.37,1.6.76,1.85.72.48.58,1.64.6,2.51"/></g><ellipse id="Ellipse_15" data-name="Ellipse 15" class="cls-8" cx="128.91" cy="230.9" rx="28.5" ry="2"/><path class="cls-1" d="M143.38,40.16a5.89,5.89,0,0,0,3.12-4.08s2.69.07,3.7,1c0,0-1.36,3.77-2.88,4.51,0,0-3.52.36-3.94-1.44"/><path class="cls-1" d="M174.83,98a3.65,3.65,0,0,0,2-2.45,4.56,4.56,0,0,1,2.26.73s-.94,2.3-1.9,2.71c0,0-2.2.13-2.41-1"/><path class="cls-1" d="M180.07,133.39,178,132.25c5.18-7.07-3.95-6.63-3.95-6.63l-1.36-2.9s12.42,1.06,7.37,10.67"/><path class="cls-1" d="M252.94,177.49l1.66-.05c2.36,7.11,6.11,3,6.11,3l2.5,1.47s-6.18,4.4-10.27-4.45"/><path class="cls-1" d="M54.22,7,53.11,9.15c-9.49-3.56-7.62,5-7.62,5L42.11,16S41.6,4,54.22,7"/><path class="cls-1" d="M16.59,153l-1.39-3c-11.93,5.35-9.57-6.68-9.57-6.68L1.38,141S.73,157.67,16.59,153"/><path class="cls-1" d="M91.36,95.23a4.18,4.18,0,0,1-2.21-2.89,5.19,5.19,0,0,0-2.62.72s1,2.66,2,3.19c0,0,2.49.25,2.79-1"/><path class="cls-1" d="M.66,104.8A5.25,5.25,0,0,0,5,106.31s.69,2.31.18,3.44c0,0-3.59-.1-4.64-1.19,0,0-1.3-2.89.11-3.76"/><path class="cls-1" d="M81.35,186.2a4.18,4.18,0,0,1-2.21-2.9,5.3,5.3,0,0,0-2.62.72s1,2.67,2,3.19c0,0,2.49.26,2.79-1"/><path class="cls-1" d="M266.27,118.18l-2.61,2c7.85,10.46-4.4,10.8-4.4,10.8l-1.44,4.68s16.45-3,8.45-17.5"/><path class="cls-1" d="M243.91,21.32a5.25,5.25,0,0,0-2.21,4s-2.39.31-3.42-.39c0,0,.69-3.51,1.94-4.38,0,0,3.07-.8,3.69.74"/><path class="cls-1" d="M189.9,162.13a4.15,4.15,0,0,1-2.21-2.89,5.22,5.22,0,0,0-2.63.72s1,2.66,2,3.19c0,0,2.5.26,2.8-1"/><path class="cls-1" d="M204.94,2.89A4.15,4.15,0,0,1,202.72,0a5.19,5.19,0,0,0-2.62.72s1,2.67,2,3.19c0,0,2.5.26,2.8-1"/><path class="cls-1" d="M115.24,16.38a3.52,3.52,0,0,1,1.84-2.49s-.49-1.55-1.2-2c0,0-2,1.42-2.13,2.42,0,0,.37,2.1,1.49,2"/><path class="cls-1" d="M163.87,204.14a4.17,4.17,0,0,0,2.57-2.58,5.22,5.22,0,0,1,2.51,1.06s-1.31,2.51-2.44,2.89c0,0-2.51-.07-2.64-1.37"/></g></g></svg>