<svg xmlns="http://www.w3.org/2000/svg" viewBox="0 0 418.23 342.27"><defs><style>.cls-1{fill:#290216;}.cls-2{fill:#720d2e;}.cls-3{fill:#1c0212;}.cls-4{fill:#870f32;}.cls-5{fill:#a0616a;}.cls-6{fill:#590725;}.cls-7{opacity:0.1;}.cls-8{fill:#960f30;}.cls-9{fill:#e6e6e6;}.cls-10{fill:#210416;}</style></defs><g id="Laag_2" data-name="Laag 2"><g id="Laag_1-2" data-name="Laag 1"><polygon class="cls-1" points="4.72 340.57 2.67 340.99 14.04 331.42 14.69 332.18 4.72 340.57"/><polygon class="cls-1" points="37.43 340.58 27.62 332.49 28.26 331.72 39.5 340.99 37.43 340.58"/><circle class="cls-2" cx="20.63" cy="326.26" r="13.93"/><rect class="cls-3" x="350.97" y="123.57" width="1.5" height="211.32"/><rect class="cls-2" x="142.19" y="151.81" width="7.02" height="92.72" transform="translate(258.54 416.72) rotate(-170.98)"/><rect class="cls-4" x="148.46" y="131.9" width="10.54" height="17.5"/><rect class="cls-2" x="176.06" y="290.47" width="91.82" height="5" transform="translate(-130.22 187.76) rotate(-36.22)"/><rect class="cls-2" x="192.75" y="263.29" width="66.43" height="5"/><rect class="cls-2" x="227.51" y="200.07" width="5" height="77.29" transform="translate(-101.38 247.31) rotate(-47.55)"/><rect class="cls-2" x="223.51" y="186.83" width="5" height="49.45" transform="translate(14.07 437.21) rotate(-89.9)"/><rect class="cls-2" x="194.34" y="186.86" width="57.53" height="5" transform="translate(-68.75 210.67) rotate(-44.5)"/><rect class="cls-2" x="208.15" y="165.27" width="35.69" height="5"/><rect class="cls-2" x="226.63" y="117.89" width="5" height="51.01" transform="translate(-41 133.85) rotate(-30.01)"/><polygon class="cls-5" points="417.98 338.11 413.99 338.11 412.09 322.73 417.98 322.73 417.98 338.11"/><polygon class="cls-5" points="377.85 338.11 373.87 338.11 371.97 322.73 377.85 322.73 377.85 338.11"/><path class="cls-3" d="M381.11,249.74s-2.62,2.78-2.73,4.58,1.25-1.47-.11,1.81-1.37,1.09-1.37,3.27-2.89,4.32-2.89,4.32l-4.77,19.62L372,329.28h6c5.58-17,4.26-26,5.19-36l8.34-18.53s9.25,24.68,9.9,25.26,7.37,24,7.55,24.82a6.36,6.36,0,0,0,1.28,2.89l2.14,2.14,5.73-.55s1.37-26.68-5.62-41.87c0,0,1.47-19.11,0-19.05s.47,1.77.47-.69-.2-2.37-.2-2.37L407.86,248Z"/><rect class="cls-6" x="389.87" y="266.72" width="8.17" height="3.32" rx="0.84"/><rect class="cls-6" x="305.87" y="266.72" width="8.17" height="3.32" rx="0.84"/><rect class="cls-5" x="387.78" y="191.3" width="8.86" height="4.22"/><rect class="cls-7" x="387.78" y="191.52" width="8.86" height="4.22"/><path class="cls-3" d="M378,342.27H365.73v-.15a4.78,4.78,0,0,1,4.77-4.78h0l2.24-1.7,4.18,1.7H378Z"/><path class="cls-3" d="M418.12,342.27H405.86v-.15a4.77,4.77,0,0,1,4.77-4.78h0l2.24-1.7,4.18,1.7h1.07Z"/><path class="cls-8" d="M412.05,211.71l-5.55,23.23,1.31,8.65,1.57,10.35-5.43-.35-8.42-.55-15.62-1-1.37-45.86,7.17-7.49,1.28-3.63,10.36-.07,2.48,4.37,6.37,1.81a15.87,15.87,0,0,1,2.3,1.78,13.45,13.45,0,0,1,3.62,5.2,6.7,6.7,0,0,1,.37,1.71Z"/><path class="cls-9" d="M383.09,203.37l-1.84,33-8.88,20.74-5.77,7.66.65-3.47-4-2-.37-.19,7.64-29.67.71-11.53a14.33,14.33,0,0,1,5.28-10.27l4.42-3.59Z"/><path class="cls-5" d="M355.15,270.67a3.29,3.29,0,0,0,1.29-4.48,3,3,0,0,0-.29-.44l7.91-14.39-3.45-3.17-9.26,17.17a3.29,3.29,0,0,0,3.8,5.31Z"/><path class="cls-8" d="M383.92,202.92l-11.4,31L358,251.2l-7.76,5.64,1.64-3.13-3.23-3.07-.3-.29,16-26.14,4-10.83a14.33,14.33,0,0,1,8.05-8.28l5.27-2.15Z"/><circle class="cls-5" cx="391.79" cy="184.59" r="8.46"/><path class="cls-3" d="M398.73,189c.07.51-.84.56-1.05.1a1.64,1.64,0,0,1,.32-1.44l.6-1a1.4,1.4,0,0,0-.92-2.09h0a3.08,3.08,0,0,0-1.14-3.59c-1.11-.8-2.74.69-4.08.95s-2.4-.76-3.62-.16l.73-1.69-4.05,1.75.94-1.9c-1,.06-1.45,1.3-1.66,2.31s-.78,2.4-1.95,2.18a1.5,1.5,0,0,1-1.13-1.12,6.64,6.64,0,0,1,5.16-7.86,5.08,5.08,0,0,1,9.7.47l1.13-1.39.22,2a2.17,2.17,0,0,1,2,1.21c.39.71.21,1.64.59,2.37a7.7,7.7,0,0,1-1.49,9.4"/><rect class="cls-1" x="301.52" y="204.51" width="99.95" height="63.89" rx="3.43"/><path class="cls-6" d="M374.3,265.28h-67a2.44,2.44,0,0,1-2.44-2.44V210a2.44,2.44,0,0,1,2.44-2.44h67a2.44,2.44,0,0,1,2.44,2.44v52.83A2.45,2.45,0,0,1,374.3,265.28Zm-67-56.71a1.44,1.44,0,0,0-1.44,1.44v52.83a1.45,1.45,0,0,0,1.44,1.44h67a1.45,1.45,0,0,0,1.44-1.44V210a1.44,1.44,0,0,0-1.44-1.44Z"/><path class="cls-6" d="M396.57,265.28H380.51a2.48,2.48,0,0,1-2.47-2.47V210a2.47,2.47,0,0,1,2.47-2.47h16.06A2.46,2.46,0,0,1,399,210v52.77A2.47,2.47,0,0,1,396.57,265.28Zm-16.06-56.71A1.47,1.47,0,0,0,379,210v52.77a1.47,1.47,0,0,0,1.47,1.47h16.06a1.47,1.47,0,0,0,1.47-1.47V210a1.47,1.47,0,0,0-1.47-1.47Z"/><path class="cls-6" d="M340.8,262.21a25.79,25.79,0,1,1,25.79-25.79A25.82,25.82,0,0,1,340.8,262.21Zm0-50.57a24.79,24.79,0,1,0,24.79,24.78A24.81,24.81,0,0,0,340.8,211.64Z"/><path class="cls-6" d="M340.8,260.09a23.67,23.67,0,1,1,23.67-23.67A23.7,23.7,0,0,1,340.8,260.09Zm0-46.33a22.67,22.67,0,1,0,22.67,22.66A22.69,22.69,0,0,0,340.8,213.76Z"/><path class="cls-6" d="M340.8,258a21.55,21.55,0,1,1,21.55-21.55A21.57,21.57,0,0,1,340.8,258Zm0-42.09a20.55,20.55,0,1,0,20.55,20.54A20.57,20.57,0,0,0,340.8,215.88Z"/><path class="cls-6" d="M340.8,255.73a19.31,19.31,0,1,1,19.31-19.31A19.33,19.33,0,0,1,340.8,255.73Zm0-37.61a18.31,18.31,0,1,0,18.31,18.3A18.32,18.32,0,0,0,340.8,218.12Z"/><path class="cls-6" d="M340.8,253.79a17.34,17.34,0,1,1,17.34-17.34A17.36,17.36,0,0,1,340.8,253.79Zm0-33.67a16.34,16.34,0,1,0,16.34,16.33A16.35,16.35,0,0,0,340.8,220.12Z"/><path class="cls-6" d="M340.8,251.76a15.31,15.31,0,1,1,15.31-15.31A15.32,15.32,0,0,1,340.8,251.76Zm0-29.62a14.31,14.31,0,1,0,14.31,14.31A14.32,14.32,0,0,0,340.8,222.14Z"/><path class="cls-6" d="M340.8,249.72a13.3,13.3,0,1,1,13.3-13.3A13.32,13.32,0,0,1,340.8,249.72Zm0-25.59a12.3,12.3,0,1,0,12.3,12.29A12.31,12.31,0,0,0,340.8,224.13Z"/><path class="cls-6" d="M340.8,247.74a11.29,11.29,0,1,1,11.29-11.29A11.29,11.29,0,0,1,340.8,247.74Zm0-21.57a10.29,10.29,0,1,0,10.29,10.28A10.29,10.29,0,0,0,340.8,226.17Z"/><path class="cls-6" d="M340.8,245.73a9.31,9.31,0,1,1,9.31-9.31A9.31,9.31,0,0,1,340.8,245.73Zm0-17.61a8.31,8.31,0,1,0,8.31,8.3A8.31,8.31,0,0,0,340.8,228.12Z"/><path class="cls-6" d="M340.8,243.74a7.32,7.32,0,1,1,7.32-7.32A7.32,7.32,0,0,1,340.8,243.74Zm0-13.63a6.32,6.32,0,1,0,6.32,6.31A6.32,6.32,0,0,0,340.8,230.11Z"/><circle class="cls-6" cx="340.8" cy="236.45" r="4.59"/><rect class="cls-6" x="340.3" y="211.14" width="1" height="50.57"/><rect class="cls-6" x="315.52" y="235.92" width="50.57" height="1"/><rect class="cls-6" x="380.39" y="260.12" width="16.29" height="2.88" rx="0.58"/><rect class="cls-6" x="380.39" y="256.24" width="16.29" height="2.88" rx="0.58"/><rect class="cls-6" x="380.39" y="252.36" width="16.29" height="2.88" rx="0.58"/><rect class="cls-6" x="380.39" y="248.48" width="16.29" height="2.88" rx="0.58"/><rect class="cls-6" x="380.39" y="244.6" width="16.29" height="2.88" rx="0.58"/><rect class="cls-6" x="380.39" y="240.72" width="16.29" height="2.88" rx="0.58"/><rect class="cls-6" x="380.39" y="236.84" width="16.29" height="2.88" rx="0.58"/><rect class="cls-6" x="380.39" y="232.96" width="16.29" height="2.88" rx="0.58"/><path class="cls-5" d="M369.75,260a3.29,3.29,0,0,0,3.12-3.46,4.34,4.34,0,0,0-.07-.52l13.39-9.5-1.72-4.35-15.82,11.4a3.28,3.28,0,0,0,1.1,6.43Z"/><path class="cls-8" d="M412.86,214.36l-.47,1.68-12,20.73-8,6.89-8.1,7-1,.86-8.54,4.37,2.1-2.84-2.71-3.53-.26-.32,3.22-3,7.41-6.8,3.21-2.95,6-10.65,5.66-10.06a14.34,14.34,0,0,1,9.23-6.94l3.42-.8A13.46,13.46,0,0,1,412.86,214.36Z"/><rect class="cls-3" x="40.12" y="325.38" width="232.7" height="16.89"/><rect class="cls-2" x="217.91" y="83.38" width="16.19" height="17.64"/><polygon class="cls-1" points="288.76 55.09 142.65 144.69 128.6 123.17 276.55 35.9 288.76 55.09"/><polygon class="cls-4" points="128.23 144.69 128.6 123.17 142.65 144.69 128.23 144.69"/><rect class="cls-2" x="205.99" y="78.88" width="2" height="24.25" transform="translate(-17.07 121.45) rotate(-31.47)"/><rect class="cls-2" x="216.08" y="72.91" width="2" height="24.05" transform="translate(-12.74 123.91) rotate(-30.99)"/><rect class="cls-2" x="227.33" y="66.25" width="2" height="23.83" transform="translate(-6.11 135.48) rotate(-32.64)"/><path class="cls-3" d="M235.82,101H216.14l-37,224.36h93.68ZM218,121.43h16.11l31,197.19H187Z"/><path class="cls-3" d="M79.79,308.49l-16.49-30L87.18,252l20.4-14.33S142,223.35,151,258.3s-60.82,56-60.82,56Z"/><path class="cls-1" d="M135.37,268.07l39.72-29.35s5.76-5.65,6.56,2-1.11,47.14-21.35,67.8-37.22,21.85-38.08,21.85-33.77,4.83-54.15-6.2c0,0-4-1.41,1.22-5.8s39.12-29.46,39.12-29.46l-4.53-4.83,26.23-21.29Z"/><rect class="cls-1" x="5.83" y="292.95" width="61.73" height="1" transform="translate(-225.67 156.99) rotate(-55.39)"/><polygon class="cls-1" points="27.29 328.82 28.68 327.09 84.25 301.87 84.67 302.77 27.29 328.82"/><rect class="cls-3" y="340.19" width="40.12" height="2.08"/><rect class="cls-1" x="144.88" y="144.61" width="12.31" height="39.96" transform="translate(274.4 350.83) rotate(-170.98)"/><path class="cls-2" d="M75,305.24a25.09,25.09,0,1,1,25.09-25.09A25.11,25.11,0,0,1,75,305.24Zm0-48.17a23.09,23.09,0,1,0,23.09,23.08A23.11,23.11,0,0,0,75,257.07Z"/><circle class="cls-1" cx="20.63" cy="326.26" r="8.37"/><circle class="cls-2" cx="20.63" cy="326.26" r="5.2"/><circle class="cls-2" cx="74.84" cy="279.99" r="6.02"/><rect class="cls-2" x="73.97" y="256.08" width="2" height="48.24" transform="translate(-92.38 43.29) rotate(-20.26)"/><rect class="cls-2" x="50.76" y="278.99" width="48.16" height="2" transform="translate(-186.88 155.48) rotate(-49.59)"/><rect class="cls-2" x="74.3" y="255.01" width="2" height="48.34" transform="translate(-212.67 305.37) rotate(-80.1)"/><ellipse id="Ellipse_15" data-name="Ellipse 15" class="cls-10" cx="351.72" cy="333.01" rx="13.41" ry="1.88"/><path class="cls-1" d="M353.72,109.08c1.83,11.07,2.71,30.16-6.36,28.72-3.71-.6-9.79-5.89-16-12.35Z"/><path class="cls-2" d="M353.72,109.08,331.4,125.45c-10.29-10.77-20.86-24.77-21.19-25.6-.53-1.32-16.92-19.57-16.92-19.57s-3.74-4.25-9-4.63c-6.48-.46-8.2-5.15-8.2-5.15s-13.88-30.28-16.4-44.69-5.42-17.59,2.91-21.95S280.86-3,295.27,6.64s40.19,37.15,48,62.8,7.81,26.58,9.92,36.76C353.36,107.07,353.54,108,353.72,109.08Z"/></g></g></svg>