<svg xmlns="http://www.w3.org/2000/svg" viewBox="0 0 313.56 352.32"><defs><style>.cls-1{fill:none;}</style></defs><g id="Laag_2" data-name="Laag 2"><g id="Layer_1" data-name="Layer 1"><path class="cls-1" d="M93.8,72.1c11.33,48,35.9,92,62.46,133,26.56-41,51.13-85,62.46-133,4.22-17.87,7.58-38.36,7.29-58A64.2,64.2,0,0,1,212.6,36.34c-8.31,8.88-21.7,15.86-35,17.45a39.82,39.82,0,0,1-41,.18c-13.86-1.19-28-8.38-36.7-17.63A64.2,64.2,0,0,1,86.51,14.05C86.22,33.74,89.58,54.23,93.8,72.1Z"/><path class="cls-1" d="M154,49.05V37.1a18.67,18.67,0,0,1-14.07-10.52l-12.84,4.17A39.29,39.29,0,0,0,154,49.05Z"/><circle class="cls-1" cx="156.78" cy="18.68" r="13.85"/><polygon class="cls-1" points="62.91 99.81 58.48 126.52 83.28 137.38 87.71 110.67 62.91 99.81"/><polygon class="cls-1" points="209.02 180.55 203.04 183.17 204.11 189.6 210.09 186.99 209.02 180.55"/><polygon class="cls-1" points="225.14 150.83 249.94 139.97 245.51 113.25 220.71 124.12 225.14 150.83"/><polygon class="cls-1" points="83.93 155.38 95.89 160.62 98.02 147.74 86.06 142.5 83.93 155.38"/><polygon class="cls-1" points="210.41 161.19 212.54 174.06 224.49 168.83 222.36 155.95 210.41 161.19"/><path class="cls-1" d="M159.59,37.1V48.87a39.37,39.37,0,0,0,26-18.4l-12-3.89A18.69,18.69,0,0,1,159.59,37.1Z"/><polygon class="cls-1" points="212.36 338.18 215.76 339.67 216.36 336.01 212.97 334.52 212.36 338.18"/><polygon class="cls-1" points="204.18 327.86 210.97 330.84 212.18 323.52 205.39 320.55 204.18 327.86"/><polygon class="cls-1" points="189.72 311.47 203.81 317.64 206.32 302.46 192.24 296.3 189.72 311.47"/><polygon class="cls-1" points="101.39 323.52 102.6 330.84 109.39 327.86 108.18 320.55 101.39 323.52"/><polygon class="cls-1" points="107.24 302.46 109.75 317.64 123.84 311.47 121.33 296.3 107.24 302.46"/><polygon class="cls-1" points="97.2 336.01 97.81 339.67 101.2 338.18 100.6 334.52 97.2 336.01"/><polygon class="cls-1" points="105.38 169.72 99.4 167.1 98.34 173.54 104.31 176.16 105.38 169.72"/><path d="M313.54,219.44l-26.13,35.18-26.15-35.19-26.13,35.19-21-28.29a291.49,291.49,0,0,0,19.95-23.43c37.46-49.7,52.58-108.66,33.08-168.82A155.06,155.06,0,0,0,251.38,0H185.06a34.14,34.14,0,0,1,6,15.66,46.46,46.46,0,0,1-2.86,9.74l-12.91-4.2a18.91,18.91,0,0,0,.19-2.52,18.57,18.57,0,0,0-5.79-13.47L173.44,0H166.5l-1.44,2A18.39,18.39,0,0,0,148.5,2l-1.44-2h-6.93l3.78,5.21a18.56,18.56,0,0,0-5.78,13.47,17.38,17.38,0,0,0,.19,2.52l-13.84,4.5a45.45,45.45,0,0,1-1.8-5c0-.36,0-.73,0-1.09A34.13,34.13,0,0,1,128.85,0H61.14A154.57,154.57,0,0,0,45.38,34.08C25.87,94.24,41,153.2,78.46,202.9a292.44,292.44,0,0,0,20.48,24L78.35,254.62,52.22,219.43,26.09,254.62,0,219.49v21.22l26.09,35.12,26.13-35.18,26.13,35.18,26.13-35.18,13.1,17.64c-15.35,19.79-29.56,40.3-34.17,65-.14.78-.28,1.57-.4,2.36a129.94,129.94,0,0,0-21.87,26.7H121a73.11,73.11,0,0,1,6.54-23.22c7.21-15.51,17.3-29.55,28.73-42.85,11.43,13.3,21.52,27.34,28.74,42.85a73.71,73.71,0,0,1,6.5,22.9,39.88,39.88,0,0,0-69.28.32h6.63a34.46,34.46,0,0,1,6.31-6.84l5,6.84h6.93l-7.29-10a34.19,34.19,0,0,1,34.12-.14l-7.39,10.18h6.94l5.09-7a34.77,34.77,0,0,1,6.53,7h66.32a129.94,129.94,0,0,0-21.87-26.7c-.12-.79-.26-1.58-.4-2.36-4.56-24.41-18.52-44.75-33.69-64.34L209,240.65l26.13,35.18,26.14-35.18,26.15,35.18,26.14-35.19V219.46ZM203,183.17l6-2.62,1.07,6.44-6,2.62Zm9.5-9.11-2.14-12.87,12-5.24,2.13,12.88Zm33-60.8L249.94,140l-24.8,10.86-4.43-26.71ZM185.62,30.47a39.37,39.37,0,0,1-26,18.4V37.1a18.69,18.69,0,0,0,14.07-10.52ZM156.78,4.83a13.85,13.85,0,1,1-13.85,13.85A13.87,13.87,0,0,1,156.78,4.83ZM139.91,26.58A18.67,18.67,0,0,0,154,37.1V49.05a39.29,39.29,0,0,1-26.91-18.3Zm-40,9.76c8.66,9.25,22.84,16.44,36.7,17.63a39.82,39.82,0,0,0,41-.18c13.32-1.59,26.71-8.57,35-17.45A64.2,64.2,0,0,0,226,14.05c.29,19.69-3.07,40.18-7.29,58.05-11.33,48-35.9,92-62.46,133-26.56-41-51.13-85-62.46-133-4.22-17.87-7.58-38.36-7.29-58A64.2,64.2,0,0,0,99.92,36.34ZM58.48,126.52l4.43-26.71,24.8,10.86-4.43,26.71Zm37.4,34.1-11.95-5.24,2.13-12.88,12,5.24Zm2.46,12.92,1.06-6.44,6,2.62-1.07,6.44Zm-.53,166.13L97.2,336l3.4-1.49.61,3.66Zm4.79-8.83-1.21-7.32,6.79-3,1.21,7.31Zm7.16-13.2-2.52-15.18,14.09-6.16,2.51,15.17ZM211,330.84l-6.79-3,1.21-7.31,6.79,3Zm4.79,8.83-3.4-1.49.61-3.66,3.39,1.49Zm-9.44-37.21-2.51,15.18-14.09-6.17,2.51-15.17Z"/></g></g></svg>